<mxfile>
    <diagram id="_sqtovBOgyfJliRNqcfL" name="第 1 页">
        <mxGraphModel dx="1118" dy="790" grid="1" gridSize="10" guides="1" tooltips="1" connect="0" arrows="1" fold="1" page="1" pageScale="1" pageWidth="827" pageHeight="1169" math="0" shadow="0">
            <root>
                <mxCell id="0"/>
                <mxCell id="1" parent="0"/>
                <mxCell id="SZTV1edUdWBdWp1gTtkR-1" value="&lt;div align=&quot;left&quot;&gt;1.什么是公平锁和非公平锁：&lt;/div&gt;&lt;div align=&quot;left&quot;&gt;对于ReentrantLock，有两个构造函数，一个是ReentrantLock()，默认是NonFairLock；一个是ReentrantLock(boolean fair)，可设置FairLock和NonFairLock。&lt;b&gt;synchronized是非公平锁。&lt;/b&gt;&lt;/div&gt;&lt;div align=&quot;left&quot;&gt;公平锁：指多个线程按照获取锁的顺序来获取锁（即排队，先来后到）&lt;/div&gt;&lt;div align=&quot;left&quot;&gt;非公平锁：多个线程不是按照获取锁的顺序来获取说，有可能后申请锁的线程比先申请锁的线程优先获取锁，在高并发的情况下，有可能造成优先级反转（插队）或饥饿（一直排不上）（即插队，加塞，任意插队）&lt;br&gt;&lt;/div&gt;" style="text;html=1;strokeColor=none;fillColor=none;align=left;verticalAlign=middle;whiteSpace=wrap;rounded=0;" parent="1" vertex="1">
                    <mxGeometry x="70" y="40" width="710" height="90" as="geometry"/>
                </mxCell>
                <mxCell id="SZTV1edUdWBdWp1gTtkR-2" value="&lt;div align=&quot;left&quot;&gt;2.可重入锁，又叫递归锁：&lt;/div&gt;&lt;div align=&quot;left&quot;&gt;指的是同一线程外层函数获得锁之后，内层递归函数仍然能获得该锁的代码，在同一线程在外层方法获取锁的时候，在进入内层方法会自动获取锁。即线程可以进入任何一个它已经拥有的锁所同步着的代码块。&lt;/div&gt;&lt;div align=&quot;left&quot;&gt;可重入锁的最大好处（作用）就是可以避免死锁&lt;br&gt;&lt;/div&gt;&lt;div align=&quot;left&quot;&gt;&lt;br&gt;&lt;/div&gt;" style="text;html=1;strokeColor=none;fillColor=none;align=left;verticalAlign=middle;whiteSpace=wrap;rounded=0;" parent="1" vertex="1">
                    <mxGeometry x="70" y="180" width="700" height="80" as="geometry"/>
                </mxCell>
                <mxCell id="rYrz4KPHa79t_mk9uuqx-1" value="&lt;div align=&quot;left&quot;&gt;3.自旋锁(spinlock):&lt;/div&gt;&lt;div align=&quot;left&quot;&gt;尝试获取锁的线程不会进入阻塞，而是循环地去尝试获取锁，这样的优点是不用频繁的切换上下文，缺点是大量消耗cpu性能&lt;/div&gt;&lt;div align=&quot;left&quot;&gt;&lt;br&gt;&lt;/div&gt;public class SpinLock {&lt;br&gt;&amp;nbsp;&amp;nbsp; &amp;nbsp;AtomicReference&amp;lt;Thread&amp;gt; atomicReference = new AtomicReference&amp;lt;&amp;gt;();&lt;br&gt;&amp;nbsp;&amp;nbsp; &amp;nbsp;&lt;br&gt;&amp;nbsp;&amp;nbsp; &amp;nbsp;public void myLock(){&lt;br&gt;&amp;nbsp;&amp;nbsp; &amp;nbsp;&amp;nbsp;&amp;nbsp;&amp;nbsp; Thread thread = Thread.currentThread();&lt;br&gt;&amp;nbsp;&amp;nbsp; &amp;nbsp;&amp;nbsp;&amp;nbsp; &amp;nbsp;System.out.println(thread.getName() + &quot;come in&quot;);&lt;br&gt;&amp;nbsp;&amp;nbsp; &amp;nbsp;&amp;nbsp;&amp;nbsp; &amp;nbsp;while(!atomicReference.compareAndSet(null,thread)){&lt;br&gt;&amp;nbsp;&amp;nbsp; &amp;nbsp;&amp;nbsp;&amp;nbsp; &amp;nbsp;&amp;nbsp;&amp;nbsp; &amp;nbsp;&lt;br&gt;&amp;nbsp;&amp;nbsp; &amp;nbsp;&amp;nbsp;&amp;nbsp; &amp;nbsp;}&lt;br&gt;&amp;nbsp;&amp;nbsp; &amp;nbsp;}&lt;br&gt;&amp;nbsp;&amp;nbsp; &amp;nbsp;&lt;br&gt;&amp;nbsp;&amp;nbsp; &amp;nbsp;public void myUnlock(){&lt;br&gt;&amp;nbsp;&amp;nbsp; &amp;nbsp;&amp;nbsp;&amp;nbsp;&amp;nbsp; Thread thread = Thread.currentThread();&lt;br&gt;&amp;nbsp;&amp;nbsp; &amp;nbsp;&amp;nbsp;&amp;nbsp; &amp;nbsp;atomicReference.compareAndSet(thread,null);&lt;br&gt;&amp;nbsp;&amp;nbsp; &amp;nbsp;&amp;nbsp;&amp;nbsp; &amp;nbsp;System.out.println(thread.getName() + &quot; release lock&quot;);&lt;br&gt;&amp;nbsp;&amp;nbsp; &amp;nbsp;}&lt;br&gt;&amp;nbsp;&amp;nbsp; &amp;nbsp;&lt;br&gt;&amp;nbsp;&amp;nbsp;&amp;nbsp; public static void main(String []args) {&lt;br&gt;&amp;nbsp;&amp;nbsp;&amp;nbsp;&amp;nbsp;&amp;nbsp;&amp;nbsp;&amp;nbsp; SpinLock spinLock = new SpinLock(); &lt;br&gt;&amp;nbsp;&amp;nbsp; &amp;nbsp;&amp;nbsp;&amp;nbsp;&amp;nbsp; new Thread(() -&amp;gt; {&lt;br&gt;&amp;nbsp;&amp;nbsp; &amp;nbsp;&amp;nbsp;&amp;nbsp;&amp;nbsp;&amp;nbsp;&amp;nbsp;&amp;nbsp;&amp;nbsp; spinLock.myLock();&lt;br&gt;&amp;nbsp;&amp;nbsp; &amp;nbsp;&amp;nbsp;&amp;nbsp; &amp;nbsp;&amp;nbsp;&amp;nbsp; &amp;nbsp;TimeUnit.SECOND.sleep(5);&lt;br&gt;&amp;nbsp;&amp;nbsp; &amp;nbsp;&amp;nbsp;&amp;nbsp; &amp;nbsp;&amp;nbsp;&amp;nbsp; &amp;nbsp;spinLock.unMyLock();&lt;br&gt;&amp;nbsp;&amp;nbsp; &amp;nbsp;&amp;nbsp;&amp;nbsp;&amp;nbsp; },&quot;t1&quot;).start();&lt;br&gt;&amp;nbsp;&amp;nbsp; &amp;nbsp;&amp;nbsp;&amp;nbsp; &amp;nbsp;&lt;br&gt;&amp;nbsp;&amp;nbsp; &amp;nbsp;&amp;nbsp;&amp;nbsp;&amp;nbsp; new Thread(() -&amp;gt; {&lt;br&gt;&amp;nbsp;&amp;nbsp; &amp;nbsp;&amp;nbsp;&amp;nbsp;&amp;nbsp;&amp;nbsp;&amp;nbsp;&amp;nbsp;&amp;nbsp; spinLock.myLock();&lt;br&gt;&amp;nbsp;&amp;nbsp; &amp;nbsp;&amp;nbsp;&amp;nbsp; &amp;nbsp;&amp;nbsp;&amp;nbsp; &amp;nbsp;spinLock.unMyLock();&lt;br&gt;&amp;nbsp;&amp;nbsp; &amp;nbsp;&amp;nbsp;&amp;nbsp;&amp;nbsp; },&quot;t2&quot;).start();&lt;br&gt;&amp;nbsp;&amp;nbsp; &amp;nbsp;&amp;nbsp;&amp;nbsp; &amp;nbsp;&lt;br&gt;&amp;nbsp;&amp;nbsp;&amp;nbsp; }&lt;br&gt;}" style="text;html=1;strokeColor=none;fillColor=none;align=left;verticalAlign=middle;whiteSpace=wrap;rounded=0;" parent="1" vertex="1">
                    <mxGeometry x="70" y="270" width="671" height="560" as="geometry"/>
                </mxCell>
                <mxCell id="XRPbjI9R27rfaML1Psjf-1" value="&lt;div align=&quot;left&quot;&gt;4.独占锁(写锁)/共享锁(读锁)/互斥锁:&lt;/div&gt;&lt;div align=&quot;left&quot;&gt;独占锁：指该锁只能被一个线程所持有。对ReentrantLock和synchronized锁而言，都是独占锁。&lt;/div&gt;&lt;div align=&quot;left&quot;&gt;共享锁：指该锁可以被多个线程所持有。&lt;/div&gt;&lt;div align=&quot;left&quot;&gt;对ReentrantReadWriteLock而言，其读锁是共享锁，其写锁是独占锁。&lt;/div&gt;&lt;div align=&quot;left&quot;&gt;读锁的共享锁可保证并发读是非常高效的，读写，写读，写写的过程是互斥的。&lt;/div&gt;&lt;div align=&quot;left&quot;&gt;public class ReadWriteLockDemo {&lt;br&gt;&amp;nbsp;&amp;nbsp;&amp;nbsp; public static void main(String[] args) {&lt;br&gt;&amp;nbsp;&amp;nbsp;&amp;nbsp;&amp;nbsp;&amp;nbsp;&amp;nbsp;&amp;nbsp; MyCache myCache = new MyCache();&lt;br&gt;&lt;br&gt;&amp;nbsp;&amp;nbsp;&amp;nbsp;&amp;nbsp;&amp;nbsp;&amp;nbsp;&amp;nbsp; for(int i = 0; i &amp;lt; 5; i++){&lt;br&gt;&amp;nbsp;&amp;nbsp;&amp;nbsp;&amp;nbsp;&amp;nbsp;&amp;nbsp;&amp;nbsp;&amp;nbsp;&amp;nbsp;&amp;nbsp;&amp;nbsp; final int intValue = i;&lt;br&gt;&amp;nbsp;&amp;nbsp;&amp;nbsp;&amp;nbsp;&amp;nbsp;&amp;nbsp;&amp;nbsp;&amp;nbsp;&amp;nbsp;&amp;nbsp;&amp;nbsp; new Thread(() -&amp;gt; {&lt;br&gt;&amp;nbsp;&amp;nbsp;&amp;nbsp;&amp;nbsp;&amp;nbsp;&amp;nbsp;&amp;nbsp;&amp;nbsp;&amp;nbsp;&amp;nbsp;&amp;nbsp;&amp;nbsp;&amp;nbsp;&amp;nbsp;&amp;nbsp; myCache.set(intValue + &quot;&quot;,intValue + &quot;&quot;);&lt;br&gt;&amp;nbsp;&amp;nbsp;&amp;nbsp;&amp;nbsp;&amp;nbsp;&amp;nbsp;&amp;nbsp;&amp;nbsp;&amp;nbsp;&amp;nbsp;&amp;nbsp; },i + &quot;&quot;).start();&lt;br&gt;&amp;nbsp;&amp;nbsp;&amp;nbsp;&amp;nbsp;&amp;nbsp;&amp;nbsp;&amp;nbsp; }&lt;br&gt;&lt;br&gt;&amp;nbsp;&amp;nbsp;&amp;nbsp;&amp;nbsp;&amp;nbsp;&amp;nbsp;&amp;nbsp; try{&lt;br&gt;&amp;nbsp;&amp;nbsp;&amp;nbsp;&amp;nbsp;&amp;nbsp;&amp;nbsp;&amp;nbsp;&amp;nbsp;&amp;nbsp;&amp;nbsp;&amp;nbsp; TimeUnit.SECONDS.sleep(1);&lt;br&gt;&amp;nbsp;&amp;nbsp;&amp;nbsp;&amp;nbsp;&amp;nbsp;&amp;nbsp;&amp;nbsp; }catch (Exception e){&lt;br&gt;&amp;nbsp;&amp;nbsp;&amp;nbsp;&amp;nbsp;&amp;nbsp;&amp;nbsp;&amp;nbsp;&amp;nbsp;&amp;nbsp;&amp;nbsp;&amp;nbsp; e.printStackTrace();&lt;br&gt;&amp;nbsp;&amp;nbsp;&amp;nbsp;&amp;nbsp;&amp;nbsp;&amp;nbsp;&amp;nbsp; }finally {&lt;br&gt;&lt;br&gt;&amp;nbsp;&amp;nbsp;&amp;nbsp;&amp;nbsp;&amp;nbsp;&amp;nbsp;&amp;nbsp; }&lt;br&gt;&lt;br&gt;&amp;nbsp;&amp;nbsp;&amp;nbsp;&amp;nbsp;&amp;nbsp;&amp;nbsp;&amp;nbsp; for(int i = 0; i &amp;lt; 5; i++){&lt;br&gt;&amp;nbsp;&amp;nbsp;&amp;nbsp;&amp;nbsp;&amp;nbsp;&amp;nbsp;&amp;nbsp;&amp;nbsp;&amp;nbsp;&amp;nbsp;&amp;nbsp; final int intValue = i;&lt;br&gt;&amp;nbsp;&amp;nbsp;&amp;nbsp;&amp;nbsp;&amp;nbsp;&amp;nbsp;&amp;nbsp;&amp;nbsp;&amp;nbsp;&amp;nbsp;&amp;nbsp; new Thread(() -&amp;gt; {&lt;br&gt;&amp;nbsp;&amp;nbsp;&amp;nbsp;&amp;nbsp;&amp;nbsp;&amp;nbsp;&amp;nbsp;&amp;nbsp;&amp;nbsp;&amp;nbsp;&amp;nbsp;&amp;nbsp;&amp;nbsp;&amp;nbsp;&amp;nbsp; myCache.get(intValue + &quot;&quot;);&lt;br&gt;&amp;nbsp;&amp;nbsp;&amp;nbsp;&amp;nbsp;&amp;nbsp;&amp;nbsp;&amp;nbsp;&amp;nbsp;&amp;nbsp;&amp;nbsp;&amp;nbsp; },i + &quot;&quot;).start();&lt;br&gt;&amp;nbsp;&amp;nbsp;&amp;nbsp;&amp;nbsp;&amp;nbsp;&amp;nbsp;&amp;nbsp; }&lt;br&gt;&amp;nbsp;&amp;nbsp;&amp;nbsp; }&lt;br&gt;}&lt;br&gt;&lt;br&gt;class MyCache{&lt;br&gt;&amp;nbsp;&amp;nbsp;&amp;nbsp; private volatile Map&amp;lt;String,Object&amp;gt; map = new HashMap&amp;lt;&amp;gt;();&lt;br&gt;&amp;nbsp;&amp;nbsp;&amp;nbsp; private ReentrantReadWriteLock reentrantReadWriteLock = new ReentrantReadWriteLock();&lt;br&gt;&lt;br&gt;&amp;nbsp;&amp;nbsp;&amp;nbsp; public void set(String key,Object value){&lt;br&gt;&amp;nbsp;&amp;nbsp;&amp;nbsp;&amp;nbsp;&amp;nbsp;&amp;nbsp;&amp;nbsp; try{&lt;br&gt;&amp;nbsp;&amp;nbsp;&amp;nbsp;&amp;nbsp;&amp;nbsp;&amp;nbsp;&amp;nbsp;&amp;nbsp;&amp;nbsp;&amp;nbsp;&amp;nbsp; reentrantReadWriteLock.writeLock().lock();&lt;br&gt;&amp;nbsp;&amp;nbsp;&amp;nbsp;&amp;nbsp;&amp;nbsp;&amp;nbsp;&amp;nbsp;&amp;nbsp;&amp;nbsp;&amp;nbsp;&amp;nbsp; System.out.println(Thread.currentThread().getName() + &quot;正在写入&quot;);&lt;br&gt;&amp;nbsp;&amp;nbsp;&amp;nbsp;&amp;nbsp;&amp;nbsp;&amp;nbsp;&amp;nbsp;&amp;nbsp;&amp;nbsp;&amp;nbsp;&amp;nbsp; map.put(key,value);&lt;br&gt;&amp;nbsp;&amp;nbsp;&amp;nbsp;&amp;nbsp;&amp;nbsp;&amp;nbsp;&amp;nbsp;&amp;nbsp;&amp;nbsp;&amp;nbsp;&amp;nbsp; System.out.println(Thread.currentThread().getName() + &quot;写入完成:key=&quot; + key + &quot;,value=&quot; + value);&lt;br&gt;&amp;nbsp;&amp;nbsp;&amp;nbsp;&amp;nbsp;&amp;nbsp;&amp;nbsp;&amp;nbsp; }catch (Exception e){&lt;br&gt;&amp;nbsp;&amp;nbsp;&amp;nbsp;&amp;nbsp;&amp;nbsp;&amp;nbsp;&amp;nbsp;&amp;nbsp;&amp;nbsp;&amp;nbsp;&amp;nbsp; e.printStackTrace();&lt;br&gt;&amp;nbsp;&amp;nbsp;&amp;nbsp;&amp;nbsp;&amp;nbsp;&amp;nbsp;&amp;nbsp; }finally {&lt;br&gt;&amp;nbsp;&amp;nbsp;&amp;nbsp;&amp;nbsp;&amp;nbsp;&amp;nbsp;&amp;nbsp;&amp;nbsp;&amp;nbsp;&amp;nbsp;&amp;nbsp; reentrantReadWriteLock.writeLock().unlock();&lt;br&gt;&amp;nbsp;&amp;nbsp;&amp;nbsp;&amp;nbsp;&amp;nbsp;&amp;nbsp;&amp;nbsp; }&lt;br&gt;&amp;nbsp;&amp;nbsp;&amp;nbsp; }&lt;br&gt;&lt;br&gt;&amp;nbsp;&amp;nbsp;&amp;nbsp; public void get(String key){&lt;br&gt;&amp;nbsp;&amp;nbsp;&amp;nbsp;&amp;nbsp;&amp;nbsp;&amp;nbsp;&amp;nbsp; try{&lt;br&gt;&amp;nbsp;&amp;nbsp;&amp;nbsp;&amp;nbsp;&amp;nbsp;&amp;nbsp;&amp;nbsp;&amp;nbsp;&amp;nbsp;&amp;nbsp;&amp;nbsp; reentrantReadWriteLock.readLock().lock();&lt;br&gt;&amp;nbsp;&amp;nbsp;&amp;nbsp;&amp;nbsp;&amp;nbsp;&amp;nbsp;&amp;nbsp;&amp;nbsp;&amp;nbsp;&amp;nbsp;&amp;nbsp; System.out.println(Thread.currentThread().getName() + &quot;正在读取&quot;);&lt;br&gt;&amp;nbsp;&amp;nbsp;&amp;nbsp;&amp;nbsp;&amp;nbsp;&amp;nbsp;&amp;nbsp;&amp;nbsp;&amp;nbsp;&amp;nbsp;&amp;nbsp; Object result = map.get(key);&lt;br&gt;&amp;nbsp;&amp;nbsp;&amp;nbsp;&amp;nbsp;&amp;nbsp;&amp;nbsp;&amp;nbsp;&amp;nbsp;&amp;nbsp;&amp;nbsp;&amp;nbsp; System.out.println(Thread.currentThread().getName() + &quot;读取完成：&quot; + result);&lt;br&gt;&amp;nbsp;&amp;nbsp;&amp;nbsp;&amp;nbsp;&amp;nbsp;&amp;nbsp;&amp;nbsp; }catch (Exception e){&lt;br&gt;&amp;nbsp;&amp;nbsp;&amp;nbsp;&amp;nbsp;&amp;nbsp;&amp;nbsp;&amp;nbsp;&amp;nbsp;&amp;nbsp;&amp;nbsp;&amp;nbsp; e.printStackTrace();&lt;br&gt;&amp;nbsp;&amp;nbsp;&amp;nbsp;&amp;nbsp;&amp;nbsp;&amp;nbsp;&amp;nbsp; }finally {&lt;br&gt;&amp;nbsp;&amp;nbsp;&amp;nbsp;&amp;nbsp;&amp;nbsp;&amp;nbsp;&amp;nbsp;&amp;nbsp;&amp;nbsp;&amp;nbsp;&amp;nbsp; reentrantReadWriteLock.readLock().unlock();&lt;br&gt;&amp;nbsp;&amp;nbsp;&amp;nbsp;&amp;nbsp;&amp;nbsp;&amp;nbsp;&amp;nbsp; }&lt;br&gt;&amp;nbsp;&amp;nbsp;&amp;nbsp; }&lt;br&gt;}&lt;br&gt;&lt;/div&gt;&lt;div align=&quot;left&quot;&gt;&lt;br&gt;&lt;/div&gt;" style="text;html=1;strokeColor=none;fillColor=none;align=left;verticalAlign=middle;whiteSpace=wrap;rounded=0;" parent="1" vertex="1">
                    <mxGeometry x="70" y="840" width="660" height="930" as="geometry"/>
                </mxCell>
                <mxCell id="vLCXhdzOMLe5HML4qHD_-1" value="&lt;div align=&quot;left&quot;&gt;CountDownLatch:----秦灭六国，一统华夏。&lt;/div&gt;&lt;div align=&quot;left&quot;&gt;让一些线程阻塞直到另一些线程完成一系列操作后才被唤醒。&amp;nbsp; &lt;br&gt;&lt;/div&gt;&lt;div align=&quot;left&quot;&gt;类似火箭发射倒计时，即阻塞某一线程，等待线程中的任务完成后（countDown倒数到0），唤醒该阻塞线程。&lt;/div&gt;&lt;div align=&quot;left&quot;&gt;&lt;br&gt;&lt;/div&gt;&lt;div align=&quot;left&quot;&gt;CountDownLatch主要有两个方法，当一个或多个线程调用await()方法时，调用线程会被阻塞。其他线程调用countDown()方法会将计数器减1（调用countDown()方法的线程不会被阻塞），当计数器的值变为零时，因调用await()被阻塞的线程会被唤醒，继续执行。&lt;br&gt;&lt;/div&gt;&lt;div align=&quot;left&quot;&gt;&lt;br&gt;&lt;/div&gt;&lt;div align=&quot;left&quot;&gt;public class CountDownLatchDemo {&lt;br&gt;&lt;br&gt;&amp;nbsp;&amp;nbsp;&amp;nbsp; public static void main(String[] args) throws InterruptedException {&lt;br&gt;&amp;nbsp;&amp;nbsp;&amp;nbsp;&amp;nbsp;&amp;nbsp;&amp;nbsp;&amp;nbsp; int countryNum = 6;&lt;br&gt;&amp;nbsp;&amp;nbsp;&amp;nbsp;&amp;nbsp;&amp;nbsp;&amp;nbsp;&amp;nbsp; CountDownLatch countDownLatch = new CountDownLatch(countryNum);&lt;br&gt;&amp;nbsp;&amp;nbsp;&amp;nbsp;&amp;nbsp;&amp;nbsp;&amp;nbsp;&amp;nbsp; for(int i = 1; i &amp;lt;= countryNum; i++){&lt;br&gt;&amp;nbsp;&amp;nbsp;&amp;nbsp;&amp;nbsp;&amp;nbsp;&amp;nbsp;&amp;nbsp;&amp;nbsp;&amp;nbsp;&amp;nbsp;&amp;nbsp; final int threadNum = i;&lt;br&gt;&amp;nbsp;&amp;nbsp;&amp;nbsp;&amp;nbsp;&amp;nbsp;&amp;nbsp;&amp;nbsp;&amp;nbsp;&amp;nbsp;&amp;nbsp;&amp;nbsp; new Thread(() -&amp;gt; {&lt;br&gt;&amp;nbsp;&amp;nbsp;&amp;nbsp;&amp;nbsp;&amp;nbsp;&amp;nbsp;&amp;nbsp;&amp;nbsp;&amp;nbsp;&amp;nbsp;&amp;nbsp;&amp;nbsp;&amp;nbsp;&amp;nbsp;&amp;nbsp; System.out.println(Thread.currentThread().getName() + &quot;\t国被灭&quot;);&lt;br&gt;&amp;nbsp;&amp;nbsp;&amp;nbsp;&amp;nbsp;&amp;nbsp;&amp;nbsp;&amp;nbsp;&amp;nbsp;&amp;nbsp;&amp;nbsp;&amp;nbsp;&amp;nbsp;&amp;nbsp;&amp;nbsp;&amp;nbsp; countDownLatch.countDown();&lt;br&gt;&amp;nbsp;&amp;nbsp;&amp;nbsp;&amp;nbsp;&amp;nbsp;&amp;nbsp;&amp;nbsp;&amp;nbsp;&amp;nbsp;&amp;nbsp;&amp;nbsp; },CountryEnum.getNameFromEach(threadNum)).start();&lt;br&gt;&amp;nbsp;&amp;nbsp;&amp;nbsp;&amp;nbsp;&amp;nbsp;&amp;nbsp;&amp;nbsp; }&lt;br&gt;&amp;nbsp;&amp;nbsp;&amp;nbsp;&amp;nbsp;&amp;nbsp;&amp;nbsp;&amp;nbsp; countDownLatch.await();&lt;br&gt;&amp;nbsp;&amp;nbsp;&amp;nbsp;&amp;nbsp;&amp;nbsp;&amp;nbsp;&amp;nbsp; System.out.println(&quot;秦国统一华夏!&quot;);&lt;br&gt;&amp;nbsp;&amp;nbsp;&amp;nbsp; }&lt;br&gt;}&lt;br&gt;&lt;/div&gt;" style="text;html=1;strokeColor=none;fillColor=none;align=left;verticalAlign=middle;whiteSpace=wrap;rounded=0;" parent="1" vertex="1">
                    <mxGeometry x="70" y="1780" width="720" height="310" as="geometry"/>
                </mxCell>
                <mxCell id="PV_EnIKpc_XK-R6DbUPg-1" value="&lt;div&gt;CyclicBarrier:-----集齐龙珠，召唤神龙&lt;/div&gt;&lt;div&gt;字面意思就是可循环(Cyclic)使用的屏障(Barrier)。它要做的事情是，让一组线程到达一个屏障（也可以叫同步点）时被阻塞，直到最后一个线程到达屏障时才会开门，所有屏障拦截的线程才会继续干活，线程进入屏障通过CyclicBarrier的await()方法。&lt;br&gt;&lt;/div&gt;&lt;div&gt;&lt;br&gt;&lt;/div&gt;&lt;div&gt;public class CyclicBarrierDemo {&lt;/div&gt;&lt;br&gt;&amp;nbsp;&amp;nbsp;&amp;nbsp; public static void main(String[] args) {&lt;br&gt;&amp;nbsp;&amp;nbsp;&amp;nbsp;&amp;nbsp;&amp;nbsp;&amp;nbsp;&amp;nbsp; CyclicBarrier cyclicBarrier = new CyclicBarrier(7,() -&amp;gt; {&lt;br&gt;&amp;nbsp;&amp;nbsp;&amp;nbsp;&amp;nbsp;&amp;nbsp;&amp;nbsp;&amp;nbsp;&amp;nbsp;&amp;nbsp;&amp;nbsp;&amp;nbsp; System.out.println(&quot;****集齐七龙珠，召唤神龙！&quot;);&lt;br&gt;&amp;nbsp;&amp;nbsp;&amp;nbsp;&amp;nbsp;&amp;nbsp;&amp;nbsp;&amp;nbsp; });&lt;br&gt;&lt;br&gt;&amp;nbsp;&amp;nbsp;&amp;nbsp;&amp;nbsp;&amp;nbsp;&amp;nbsp;&amp;nbsp; for (int i = 0; i &amp;lt; 7; i++) {&lt;br&gt;&amp;nbsp;&amp;nbsp;&amp;nbsp;&amp;nbsp;&amp;nbsp;&amp;nbsp;&amp;nbsp;&amp;nbsp;&amp;nbsp;&amp;nbsp;&amp;nbsp; final int tempInt = i;&lt;br&gt;&amp;nbsp;&amp;nbsp;&amp;nbsp;&amp;nbsp;&amp;nbsp;&amp;nbsp;&amp;nbsp;&amp;nbsp;&amp;nbsp;&amp;nbsp;&amp;nbsp; new Thread(() -&amp;gt; {&lt;br&gt;&amp;nbsp;&amp;nbsp;&amp;nbsp;&amp;nbsp;&amp;nbsp;&amp;nbsp;&amp;nbsp;&amp;nbsp;&amp;nbsp;&amp;nbsp;&amp;nbsp;&amp;nbsp;&amp;nbsp;&amp;nbsp;&amp;nbsp; System.out.println(&quot;找到第&quot; + tempInt + &quot;颗龙珠&quot;);&lt;br&gt;&amp;nbsp;&amp;nbsp;&amp;nbsp;&amp;nbsp;&amp;nbsp;&amp;nbsp;&amp;nbsp;&amp;nbsp;&amp;nbsp;&amp;nbsp;&amp;nbsp;&amp;nbsp;&amp;nbsp;&amp;nbsp;&amp;nbsp; try {&lt;br&gt;&amp;nbsp;&amp;nbsp;&amp;nbsp;&amp;nbsp;&amp;nbsp;&amp;nbsp;&amp;nbsp;&amp;nbsp;&amp;nbsp;&amp;nbsp;&amp;nbsp;&amp;nbsp;&amp;nbsp;&amp;nbsp;&amp;nbsp;&amp;nbsp;&amp;nbsp;&amp;nbsp;&amp;nbsp; cyclicBarrier.await();&lt;br&gt;&amp;nbsp;&amp;nbsp;&amp;nbsp;&amp;nbsp;&amp;nbsp;&amp;nbsp;&amp;nbsp;&amp;nbsp;&amp;nbsp;&amp;nbsp;&amp;nbsp;&amp;nbsp;&amp;nbsp;&amp;nbsp;&amp;nbsp; } catch (InterruptedException e) {&lt;br&gt;&amp;nbsp;&amp;nbsp;&amp;nbsp;&amp;nbsp;&amp;nbsp;&amp;nbsp;&amp;nbsp;&amp;nbsp;&amp;nbsp;&amp;nbsp;&amp;nbsp;&amp;nbsp;&amp;nbsp;&amp;nbsp;&amp;nbsp;&amp;nbsp;&amp;nbsp;&amp;nbsp;&amp;nbsp; e.printStackTrace();&lt;br&gt;&amp;nbsp;&amp;nbsp;&amp;nbsp;&amp;nbsp;&amp;nbsp;&amp;nbsp;&amp;nbsp;&amp;nbsp;&amp;nbsp;&amp;nbsp;&amp;nbsp;&amp;nbsp;&amp;nbsp;&amp;nbsp;&amp;nbsp; } catch (BrokenBarrierException e) {&lt;br&gt;&amp;nbsp;&amp;nbsp;&amp;nbsp;&amp;nbsp;&amp;nbsp;&amp;nbsp;&amp;nbsp;&amp;nbsp;&amp;nbsp;&amp;nbsp;&amp;nbsp;&amp;nbsp;&amp;nbsp;&amp;nbsp;&amp;nbsp;&amp;nbsp;&amp;nbsp;&amp;nbsp;&amp;nbsp; e.printStackTrace();&lt;br&gt;&amp;nbsp;&amp;nbsp;&amp;nbsp;&amp;nbsp;&amp;nbsp;&amp;nbsp;&amp;nbsp;&amp;nbsp;&amp;nbsp;&amp;nbsp;&amp;nbsp;&amp;nbsp;&amp;nbsp;&amp;nbsp;&amp;nbsp; }&lt;br&gt;&amp;nbsp;&amp;nbsp;&amp;nbsp;&amp;nbsp;&amp;nbsp;&amp;nbsp;&amp;nbsp;&amp;nbsp;&amp;nbsp;&amp;nbsp;&amp;nbsp; },String.valueOf(i)).start();&lt;br&gt;&amp;nbsp;&amp;nbsp;&amp;nbsp;&amp;nbsp;&amp;nbsp;&amp;nbsp;&amp;nbsp; }&lt;br&gt;&amp;nbsp;&amp;nbsp;&amp;nbsp; }&lt;br&gt;}" style="text;html=1;strokeColor=none;fillColor=none;align=left;verticalAlign=middle;whiteSpace=wrap;rounded=0;" parent="1" vertex="1">
                    <mxGeometry x="70" y="2100" width="730" height="460" as="geometry"/>
                </mxCell>
                <mxCell id="PV_EnIKpc_XK-R6DbUPg-2" value="Semaphore:----抢车位&lt;br&gt;&lt;div&gt;主要两个目的，一是多个共享资源的互斥使用，另一个是用于并发线程数的控制。&lt;/div&gt;&lt;div&gt;&lt;br&gt;&lt;/div&gt;&lt;div&gt;public class SemaphoreDemo {&lt;br&gt;&amp;nbsp;&amp;nbsp;&amp;nbsp; public static void main(String[] args) {&lt;br&gt;&amp;nbsp;&amp;nbsp;&amp;nbsp;&amp;nbsp;&amp;nbsp;&amp;nbsp;&amp;nbsp; //假设有3个停车位&lt;br&gt;&amp;nbsp;&amp;nbsp;&amp;nbsp;&amp;nbsp;&amp;nbsp;&amp;nbsp;&amp;nbsp; Semaphore semaphore = new Semaphore(3);&lt;br&gt;&amp;nbsp;&amp;nbsp;&amp;nbsp;&amp;nbsp;&amp;nbsp;&amp;nbsp;&amp;nbsp; //假设有6辆车&lt;br&gt;&amp;nbsp;&amp;nbsp;&amp;nbsp;&amp;nbsp;&amp;nbsp;&amp;nbsp;&amp;nbsp; for (int i = 1; i &amp;lt;= 6; i++) {&lt;br&gt;&amp;nbsp;&amp;nbsp;&amp;nbsp;&amp;nbsp;&amp;nbsp;&amp;nbsp;&amp;nbsp;&amp;nbsp;&amp;nbsp;&amp;nbsp;&amp;nbsp; final int tempInt = i;&lt;br&gt;&amp;nbsp;&amp;nbsp;&amp;nbsp;&amp;nbsp;&amp;nbsp;&amp;nbsp;&amp;nbsp;&amp;nbsp;&amp;nbsp;&amp;nbsp;&amp;nbsp; new Thread(() -&amp;gt; {&lt;br&gt;&amp;nbsp;&amp;nbsp;&amp;nbsp;&amp;nbsp;&amp;nbsp;&amp;nbsp;&amp;nbsp;&amp;nbsp;&amp;nbsp;&amp;nbsp;&amp;nbsp;&amp;nbsp;&amp;nbsp;&amp;nbsp;&amp;nbsp; try {&lt;br&gt;&amp;nbsp;&amp;nbsp;&amp;nbsp;&amp;nbsp;&amp;nbsp;&amp;nbsp;&amp;nbsp;&amp;nbsp;&amp;nbsp;&amp;nbsp;&amp;nbsp;&amp;nbsp;&amp;nbsp;&amp;nbsp;&amp;nbsp;&amp;nbsp;&amp;nbsp;&amp;nbsp;&amp;nbsp; semaphore.acquire();&lt;br&gt;&amp;nbsp;&amp;nbsp;&amp;nbsp;&amp;nbsp;&amp;nbsp;&amp;nbsp;&amp;nbsp;&amp;nbsp;&amp;nbsp;&amp;nbsp;&amp;nbsp;&amp;nbsp;&amp;nbsp;&amp;nbsp;&amp;nbsp;&amp;nbsp;&amp;nbsp;&amp;nbsp;&amp;nbsp; System.out.println(&quot;第&quot; + tempInt + &quot;辆车进入停车位&quot;);&lt;br&gt;&amp;nbsp;&amp;nbsp;&amp;nbsp;&amp;nbsp;&amp;nbsp;&amp;nbsp;&amp;nbsp;&amp;nbsp;&amp;nbsp;&amp;nbsp;&amp;nbsp;&amp;nbsp;&amp;nbsp;&amp;nbsp;&amp;nbsp;&amp;nbsp;&amp;nbsp;&amp;nbsp;&amp;nbsp; Thread.sleep(3000);&lt;br&gt;&amp;nbsp;&amp;nbsp;&amp;nbsp;&amp;nbsp;&amp;nbsp;&amp;nbsp;&amp;nbsp;&amp;nbsp;&amp;nbsp;&amp;nbsp;&amp;nbsp;&amp;nbsp;&amp;nbsp;&amp;nbsp;&amp;nbsp;&amp;nbsp;&amp;nbsp;&amp;nbsp;&amp;nbsp; System.out.println(&quot;第&quot; + tempInt + &quot;辆车停车3秒后离开停车位&quot;);&lt;br&gt;&amp;nbsp;&amp;nbsp;&amp;nbsp;&amp;nbsp;&amp;nbsp;&amp;nbsp;&amp;nbsp;&amp;nbsp;&amp;nbsp;&amp;nbsp;&amp;nbsp;&amp;nbsp;&amp;nbsp;&amp;nbsp;&amp;nbsp; } catch (Exception e) {&lt;br&gt;&amp;nbsp;&amp;nbsp;&amp;nbsp;&amp;nbsp;&amp;nbsp;&amp;nbsp;&amp;nbsp;&amp;nbsp;&amp;nbsp;&amp;nbsp;&amp;nbsp;&amp;nbsp;&amp;nbsp;&amp;nbsp;&amp;nbsp;&amp;nbsp;&amp;nbsp;&amp;nbsp;&amp;nbsp; e.printStackTrace();&lt;br&gt;&amp;nbsp;&amp;nbsp;&amp;nbsp;&amp;nbsp;&amp;nbsp;&amp;nbsp;&amp;nbsp;&amp;nbsp;&amp;nbsp;&amp;nbsp;&amp;nbsp;&amp;nbsp;&amp;nbsp;&amp;nbsp;&amp;nbsp; }finally {&lt;br&gt;&amp;nbsp;&amp;nbsp;&amp;nbsp;&amp;nbsp;&amp;nbsp;&amp;nbsp;&amp;nbsp;&amp;nbsp;&amp;nbsp;&amp;nbsp;&amp;nbsp;&amp;nbsp;&amp;nbsp;&amp;nbsp;&amp;nbsp;&amp;nbsp;&amp;nbsp;&amp;nbsp;&amp;nbsp; semaphore.release();&lt;br&gt;&amp;nbsp;&amp;nbsp;&amp;nbsp;&amp;nbsp;&amp;nbsp;&amp;nbsp;&amp;nbsp;&amp;nbsp;&amp;nbsp;&amp;nbsp;&amp;nbsp;&amp;nbsp;&amp;nbsp;&amp;nbsp;&amp;nbsp; }&lt;br&gt;&amp;nbsp;&amp;nbsp;&amp;nbsp;&amp;nbsp;&amp;nbsp;&amp;nbsp;&amp;nbsp;&amp;nbsp;&amp;nbsp;&amp;nbsp;&amp;nbsp; },String.valueOf(i)).start();&lt;br&gt;&amp;nbsp;&amp;nbsp;&amp;nbsp;&amp;nbsp;&amp;nbsp;&amp;nbsp;&amp;nbsp; }&lt;br&gt;&amp;nbsp;&amp;nbsp;&amp;nbsp; }&lt;br&gt;}&lt;/div&gt;&lt;div&gt;&lt;br&gt;&lt;/div&gt;&lt;div&gt;&lt;br&gt;&lt;/div&gt;&lt;div&gt;&lt;br&gt;&lt;/div&gt;" style="text;html=1;strokeColor=none;fillColor=none;align=left;verticalAlign=middle;whiteSpace=wrap;rounded=0;" parent="1" vertex="1">
                    <mxGeometry x="70" y="2540" width="700" height="480" as="geometry"/>
                </mxCell>
                <mxCell id="6gLxI1jyKokoW1-XU-6o-1" value="&lt;div align=&quot;left&quot;&gt;synchronized和Lock有什么区别，使用Lock有什么好处？：&lt;/div&gt;&lt;div align=&quot;left&quot;&gt;区别：&lt;/div&gt;&lt;div align=&quot;left&quot;&gt;1.原始构成：&lt;/div&gt;&lt;div align=&quot;left&quot;&gt;synchronized是jvm层面的，是java的关键字。&lt;/div&gt;&lt;div align=&quot;left&quot;&gt;&amp;nbsp;&amp;nbsp;&amp;nbsp; 底层是通过monitor对象完成，其实wait/notify等方法也依赖于monitor对象，只有在同步块或方法中才能调wait/notify。&lt;br&gt;&lt;/div&gt;&lt;div align=&quot;left&quot;&gt;&amp;nbsp;&amp;nbsp;&amp;nbsp; monitorenter&lt;/div&gt;&lt;div align=&quot;left&quot;&gt;&amp;nbsp;&amp;nbsp;&amp;nbsp; monitorexit&lt;br&gt;&lt;/div&gt;&lt;div align=&quot;left&quot;&gt;Lock是api层面的，java.util.concurrent.locks.Lock类。&lt;/div&gt;&lt;div align=&quot;left&quot;&gt;2. 使用方法：&lt;/div&gt;&lt;div align=&quot;left&quot;&gt;synchronized不需要手动释放锁，当synchronized代码执行完成后，系统会自动释放线程占用的锁。&lt;/div&gt;&lt;div align=&quot;left&quot;&gt;Lock则需要用户手动释放锁，若没有释放锁，会导致死锁现象。&lt;/div&gt;&lt;div align=&quot;left&quot;&gt;需要lock()和unlock()方法配合try/catch/finally使用。&lt;/div&gt;&lt;div align=&quot;left&quot;&gt;3.等待是否能中断：&lt;/div&gt;&lt;div align=&quot;left&quot;&gt;synchronized不可中断，除非抛异常或者正常完成。&lt;/div&gt;&lt;div align=&quot;left&quot;&gt;Lock可中断，1.设置超时方法，tryLock(long timeout,TimeUnit unit)；&lt;/div&gt;&lt;div align=&quot;left&quot;&gt;&amp;nbsp;&amp;nbsp;&amp;nbsp;&amp;nbsp;&amp;nbsp;&amp;nbsp;&amp;nbsp;&amp;nbsp;&amp;nbsp;&amp;nbsp;&amp;nbsp;&amp;nbsp;&amp;nbsp;&amp;nbsp;&amp;nbsp;&amp;nbsp;&amp;nbsp;&amp;nbsp;&amp;nbsp;&amp;nbsp;&amp;nbsp;&amp;nbsp;&amp;nbsp;&amp;nbsp; 2.lockInterrupibly()放代码块中，调用intterupt()方法可中断。&lt;/div&gt;&lt;div align=&quot;left&quot;&gt;4.加锁是否公平：&lt;/div&gt;&lt;div align=&quot;left&quot;&gt;synchronized非公平锁。&lt;/div&gt;&lt;div align=&quot;left&quot;&gt;Lock两者都可以，默认非公平锁。&lt;/div&gt;&lt;div align=&quot;left&quot;&gt;5.锁绑定多个条件Condition&lt;/div&gt;&lt;div align=&quot;left&quot;&gt;synchronized没有。&lt;/div&gt;&lt;div align=&quot;left&quot;&gt;Lock用来实现分组唤醒需要唤醒的线程们，可以精确唤醒，而不是像synchronized那样只能随机唤醒一个和唤醒全部线程。&lt;/div&gt;&lt;div align=&quot;left&quot;&gt;例：&lt;/div&gt;&lt;div align=&quot;left&quot;&gt;题目：多线程之间按顺序调用，实现A-&amp;gt;B-&amp;gt;C三个线程启动，要求如下：&lt;/div&gt;&lt;div align=&quot;left&quot;&gt;AA打印5次，BB打印10次，CC打印15次&lt;/div&gt;&lt;div align=&quot;left&quot;&gt;紧接着&lt;/div&gt;&lt;div align=&quot;left&quot;&gt;AA打印5次，BB打印10次，CC打印15次&lt;/div&gt;&lt;div align=&quot;left&quot;&gt;紧接着&lt;/div&gt;&lt;div align=&quot;left&quot;&gt;AA打印5次，BB打印10次，CC打印15次&lt;/div&gt;&lt;div align=&quot;left&quot;&gt;...&lt;/div&gt;&lt;div align=&quot;left&quot;&gt;重复10轮&lt;/div&gt;&lt;div align=&quot;left&quot;&gt;public class ShareResource {&lt;br&gt;&amp;nbsp;&amp;nbsp;&amp;nbsp; private int number = 0;&lt;br&gt;&amp;nbsp;&amp;nbsp;&amp;nbsp; private Lock lock = new ReentrantLock();&lt;br&gt;&amp;nbsp;&amp;nbsp;&amp;nbsp; List&amp;lt;Condition&amp;gt; conditionList = new ArrayList&amp;lt;&amp;gt;();&lt;br&gt;&lt;br&gt;&amp;nbsp;&amp;nbsp;&amp;nbsp; public ShareResource(int num){&lt;br&gt;&amp;nbsp;&amp;nbsp;&amp;nbsp;&amp;nbsp;&amp;nbsp;&amp;nbsp;&amp;nbsp; for(int i = 0; i &amp;lt; num; i++){&lt;br&gt;&amp;nbsp;&amp;nbsp;&amp;nbsp;&amp;nbsp;&amp;nbsp;&amp;nbsp;&amp;nbsp;&amp;nbsp;&amp;nbsp;&amp;nbsp;&amp;nbsp; Condition condition = lock.newCondition();&lt;br&gt;&amp;nbsp;&amp;nbsp;&amp;nbsp;&amp;nbsp;&amp;nbsp;&amp;nbsp;&amp;nbsp;&amp;nbsp;&amp;nbsp;&amp;nbsp;&amp;nbsp; conditionList.add(condition);&lt;br&gt;&amp;nbsp;&amp;nbsp;&amp;nbsp;&amp;nbsp;&amp;nbsp;&amp;nbsp;&amp;nbsp; }&lt;br&gt;&amp;nbsp;&amp;nbsp;&amp;nbsp; }&lt;br&gt;&lt;br&gt;&amp;nbsp;&amp;nbsp;&amp;nbsp; public void print(int order,int times){&lt;br&gt;&amp;nbsp;&amp;nbsp;&amp;nbsp;&amp;nbsp;&amp;nbsp;&amp;nbsp;&amp;nbsp; lock.lock();&lt;br&gt;&amp;nbsp;&amp;nbsp;&amp;nbsp;&amp;nbsp;&amp;nbsp;&amp;nbsp;&amp;nbsp; try{&lt;br&gt;&amp;nbsp;&amp;nbsp;&amp;nbsp;&amp;nbsp;&amp;nbsp;&amp;nbsp;&amp;nbsp;&amp;nbsp;&amp;nbsp;&amp;nbsp;&amp;nbsp; //1.判断&lt;br&gt;&amp;nbsp;&amp;nbsp;&amp;nbsp;&amp;nbsp;&amp;nbsp;&amp;nbsp;&amp;nbsp;&amp;nbsp;&amp;nbsp;&amp;nbsp;&amp;nbsp; while(number != order){&lt;br&gt;&amp;nbsp;&amp;nbsp;&amp;nbsp;&amp;nbsp;&amp;nbsp;&amp;nbsp;&amp;nbsp;&amp;nbsp;&amp;nbsp;&amp;nbsp;&amp;nbsp;&amp;nbsp;&amp;nbsp;&amp;nbsp;&amp;nbsp; conditionList.get(order).await();&lt;br&gt;&amp;nbsp;&amp;nbsp;&amp;nbsp;&amp;nbsp;&amp;nbsp;&amp;nbsp;&amp;nbsp;&amp;nbsp;&amp;nbsp;&amp;nbsp;&amp;nbsp; }&lt;br&gt;&amp;nbsp;&amp;nbsp;&amp;nbsp;&amp;nbsp;&amp;nbsp;&amp;nbsp;&amp;nbsp;&amp;nbsp;&amp;nbsp;&amp;nbsp;&amp;nbsp; //2.干活&lt;br&gt;&amp;nbsp;&amp;nbsp;&amp;nbsp;&amp;nbsp;&amp;nbsp;&amp;nbsp;&amp;nbsp;&amp;nbsp;&amp;nbsp;&amp;nbsp;&amp;nbsp; for(int i = 1; i &amp;lt;= times; i++){&lt;br&gt;&amp;nbsp;&amp;nbsp;&amp;nbsp;&amp;nbsp;&amp;nbsp;&amp;nbsp;&amp;nbsp;&amp;nbsp;&amp;nbsp;&amp;nbsp;&amp;nbsp;&amp;nbsp;&amp;nbsp;&amp;nbsp;&amp;nbsp; System.out.println(Thread.currentThread().getName() + &quot;\t&quot; + i);&lt;br&gt;&amp;nbsp;&amp;nbsp;&amp;nbsp;&amp;nbsp;&amp;nbsp;&amp;nbsp;&amp;nbsp;&amp;nbsp;&amp;nbsp;&amp;nbsp;&amp;nbsp; }&lt;br&gt;&amp;nbsp;&amp;nbsp;&amp;nbsp;&amp;nbsp;&amp;nbsp;&amp;nbsp;&amp;nbsp;&amp;nbsp;&amp;nbsp;&amp;nbsp;&amp;nbsp; //3.唤醒&lt;br&gt;&amp;nbsp;&amp;nbsp;&amp;nbsp;&amp;nbsp;&amp;nbsp;&amp;nbsp;&amp;nbsp;&amp;nbsp;&amp;nbsp;&amp;nbsp;&amp;nbsp; number = (number + 1) % conditionList.size();&lt;br&gt;&amp;nbsp;&amp;nbsp;&amp;nbsp;&amp;nbsp;&amp;nbsp;&amp;nbsp;&amp;nbsp;&amp;nbsp;&amp;nbsp;&amp;nbsp;&amp;nbsp; conditionList.get((order + 1) % conditionList.size()).signal();&lt;br&gt;&amp;nbsp;&amp;nbsp;&amp;nbsp;&amp;nbsp;&amp;nbsp;&amp;nbsp;&amp;nbsp; }catch(Exception e){&lt;br&gt;&amp;nbsp;&amp;nbsp;&amp;nbsp;&amp;nbsp;&amp;nbsp;&amp;nbsp;&amp;nbsp;&amp;nbsp;&amp;nbsp;&amp;nbsp;&amp;nbsp; e.printStackTrace();&lt;br&gt;&amp;nbsp;&amp;nbsp;&amp;nbsp;&amp;nbsp;&amp;nbsp;&amp;nbsp;&amp;nbsp; }finally{&lt;br&gt;&amp;nbsp;&amp;nbsp;&amp;nbsp;&amp;nbsp;&amp;nbsp;&amp;nbsp;&amp;nbsp;&amp;nbsp;&amp;nbsp;&amp;nbsp;&amp;nbsp; lock.unlock();&lt;br&gt;&amp;nbsp;&amp;nbsp;&amp;nbsp;&amp;nbsp;&amp;nbsp;&amp;nbsp;&amp;nbsp; }&lt;br&gt;&amp;nbsp;&amp;nbsp;&amp;nbsp; }&lt;br&gt;}&lt;/div&gt;&lt;div align=&quot;left&quot;&gt;&lt;br&gt;&lt;/div&gt;&lt;div align=&quot;left&quot;&gt;public class LockConditionDemo {&lt;br&gt;&lt;br&gt;&amp;nbsp;&amp;nbsp;&amp;nbsp; public static void main(String[] args) {&lt;br&gt;&amp;nbsp;&amp;nbsp;&amp;nbsp;&amp;nbsp;&amp;nbsp;&amp;nbsp;&amp;nbsp; ShareResource shareResource = new ShareResource(3);&lt;br&gt;&amp;nbsp;&amp;nbsp;&amp;nbsp;&amp;nbsp;&amp;nbsp;&amp;nbsp;&amp;nbsp; new Thread(() -&amp;gt; {&lt;br&gt;&amp;nbsp;&amp;nbsp;&amp;nbsp;&amp;nbsp;&amp;nbsp;&amp;nbsp;&amp;nbsp;&amp;nbsp;&amp;nbsp;&amp;nbsp;&amp;nbsp; for(int i = 0; i &amp;lt; 10; i++){&lt;br&gt;&amp;nbsp;&amp;nbsp;&amp;nbsp;&amp;nbsp;&amp;nbsp;&amp;nbsp;&amp;nbsp;&amp;nbsp;&amp;nbsp;&amp;nbsp;&amp;nbsp;&amp;nbsp;&amp;nbsp;&amp;nbsp;&amp;nbsp; shareResource.print(0,5);&lt;br&gt;&amp;nbsp;&amp;nbsp;&amp;nbsp;&amp;nbsp;&amp;nbsp;&amp;nbsp;&amp;nbsp;&amp;nbsp;&amp;nbsp;&amp;nbsp;&amp;nbsp; }&lt;br&gt;&amp;nbsp;&amp;nbsp;&amp;nbsp;&amp;nbsp;&amp;nbsp;&amp;nbsp;&amp;nbsp; },&quot;AA&quot;).start();&lt;br&gt;&amp;nbsp;&amp;nbsp;&amp;nbsp;&amp;nbsp;&amp;nbsp;&amp;nbsp;&amp;nbsp; new Thread(() -&amp;gt; {&lt;br&gt;&amp;nbsp;&amp;nbsp;&amp;nbsp;&amp;nbsp;&amp;nbsp;&amp;nbsp;&amp;nbsp;&amp;nbsp;&amp;nbsp;&amp;nbsp;&amp;nbsp; for(int i = 0; i &amp;lt; 10; i++){&lt;br&gt;&amp;nbsp;&amp;nbsp;&amp;nbsp;&amp;nbsp;&amp;nbsp;&amp;nbsp;&amp;nbsp;&amp;nbsp;&amp;nbsp;&amp;nbsp;&amp;nbsp;&amp;nbsp;&amp;nbsp;&amp;nbsp;&amp;nbsp; shareResource.print(1,10);&lt;br&gt;&amp;nbsp;&amp;nbsp;&amp;nbsp;&amp;nbsp;&amp;nbsp;&amp;nbsp;&amp;nbsp;&amp;nbsp;&amp;nbsp;&amp;nbsp;&amp;nbsp; }&lt;br&gt;&amp;nbsp;&amp;nbsp;&amp;nbsp;&amp;nbsp;&amp;nbsp;&amp;nbsp;&amp;nbsp; },&quot;BB&quot;).start();&lt;br&gt;&amp;nbsp;&amp;nbsp;&amp;nbsp;&amp;nbsp;&amp;nbsp;&amp;nbsp;&amp;nbsp; new Thread(() -&amp;gt; {&lt;br&gt;&amp;nbsp;&amp;nbsp;&amp;nbsp;&amp;nbsp;&amp;nbsp;&amp;nbsp;&amp;nbsp;&amp;nbsp;&amp;nbsp;&amp;nbsp;&amp;nbsp; for(int i = 0; i &amp;lt; 10; i++){&lt;br&gt;&amp;nbsp;&amp;nbsp;&amp;nbsp;&amp;nbsp;&amp;nbsp;&amp;nbsp;&amp;nbsp;&amp;nbsp;&amp;nbsp;&amp;nbsp;&amp;nbsp;&amp;nbsp;&amp;nbsp;&amp;nbsp;&amp;nbsp; shareResource.print(2,15);&lt;br&gt;&amp;nbsp;&amp;nbsp;&amp;nbsp;&amp;nbsp;&amp;nbsp;&amp;nbsp;&amp;nbsp;&amp;nbsp;&amp;nbsp;&amp;nbsp;&amp;nbsp; }&lt;br&gt;&amp;nbsp;&amp;nbsp;&amp;nbsp;&amp;nbsp;&amp;nbsp;&amp;nbsp;&amp;nbsp; },&quot;CC&quot;).start();&lt;br&gt;&amp;nbsp;&amp;nbsp;&amp;nbsp; }&lt;br&gt;}public class LockConditionDemo {&lt;br&gt;&lt;br&gt;&amp;nbsp;&amp;nbsp;&amp;nbsp; public static void main(String[] args) {&lt;br&gt;&amp;nbsp;&amp;nbsp;&amp;nbsp;&amp;nbsp;&amp;nbsp;&amp;nbsp;&amp;nbsp; ShareResource shareResource = new ShareResource(3);&lt;br&gt;&amp;nbsp;&amp;nbsp;&amp;nbsp;&amp;nbsp;&amp;nbsp;&amp;nbsp;&amp;nbsp; new Thread(() -&amp;gt; {&lt;br&gt;&amp;nbsp;&amp;nbsp;&amp;nbsp;&amp;nbsp;&amp;nbsp;&amp;nbsp;&amp;nbsp;&amp;nbsp;&amp;nbsp;&amp;nbsp;&amp;nbsp; for(int i = 0; i &amp;lt; 10; i++){&lt;br&gt;&amp;nbsp;&amp;nbsp;&amp;nbsp;&amp;nbsp;&amp;nbsp;&amp;nbsp;&amp;nbsp;&amp;nbsp;&amp;nbsp;&amp;nbsp;&amp;nbsp;&amp;nbsp;&amp;nbsp;&amp;nbsp;&amp;nbsp; shareResource.print(0,5);&lt;br&gt;&amp;nbsp;&amp;nbsp;&amp;nbsp;&amp;nbsp;&amp;nbsp;&amp;nbsp;&amp;nbsp;&amp;nbsp;&amp;nbsp;&amp;nbsp;&amp;nbsp; }&lt;br&gt;&amp;nbsp;&amp;nbsp;&amp;nbsp;&amp;nbsp;&amp;nbsp;&amp;nbsp;&amp;nbsp; },&quot;AA&quot;).start();&lt;br&gt;&amp;nbsp;&amp;nbsp;&amp;nbsp;&amp;nbsp;&amp;nbsp;&amp;nbsp;&amp;nbsp; new Thread(() -&amp;gt; {&lt;br&gt;&amp;nbsp;&amp;nbsp;&amp;nbsp;&amp;nbsp;&amp;nbsp;&amp;nbsp;&amp;nbsp;&amp;nbsp;&amp;nbsp;&amp;nbsp;&amp;nbsp; for(int i = 0; i &amp;lt; 10; i++){&lt;br&gt;&amp;nbsp;&amp;nbsp;&amp;nbsp;&amp;nbsp;&amp;nbsp;&amp;nbsp;&amp;nbsp;&amp;nbsp;&amp;nbsp;&amp;nbsp;&amp;nbsp;&amp;nbsp;&amp;nbsp;&amp;nbsp;&amp;nbsp; shareResource.print(1,10);&lt;br&gt;&amp;nbsp;&amp;nbsp;&amp;nbsp;&amp;nbsp;&amp;nbsp;&amp;nbsp;&amp;nbsp;&amp;nbsp;&amp;nbsp;&amp;nbsp;&amp;nbsp; }&lt;br&gt;&amp;nbsp;&amp;nbsp;&amp;nbsp;&amp;nbsp;&amp;nbsp;&amp;nbsp;&amp;nbsp; },&quot;BB&quot;).start();&lt;br&gt;&amp;nbsp;&amp;nbsp;&amp;nbsp;&amp;nbsp;&amp;nbsp;&amp;nbsp;&amp;nbsp; new Thread(() -&amp;gt; {&lt;br&gt;&amp;nbsp;&amp;nbsp;&amp;nbsp;&amp;nbsp;&amp;nbsp;&amp;nbsp;&amp;nbsp;&amp;nbsp;&amp;nbsp;&amp;nbsp;&amp;nbsp; for(int i = 0; i &amp;lt; 10; i++){&lt;br&gt;&amp;nbsp;&amp;nbsp;&amp;nbsp;&amp;nbsp;&amp;nbsp;&amp;nbsp;&amp;nbsp;&amp;nbsp;&amp;nbsp;&amp;nbsp;&amp;nbsp;&amp;nbsp;&amp;nbsp;&amp;nbsp;&amp;nbsp; shareResource.print(2,15);&lt;br&gt;&amp;nbsp;&amp;nbsp;&amp;nbsp;&amp;nbsp;&amp;nbsp;&amp;nbsp;&amp;nbsp;&amp;nbsp;&amp;nbsp;&amp;nbsp;&amp;nbsp; }&lt;br&gt;&amp;nbsp;&amp;nbsp;&amp;nbsp;&amp;nbsp;&amp;nbsp;&amp;nbsp;&amp;nbsp; },&quot;CC&quot;).start();&lt;br&gt;&amp;nbsp;&amp;nbsp;&amp;nbsp; }&lt;br&gt;}&lt;br&gt;&lt;/div&gt;" style="text;html=1;strokeColor=none;fillColor=none;align=left;verticalAlign=middle;whiteSpace=wrap;rounded=0;" parent="1" vertex="1">
                    <mxGeometry x="70" y="2980" width="720" height="1560" as="geometry"/>
                </mxCell>
                <mxCell id="mCRzaFnzIbNahz9W-ti4-1" value="&lt;div&gt;死锁编码及定位分析：&lt;/div&gt;&lt;div&gt;1.死锁是什么？：----死锁是两个或两个以上进程互相抢对方锁造成互相等待的情况----吃着碗里的，看着锅里的&lt;/div&gt;&lt;div&gt;死锁是指两个或两个以上的进程在执行过程中，因争夺资源而造成的一种互相等待的现象，若无外力干涉那它们将无法推进下去，如果系统资源充足，进程的资源请求都能够得到满足，死锁出现的可能性就很低，否则就会因争夺有限的资源而陷入死锁。&lt;/div&gt;&lt;div&gt;&lt;br&gt;&lt;/div&gt;&lt;div&gt;产生死锁的原因：&lt;/div&gt;&lt;div&gt;1.系统资源不足&lt;/div&gt;&lt;div&gt;2.进程运行推进的逻辑不对&lt;/div&gt;&lt;div&gt;3.资源分配不当&lt;br&gt;&lt;/div&gt;&lt;div&gt;&lt;br&gt;&lt;/div&gt;&lt;div&gt;&lt;img src=&quot;data:image/png;base64,iVBORw0KGgoAAAANSUhEUgAAAiYAAAEOCAYAAAC92dyAAAAgAElEQVR4nOyd918UV/v3n//veT3f7y1sAUuMJZpioil3Ek3PnZjEBhZ2ZgBFLIC9g0jvIH3LbF86LL23LfN+fpgFUcGot5Hieef1yVJcdnbnnGs+c51zrvN/eGfQgOgK0v7xV3lzr/BP8OpH/aJP89U/5bdzbt4WK3+ab+t9vuh1Yr9+Vi9g7Z+Z59/veuyH6/GY3yRv7/2/ziut3bPz5uLw3/CKcUNDI7rMf9pCHHoB/+d1j3H9IYzJyghj8iYRxuRt8/wbWo/9cD0e85tEGJPXQxiTdY0wJisjjMmbRBiT1Wc99sP1eMxvEmFMXg9hTNY9y32y/0yz/+df5U3z6ke90jNe7/2vz09tJVZ+N2/rfb6511mPZ0Yc8/rk7X0Gr/pKrx/Z/mnebBx+08e2/H9/xztmTAQCgUAgEKxlhDERCAQCgUCwZhDGRCAQCAQCwZpBGBOBQCAQCARrBmFMBAKBQCAQrBmEMREIBAKBQLBmEMZEIBAIBALBmkEYE4FAIBAIBGsGYUwEAoFAIBCsGYQxEQgEAoFAsGYQxkQgEAgEAsGaQRgTgUAgEAgEawZhTARvjVfdbGr1t8cSCNYnr9PXhDae1ivCmAjeGhpvcYtugeAd5nX6mtDG0nqOncKYCN4awpgIBG8HYUyE/snYqWka0WiUcDj8j/x9YUwEbw1hTASCt4MwJkL/dOy0Wq2cOnUKgGg0+kb/tjAmgreGMCYCwdtBGBOhfzp2VlVVceDAAYA3njn5r4zJ8hNu9P+e+7eaJvSOK6pBRFu+E0W05aXF2s7K7U0g2Ng8395fruWv9sRLodXVy6PxOnZmTRqThTf//EVGIwqEgUjsZ/oTNLRoFC0aBW1BkZie/T6mqNDGUhSi2vK9KKo9J72txIwN2nPt7dnvFxumQLCBWGjnkZg0IBqNxc3nfrsQdUVHECx3hdYWfxclGourr5dnqa6uXlvGZHlD8kRhYAaYBUKLn4OmX5y0Jf9SC+uKhiA6D9G5pxWZh0hIaMNowZy8inQjszT8Lu0+ESAUa3PAq/YtgWDNs9D2w+htPQSEowsmJAzMgzYL2swSzYE2L/Qu69nrqTYHmp4y0IigoRF5zpy8mjHZv38/sMaMSWQF6W8vlgGJRNBCEebCMB6GsTCMhWA0pD+OhWB0fgXNCW0kjczB8DIamY8p1i4W2sZECCbCMBWBmQjMajCPHpi1hYYIsW6lPWmcAsEGQ1tILWr6V2FgNqr3jbEQDM3qWuxX80v6ldA7qeF5GJqDwXldQyEYjmksDFMazLH0mv1qwXNNG5MwT4ZtlqYaIQJRjWgEZuchMAyPnCOk5jby5+VCfst8yK8ZD/klY+Exn58zChb1S0YBv2YW858LZfwmtK71nwtl/JpZys/nS/kxo5QfzpU8px8zSp/SzxnF/HqugMMXiki5WcP92gCtHZOMRvRsXHihIWoai0N/wpUINjIxbxLW9AuPayjC9Wo/qXkt/H6phB/P5vPj2YcxPeKncwVC77D0dpDL9zH9cC6P79MfcPhyEcrDFu7Ut9HSPcXw/BOD8ioRdN0YkygQiupvTdNgZApaAlNkF3o5dP4xW8/UEH+0GNOJMuKPFLPpSDH/OlLCpqOlbDpaxr+Olj+l+KOlGI8WC20AGY4WYzhaQtyREuKOPq9NfxU/p7i/itj0Vwnm4+XsSani0NlK0u42UeMcoW8M5iMLHUkDLRQb+nkDvUIgWGtoMDsHA+NQ7ZrActfKF0ox20+WYj5eguFIIYYjRbHHha+Lhd5ZlWA8WobpWDmGY/q1dNOREjb9VcK/jpQTl1zL+3Id+9MrkO41Uu3sY2AyyvwrxM81a0yeH87R0DSYC0Nb/ww3qjr5+WIje0+WYzxayf9LamDT6VYMFhvxKVYMFpsuyf68LDaMKS0YzzQJbQCZUpowWlowWloxWqzPqHVZmSxWjCl2jKetmJIb2HysnN0nivkytYqzj7y0tk0wPq+3PX2yNMKYCDYcEWA6DLb2KS4VuPju/GN2narAdKwCw8kGjKdbMKVYSbDYFmW22DGnvJpMKXZMZ15Rr/gaQm9PCRYHCZIDs+TAJNkxWmwYUhzEpzj43zM2/je5nk3HytiZXMj3F6q5WN6Os3OYubm5xZWQL2JNGpNntTgVKwLt/TOczW1h5/ECTMfrMJ20YrA42SS5iZM9xMkeNske4mQX8bKLOMlJvKRikBzPyI5BsgltEMXLDuJl9aVkkJ2YFDcmxUtCqg+z7MGUorJZUjGebmXriTJ+u1hOnX+U8ZCeoXuNdXICwZpnKgyN/hmOZtew+3ge5qQqzBYH8RYP8RY3RsmDSfFhlD0YJA8Gixuj5MUk+19JRtn36pKE1qxkDybFjVFxY1iUF2OqD2Oqh3jZyaYUG8ZTjZiSa9lyshLLjQo8gU7mQ39/h7fmjMmTnIm25Ccac0DHBKQ+dPHeiSLiT9QRd9qB2aJill0YFc8zci/KtIyMsguj7BTaIDK8klwYZVesLXh0SS7Msi7jqUZMR4v59fJjmgLThOefa5ICwbpkaROei4JzQOPP681sOfoIY3INJtmGQXYSJ7kxyG6MMZlkva8sfr/Qb15SxiV/62Vlkl/tNTac5Nf73N6WTIo7Fktjj89ce02KG5OkYrLYiT/ZyK4TD1HuNdI2MKff7EVDK7bTtWtMtNgs8UiIcDTC0EyIm7XtfJJSjOFENUaLSrzsI0F26xcTIaFX1NNG1f3k57KT+DOt7DhRjHTbSk9/mJfIPgoEax5tyWPvWIRzj1TeP1WK4WQd8RY7BtlBvOwkbuFisyj3W+uXQhtHBmnhayeJyVV8fPoRWYV2gqPzEFk5c7KGjcmTwmhT8yFa2oL8nFHI1iO5JJ5pxCy7MMixNLzoNEKvoZWMiUFyEic72ZxUzWeniiiq72V4UiRNBBuH2RDUOvv4Ui4gLqkmNrStYpLtGGSVeNn1jDEREvrvlJDSzNYTJXx3toQa1yCzoZWn7a1BYwL6SoiFKa8QnAyRXdzKnhMPSDheyhbZRoLiwqR4F8c/V/tDF1rv0tPVBslJvOQkTnJiOtXMliMlHM9pQO2aJ6wJYyJY58QacHBsntR79exMfkTc6RYMFhWD5MQoq8TL+nw9g7jhE3qTklRMp+rYlVxI2oMWBiaXFK98hjVqTODJQmFoH4tw/Go1iUceYjpZx2ZFJVFxYZY9GBU/RsW77DwSIaEXaaUOFC+pxEkO4s84iD9SzYFTxdS6xglFhDERrGM0DTS9XGBgYIYfMooxHy0gLsWBweJ80v5lD/EvNCar33eF1p/iZQ/xZ1pJPF7C4axquka12BX+edauMdEiaFqYKOAZCnEorZBNf+RjON2EWXKQKDtJkN0YFT8G2bv6blBow8ggOYiXrMSn2Ik/VsfOw/eotA2ghcV6YcE6ZJkd2Nx90+w/8xDj0RKMFidGyYVR1lfhGCUXRsm5qn1QaOMpXnZjTLFhOlbCD2eLCARnVmyya96YhIniHQxxMLWAf/1ZiDHFiklykig5SZBciKGcv5MTk/RmpK+AWe338+ZkWEFGWcUo2zBYHMQff8yuP+9TaR8kGhH5EsE6ZOmM19jXavcUHyXnEvdXScyIxOZZSR79a2n1+qXQxpRB9mCyODAfL+P79EJ8fVOxhvn8Dd+aNSaaFkXTImhaFP/gPAdTH/GvPwsxSQ5MkotEyclmyYVZ9r7msqrVP1FvQ7qpUN+QNp4xiX9GT4yJnXiLStzxx+z44y7ljkHCUTGUI1iHLNNo1e4pPkzOJe5IKUbZEzMkz+iF/Wf1l6uurt5WnFrt9/nmZJC9mCUn5uPlHEorxBdc2ZjU1NSsLWOyWPk1Nh5KNEJgYI6DqY/43z+eGJPNkovNsosE2S1W5fyt3lS9kNV+H29WyxkTXSrxwpgINgra019qgNo9yYfJD2LGxPsaxuRdlz5R+HltvDj5pmSQfZgl1zLG5PmZJmvSmERY2ZgkKE7MslsYE6H/Wi80JoqduGeMyQuW3QsEa5clm2Mv7KwgjMl/q3fnBu5NSRgTIaGXkDAmgncCYUyE1oCEMRFa0hjcb0AeDMrGq2sgjIngnUAYk39AG20uy9uItxvYmJhjxiRRfmJMzK+xpnpVTk5s9rtBdmOSVDZLNhIlO2bJgTG2h4sh9u8WJq0mSDYSJStmyUGCZCdRspIo2TBLdvQxzSUVGhcmusq69OfYljzHsWTliWvxuc9+r/+tJcZE8WBQvLoxkVyLM/YX9knQZ/HH9NR7XttpTWFMBO8STxuTiZgxKcGoePWbj6cmwb4oRq52TQx9TyuT4sKouDAqnsWfJ8oOEmU7CbIDs+Jc/LlJ0beaWBoTzZIjFiftJEg2EmIxUo+fztjz3JgUp/79Yky1s1mystmyEL+dmCQ3JsmNWda3SDErLsyKkwTZubgH15Ofu54ck+Ja5v0t2SBvMUavtWGiVz9vBsWP0eLEfLyC79KL8AWnYy1zHRkTbeG7aIS2wXkOpRXwP38WYlL0i7FZcpIgqZjW0bK2RMWLWfaySfGz46yLn6+4+O1OJ5+cV0mU1dhOjV5MkofNkpNPLgf45W4bP9/2sDfTyYHLKv+57eX3e+18nuXGJLVglFXiYnUIEmUHW5VWNitWtsgtfJBh46frbk7l+jmV28b31/28d87DFkVlm6KyVXawWXawWXGwTbaxTbazWXawVbKz1WInUXZglp0YFReGWEcxSy7MkhuT9CSQmSQfJsmPSfLGVu7oE8H0LbHVVf/cX2RMlpcwJoKNwoIdedaYjPPhyftsOlL8zIq0tS4nZklls8WBQbazSXHENhx0sfWcm2+u+fnlXgcHsp1sS7NjlJ0kpNoxSa0kyjb2XXTx6/0ufrjuYmdaM1tSbXx/p5PDeT38O8vGjrRmNiutmC0tmGQHRsmJWbaSILeQYGnmfbmRg1fcHLvrJjkvwM/XnOw9p5KYYmOrrLJNUtlqcbBZsrNFauU9SzNbJRubLXY2p9hJtFhJlK3ESzYMsl1/DWXh5s8Ve/TFdutdKHanxySD7MAo69e8lbSWl3nHK369kN/xcg6dLcITnIpd5yPPltmhqrqazw4cANaBMfl/fxZiVFQMsp5RMEvqc3f8a09LJkVJHkyyj4Q0N9/d8FPsCVERhN8f9JAoqxgUH3GKvkX49jQnR4qGKeuFh74wP97r4ud73Si1U9xywxUHHC0e4dOrnSTIKu+nOvn1Xg+Wkm7SK3o4X9nNtfpB6rrAOwHOCbilahy82c3RvB7OVQ5xrqKPsxV9pFf2kVHRS0ZFH+kVQc6WB0kvD5Ja3s+f+X3syXRiVOzEy86njMmTuytvzJx4YkZE70Br+7ysLGFMBBuHJ7u1P2tM9ibfY9PRYuKVJ9nC1e57LxNP9UyyikG2E6c4MMgezJKVL656yQ9AVR9IlSN8eNFNvKxiSHVhVFQ2p9r57X4H5UEo8Ef59xUnuy/6OFU9w3UXXLfNc6ZinH9f72CzbGXHOSf/vtnJybIgSnkXZ8s7uFjZTXkHuCdBnYKHPo2kgj6O5fehlPZzrryfs2W9pJX3crasi4yyds6W95Je3k96WT+pZUGSCrrZf8XHtnQ1dg3zEK949fOgeIlXAsQrHuIXqqXKbuJjO6PrmfSVjclavlGPV/zEp6gYjpfz3bliPMGpmGWOLLbLhRBbWVPNZ5+vI2NiUNRYB9JTa2vf6T/JIBhkH0bJy57zDjJq+nEORMhTp/n+ispmWdWr2CptGBQ/76fZSC7ooHUYmoJR/ngQ4IssJwcuu/jrvo+sxyNk1wzyy91OdqZZ+STNxo3maXwjGiNzGmPT80zNQltwnjL7EPebBzhb2k1yfh8NXTAahpHZKEOzUQbnNIZnNYZnYWAO+mdjmoGa7ijf3VAxKk38r+KImULdmJhjVSL1DuPCLLl0YyLpu5Rukn3ErcOqvMKYCDYOKxiTnnH2Jt9l09FiDIp7jRqTlede6HHfgVF2YJbc7E5vJamgDfcoNHbOYnnUwccXHRhSnfxL8RKneDArNpIeBrCNQEt3iF9vudl9yc8XWS4O33RxuaKb7PpJfr/byY40lY/O2zhTHsQ1CcEZGJ8NMT4PPRMatf5x7jb3k1nVTWZFJ9UdIYLTMDwLw7Mag7MwNKsxMhtmaA79+xkYngO1P8Kp4iB7M5wkSm6Mso94xUd86oIx8ROveBfn9cXHhtn0DLV7/RuTY2UcOvsSxmQ9ZUzWmzExyM5YXQyVhFQ3WyUbv9xyUtiuUdEZ5o9brfxyQ+VUUZAfb/j4KK2ZXUoDHynVHLtjxTMUZWAaqjyTPGwdIa91mPyWHoqtPRS39HC7aZDTRV18craVX+50IJUGyXkcpNo/Tv+kRqE6zg85dj5IbeGD1Gb+c7cdaxB6Z+CBY5zM6l7O1w6QWTvE+boRztaNkVnTx33rAG1jGrXdUX666SBBbiZOccacuz6fJEFysC3Vxo60FnamWdkitepjqJKdRMmGbspWezz6NeYfKU5hTAQbhOWNibNngr3Jd4k7VoIx1RMbOlj9vvdUP3xRbJX0uWAG2c5WxcqP1508ck7TPATpxX5+u+XmVHEvP92084FSw57Ux+xNrSEl34V9EHrHNSrcI9xuHiK3ZZBHTX2UNndT2NxLXssg58t7OZht46urXlKqhrlQF+ShfYieSXAFQ5x42MaetMfsSG3g8D0PVV0ReibCVPomya4bJLNmOKYhztWOkFk7RJ51FNcQ2AeiSOWD7M1Q2Sy72S7b2Sk3sTutjp3KY3alNrE7tZldqS3sUKxsURwYJRWDpG8yarT8zXDOGrjuLac42YfB4hTGZLWlT650EqeoxCkqm2Ub/87xcsM2SWkvpJT28HVmDZcaRrGOQ1U33HNMc8s2xR3bGJUdc4zM65/FDDAODAGDsccRoBso64dPM1W2pTSw7UwtH8vlZJb5aR+aI88xyReXHCRYHGxPdfCfex04BqFtHA7fcbPLUs72lEq2p9SwNeUxiZYGdpwp4/C1etT+WWp7Ivx008FmyRpz707iZRcm2cH+LC8p5cPcss+Q+XiMg9c8bEt3k2ixs9niwLxOK8WKjIlg47CyMdmTdIe4oyVrOGOyskySE4OsYpZbOXBZ5dLjER53aZyv7uf77EbSKwdoGIbaHo37jklyXXPkumZ43DVP/xzMazALjMY0EtM4MAy0jsLp0kF2nbWyXWngw7Qajj9w4h7QcPdH+ethN++nWdmaZueP3DZqesA3ME1GiZ99aXVsP1XN9tN1bD9dx5Yz9exIqeboTQfV/hlswQiWsn72ZtjZlu7l5xttZNWNcVed4q46zX1XmAeuKLds82RWD3P4QTcfnLVjllUMUmxi7guGdFb73KykBWMSf7R0cY6JMCarcoFzsUlx8a+Y9px3kFo1SmUfZDaO8VmOn+N5fmp6oLZjmsdtY/hGInROabRPhOme1ZjWYCYK7v55rjX2c6o8iFTaRUpxBydLu0kqH+bnvCB70h18eN7FRxdVDua0cL2+m/6xENWeCY7edvPZRZVPM+0cedCJYxC6Z+D0o06+vNjE/kstfHbRwb6LLj685OXARSunH3rwDM9T0xvix5sOtlgcGKVAbMzTSaLUSPKjANa+MNNz0DMN15tG+PSyny2ySoKkLzM2Kutv2aEwJoKNw4uMyd1ljYlhDV/cjLHYvzC5/n2lhRN5HRS3wT3bGJ9faOG7qw4KXOO09EZo6ZzFNajRMQndEzA8DfNRmItA2xjcbRkltbQXS0kfKcW9KCVdSMXd/JXfx9fX/Hx80clnWS6+vWJHKmrHPQj+gSjpRZ18fbGVzy+rnMwPUNsD3hGNq4/7+emqypeXXHxx2cvnl718muXjyyw3KfndNHZGcQ1EsJT2sDejlZ2ZPq7UDNM7AaNRfcioZ0JXcBL6x8PUd4WRSnv5IFPFJNswLqwSEsbktXjLxmT19wJYdn8AxY1RUdmWbud4rp+a9nlq2qeQH9r57YadXHWS+gGwFPfwy3Unh+91cDi3jSN5Xi7U9uIZ0egc07hUFuCLzEa2pbWyU65np/yYbUoTW+RmtkmNfHauhezmeUo7oKE7RMdomJl5jb4JaO4JU94JN6xTnK8ZwD0EYxrYBjSqO+ap6opS06lR2alR2g1VnWFsfSGGZjXqu8P8dMPNZsmOMTZfJEG282FGMzcagnhHoGM4TP8M2Abh11s+3pNaMUlujLKqL+lbA+fhlSSGcgQbhhcP5eiTX2NzNpSltTPWQD9cPJanTYlBdhEnuXkv1cYvt7yUOEep9o2T8aiV37NqyKnupbZthszKPn6+7uLwHT9HHnRy7EEH16u78Q1C9/A8d+p7+fpCIzukx2yX6nnfUsv7Uh07lAa2Sw38O1vlQuMkJe1R6rpC2PojDIdgZBbcAxrVbSEeumbItQ5hD4YZmQX/iMbjrhDV3VDRqau8E6o7otj6NAZmIDAUQi7p5uMMKx9e8JPbOk7/NARGNO40BjmZ38ap/A6ya4I4+iL0zOlz/Q7dDLBZsS+ep4Ulykv14mXewpiAyJgsymyx8uVVP0W+MP2z0DUDrmFwDIFrHC7V9PPhOZWtkhuz5MOgeEhUrHx73Ut1ZxTPMJwr6+brbCf7cjr4PNvL59k+Ps3pYH9OgC8vO/ntmp0SbwjPEPSOhZmai6BpMB2B7knwjkFp2xxZDUO4RmAC6JnSaB/T7xw6RqBtVMMzHqV9XDc04/NQ3w0/XvexLU1fZZOguNie2sKvtzw0dM1T3znH3aYg9q5J+ubgYlWQfeftmGQnRsmGWVm7y4VXkkEWxkSwUXj5ya9rPY4aY3HfILswpgXYn+3nass0wRnomwH7QAR3fxTvMOTbRjl03Ydxsf6Tg82Sg1+uqpR7ZgkMhLjVMMAP11wcuOLnwBU/X+a4+Szby4ErAT7PcvPXAz95rhlcQxpdY2FGQzAPTIajDEyBfwQauuYod4+i9s0zMa9Pfm0fDeMbB984+McgMAbtYxq9EzAegcBIFKW0j0/OWdl3wU9uywh902ALwolH3WxJd5GgOPgko5WM4nbaJ8E1Aj/d9LFVsevLiVfceFEYk79DGBPZFSum5uCzKx1cUaF+CNRx6JyGwTko9cP3V9zsSLXy+QU7P+XY+CG7hf9cbUbK92DrmWYsBH3TEBh90tD9o+AdhbYRUPvC3GuZ4OgdN99n20i+3UxT+wTT81FqPSMk3XFwMMfJgYsqP97uItcH5d1w6lEH3+WoHLzq52COl2+vePj3VTcHL9tJuh+gxKdxxwlfX/GxRXFhTvViVBx8mPaYjPIufGPwwDrGrzecZJX76ZiDqrYI31/zkKA4iZMcxK+pokAve87EUI5go/Ci5cJ3F5cLx0nO9TPHRHKRIHvYk+HmdNk4jcPgHIP2ST0T3NgL/7nfzQfpVvZdcnPwchM/ZNXzU3YDSq6VKucAYzMwOgudI+AbBd8IBIbBOwKeEXANwl3rFD9d9/DNZSuncl00dUwwNg9tg9OcK+/i2xwrX2TbOZLXxl1niIqOKBkVvfx8zcFXWXa+vaJyKNvGv3OcfH3FyYlHXdx3hSjwR/jzYTd7z9vZeznAvdZR+qbBHtQ4kd/J5lQbZtnGvkwr50va8Y5DS3+Ub6+6SZDsxCsBDCtW6xXG5O8QxkR2EW9xYVbcJCoOPsxU+fJiE8dvNfCguY/HbbMcv+djj6WW7291ctUeomkEbGOgjoJvQl9eNq/BdBQ6J8A+CPYhPduiDutq6IUbtiifn29lb3oTmRU9+Eb1cdQ67wjHbtnYd66ZD9Ma+S7HwekHTqRcB0du2Pj1io2frzn55YqVn69a+eGag1+utHDkehPpeVbO5Kr8kGNjd7pKguzEmGrnl1tOClxTNAchpbiXD86p/HTFSl0f2Acg6WE7O9JtxEuO9RPslkgYE8HGYWVj8uHJ9VjHxIUxVksp0eJgzzmVf1928MfVZq6W+2gZhMzqIJ9ccPPR2VbS66ZpHAb7ONgnwDeFPvkVmAP6pvRshHVQH4q2DepftwzA5aZZPsxwsl1q5I/bTuzdU0xFwBecJK2kjQOZ9exOq+Pg5QZO3rejPGgk+XYzv19t4uerrfx6rZX/XG3ip2s2frpm4/frLZy+14r0oIXfbtr5+FwTH2X5uGsdo3ca/ENhrtZ28etNO3/edXKxqpuW7hDOIbjV1M9nWa5YlXAfhuVMiTAmL4UwJvJCNT5nLHOg8v5ZGyce+njgiZJRPcF3V5z8cjuAVNrP9eZBSgOjVPjHqAuMY+2YpHcoxPQ8BIJRzha180W2i8+znHxxWeWrLJUD2V72ZQX48IKf9+UWvsxSqW4PMREGLRqhdzxEXecc52oGSc7zUOiewjMCXePQPQ5dE9A1CV1j83SOhwiMQ9tEhI6JebonZvGORinwTHMwx81WqZWENDvpVf3YhuB26xSfXXAQJ/v46LxKZs0wjv4od+2TfJ2jl3qOX8OTsVaSMCaCjcMGNCayG4PkwRArAb/zvJ+jhYPkucNkNk7x7VUn397o5Fh+L9mPhylxjVDpG6aybYQa/wCOnlFG5zQC43CpsoND19x8etnDp9kBDmR5+PyykwOXHOzJ9JAoO/nwnINrzRMMTESYjULfWAhrMMzN5kGSH3q5Zx3GPQq9ExF6JyJ0T0ToGtPoGovQMTZPx1iUzjHoGtPoGQvTNaZR1wt/3fexP9vLHdsovbMwFdFrn3RPROifnGFsNsTEbJTGjknkknZ2XXCRoMRqn0j65yCMyavzVo3Jaq+5X0mJqV5MFpUERWXfBRtp5b20dk9j753lfkMP12u7qOyGyiCcKetl/8UWPj1v5YuLDg7luLhR3U33BDR3hjl828OWVAfbLPUcyGzmz1sqP9zwsENpIkF2sifdilTUhX8MJkIwG4bgFPgn9CzLI/sgDx0j5HlC5Acg3w0l3gi2ARgI68NLdV3JxGcAACAASURBVL0R8v1z3PeHyPWFuO+NkNkwzYeXvWxWbHye7aXANU3fNFS5hrlQ4sFS4CezJMCDxx10Dk1j7Y9y/IGbzZZmzKmeVT8Hr1onQRgTwcZh5cmvC8ZkcY6J4sa4Bvrly9QxMUgqW2Qb+zLtnC7soLp9HndwluuVPrIq2inrgJoBsJR0cyCzkf0XWtl/0cbn5xs4k+vE0zdLUx/8mN3IdqWFLVILu5QGvstx8PsdH59esLFNamJHmo3Dt1QausOMzGjMRGBkOkzPNPjGoNI3Qa5jnHzPPIX+MI/8UR55QlQHZumchIFZaAlCcVuUR+0aBe0aBe2QYwvx3XUf+7P83LdNEpyDoVlo7QtT5A9R4J2nuiOEb1gfomro1Ugu6mJvhp2ExdU3wpi8DiJjIsca0Bkb28+6OPGoG/cETEZhJKSvl/dNQVl7hKymYb673UZC6pPS9YmpPo7d9+MY1odIjucGeD+tla+z7WQ1TtA0BPkd8OOdLramOvj+uoeajjBdU9A9GqJvbJ4a1yC3atpxDoN9GFLutfDRqYfsSirkg+MFfHE6lwuPWvENz1PnH+TE9So+PnWPncl57ErKY2dyATtPV2CUWtl5XkUuH8I9otcAmATGYpqKKQQE5+FGQy/7LjhIkNfj5FdhTAQbhZddleNePxkTRe+j7ykt/JnbQUMQ+sMwFtXrkHSGoa5H45Z9ip9uu/W9bxQPZiWA2eLg+2s+GjvmsI/C8ftu9qa38GWWi6T8Dkq7oGkCTldNs/dsC1/nOCnyTNE2Dp7gDAOTYQL945Sr/TR0zaOOwMWKDj49dZ89SffZm5zPR0kP+SX9IbXuYQLBOdJybexNusuO5AfsTL7PzuRcdqWU896ZGj666OWudYLOCXD1zXH6np0dpytJTKpg/7kG0ooCNHTM0h+Gmh59AmyCvDRj4hbG5BURxkTWy7QnWBxsT3dyprAbdQTcI1CoTnK1YZak/H6+uuxkz9kWtqVaMcn63g/G1ABGxc83VzxUdEP7OOQ193KhooPawASBcWjtDXGlbpjfb/v5/HwTVxr68Q7P0tw1wWP/MB2jGoXqNIevuzlyv4uMmknOlw+QVTXIldp+smu7uF3bTnNgguAUtI1GKHUOcLu2gxs1XVyt6SajIsivN9vYke5k3wUrd1v7aRsHR9cct5vHuNYyQU7rGNebRrnbPES5fwz/BDT3zvFnbhfvKbYldz9rt9MslTAmgo3DCsakN1b59WhJrDaRvifLave9l+ufTuIVlW2KlWMFfTQEozQNwT3XNJcaxkgpG+DrHAd7zzawPbUBs9Ic25Xej1F2cyDbS65jDOcIlKoDXKvpocI3i38UWvsi3G0d48/cbr651My5ih58E+DoD5FnHcUzDK29YU4+6uC3uwGkihHSSzq4XN7G9ap2btT0caO6h0cN7XQMzTE4MUe1Z5gr1R1cru0mp66LS9Ud/Jnfxe4MKx9k+bhjG6djAhz9EY7nd5N4to04JYBZcfPJRQ8XyzrpngRrb5Tfbnow/11V3DWqTZIXo+TCdKJCGJPVlllyYraoJKR6+CLLhVzSQ1qhj8M5j/nxUiMnH7jJejxEduM4v97vYVuqC5PixSS72aKo/JDTSr51kL7xKD0T+rCMbQQeqDOcuO/lz5tOMir6uVzeRmM/1PeFySjzcLO+C/9QiDz7FN9eVtmptPLJeZXTpaPUDIJ7Flwz4J/V7zYmNBiJQscc+GfANw2eGagbBqV6ln2ZKn/d99LcOYZjEC6WdrEvvZE9Z1vYda6JnUoj+84189ttF5Xtc3TMQFb9IPsyrTFjsn46kzAmgo3D8sbE1Tu5WGAtXvauM2Oiz4fZItv4IsvF6cI2LEUBfsp+zMGMKn7JqiejooecpglOlwb5JMtNgmzTd2CXrHx+sYXLZR48Q/P0jM/TPgnOcch1zXM6P8CROy7Olfdys3GAuq4w7nG4XtdDanE3tgFo7Y/wZ14XO9Na2J5m46+8bsp7wTMNvlkIxEpCjEb17Hj3nB5LF2Ju8zjkuOGTS052X3Bxu3VEHxoKTpNR5GP/+VY+Omfjq0sOkvP8VHgm6JuBug6NX276SVA8a3oX4ZX0ThqT1R4PXVayWy/LbnFiTPWyPd3BwWteLjWMcVed455rnvqeEO3T0D4Fl+sm2JvmZOdZF3syVA5e9XC7eQRH7yxjszA2B/WeIFJBgG9yXOxOd3CqKEjTENi7pqnpmMdS3su/L9dztqKDttEweeo0X2W5SFTsbEtX+eqqnzNF3WSUtnGhPEB2pZcKzzD909A2HOGhtZvLFW1cKOvkQlkHUlEPP1738ln6Y7IfD9A7HqHYM8dP1/1slp0YUj3EpXnYpAQwKX4+vtTG9ZZp2qagomOW3+55SUjzLmZNVv2cvMzYtiiwJtgwvMiY3HnKmOiVmle///393BM3BsXLZtnBTqWZQ9ddpNeMcMs2Q546S6lnFu8oBKahJBDm13vt7ExvYec5B4eue7lQO0SVb4K+qQhTUQ1bxwg5Nb18lePjg7RWjhf009wPzkGNusAE9+zT/HbNwV8POmkdBOtAmMN53WxRbBgUN/sueUgu6uNieScXy3u4WNrFrZoOXANheiYjlDgGuVji42JZGxfKO0gv6eJwbhcfpDXxYaaT262jBGdhbFrD3jlFgX2MPMc0xa4pbD2zdE6AewguVQ3zeaaLRNmD+QUmcrXPz/Ix1U3cu2hMVtsNrthIUn2YJZXPsgNkPp6krhuCYRjUoCcCTQNwpaYL6YGVwzn1nLjnosA9RXX7DM19YfrCMBiF/nkYmIfWjgmS7jr4LLWaQ9l2bjf24x+HAucMh+8G2J5mZXdaPenVffhGQjxQZ/jyksoOpYU9aS3sS33MPqmUfWcK2Gcp5pvUAi4WOWgfDNPsH0G+U89XShGfSKV8JhXzmVzGJ3IZX6RX8sA5i2sU0iqG2CG3kCirmBUVk+LAoHgwKV7eP+snqbCf2n5oGIPjJUES0/2LxmQ9SGRMBBuHvzEmx0oxpPrWWcbEiTHVyd4LLk6WDFAf1Gifg6Cm7yPmGIXs2n5O3Xdw7GYjpx7Yud0yRFXbLI5B6J2HYASCIT1L7Oqf5VKJl28yG/g8tYLzZV0ERqHQOcavN+0cuOzhk/Mqvz/oomUIbIMRDud28r7cyDapmT2WKj6x6PHyk5Ry9ksV/Hq+mBrvMIGBaS4VWPlayuMzuXRR+5QqPpDr2HNe5XzNCLYhGI7CUAT6o9ATha4I+KegxB/l1KMePj3vYYvFSYIciFV6Xf1z8Sp6JzMmq/2hr6R4Sc+aHLjSwVVbhPogFLqnyCwNcPqBh//cdHEoq4XUki7yXXM090P7LLTP6ZNV77UOk1boJa2ojVzHFNZhqB+Eu/ZZ8pyzuMagOQhJD7v4IM2OSXKyM72Fs9VB/KMh7qvTfHnJzrdXfWQ2zpPnhaIAlLRBYQDK2yM4hmEoVsTNFoSydihoh+I2XY98Gtn1Y6QUdHLknof9l5wkWKwkKE7MiopZcWBSXJgUD4mpfj7KdPPznTZ+e9DGZ9mexZU5q30uXiXwxcuO542J9mY6hkDw9nj5jMl6MSZGxYVBUdl5TiWlepKGYSjyTZNa5OFkrpvfb7v5/JKdYw/buW2forEfvFPQNgOeSSj1h0gt7kAq9HGzZQTbCDQPQLEvTG7rCI294BmFc1VBdme0YkyxsT3NwW+5nVgHwTEQ4a+8Tg5ctHOybJyHASgO6HF1IbZWd0Ron4KheXAOQmV7hMIOKO6A0naNwoDGpeZZDuR4OXDBxu+3/Zx44ONUnodTeS6S87wk5fk5es/HN9kudqXaSLC4MFvcJEpezItLhteP3lFjstp7OqwgyY1J8bL5rJ/Psnx8d8PPpzkB3kt3kSh5MCpedmS4OF3UR5k/SmNHlGuNYxy5H+CnWwE+u+hhu2JnR6qbLy63cSyvj0L3PE3d8zR3TVHTGSGzdpR9Fzxskd0kyj52p7WQUdVL28gsDxwTfH3Zxk/XndxTZ2kNRnAPRvANhvANzuEZmsczHMI9OIVvaIbAQAj/YATfoEZgAHwDYOsNk2uf44er3liWZCFd6IwZEre+qZTiJl7xY0j1Y1D01LBhtT//15A+hq0SZ3EuMSYDwpgI1iEva0y8+lDOGuh/LyOT4iZRcbLngpdDtwPsvxogIc3JJtnFJsWLMd3PN9e93LJP0jIAt5qGOHK/jZ/utHHgahuJaU4SU53svejnj/sd3LeOY+uext49RXP3PDdapvgix4UpXb/GvJfu4PfcNhwD4OmPcDSvg68utHCueoSWILj7I3iCEdoGIrQPhHEPRHAPzuMdmMY7MI+7P4xzIIx3YBp//wTu/lnynBN8nmXHbLESL3vZJHmIV9z6NU5RMchOEiQPRsmHUQ5glr1sllxslf5u5/bVPz/L6R01JmtVHvTN7zwkSg62SFbMsr6XjEl2Y5T1fRF2n7Vx4JLKV5dUPsxwsE1qYYtkJUF2YJKcmCUXm2WVHal29l9U+Sbbybc5Dr64rPLheZVERcUsu0mQ3exKs3GsIEi+P0Lq4xk+uuRjR2orB7LcfJPj5NAVlUM5Dg5dsXPoioNDVxwczLFy6Iqd73IcfHdF5bscJ9/luDiU4+KbbJXPL3vYkaZilp+MYT79PvWOYpCfGJIFrf45eDXpGROVOIuLuOP17PjjDuWOfmFMBOuQV5xjsgb638vKJDsxSw42y60kyHaMsjO27FnP/mxRrHycaeerbCcfZ1jZLrewRW4lMfZvjbHnvye3su+8jW+ybHybZePrLAcfZ6psUawYFRWj4mJrqsqhW13c98ADt8bB2z28r7TySaaTb3NcetzMcfB9TAdz1FhsteuxNkfl4BWVQzl2vsux8t0VBwcuO9me7iBBcWFUvBgUL8ZUD6ZUN8ZUN0bFFbtGeDDKnticRRcJknPdZUuEMVlrenadufRs59crwupyxu7WPctqpYu8/hzdGJglF1tlO7vT7Xxy3squ8279NSQVs+LGpHiW6NUnMC1kFIyK/vgyWvVz8Ip63pjcFsZEsE7ZgEM5b03OxZhsllTeUxx8dN7Bx5kOtqW7MUoOzLITs6QuyiipGCTnslr997O6EsZkLektGBP9b9gxyQ5MkguTrC8nizvTSrzFsaRz6Hv3LCjOor68Ypt8La0SuVDG+kVa0+dmBS0sR4yzuJcYkyARTTgTwXpj5QJr63W58NuL3XqBTEMs3hlTPbrBiMVUo6RitNgxpOgyptgxWIQxWUnCmKwlvTVj4oj9DX3CrS4XBik2ZCQ59YyJ7InJHZtE9nrSqy86X0qrfg5eUSsbE7EsR7De+LvKr8KYrCy3Hr9jMdogq3rmWHJhkpyYJJUExUmC4lqUWYk9b4V5MaZ3+DMWxmQt6a0N5ayQpZCci51If3TFtPR1X10m5WWfL4yJQLB6rLCJX8/4c8ZkPU1+XVlvMg54iJe9mGSVBNlOgmQlQVL1opmSGoupz0h2vZVje7FW+xwsL1HHZC3prWRMXLHJUAuZE6feGCTv4nr3p03JwiZQzteWSXnZ56+Bc/DKAUkYE8FG4Ykxged3FxZDOS+KA/oeQvriA2dsDkks/q1oTNZnzHsbWvcZkyfdSANtOWPy5GJuiF3MV/tDX1mxdOCCnuv8z1/IFzrEs3qRMVk0H88YE+OiMXle/837Wk91Sf72/DyjxQyU5NaXC/95m3JHnzAmgnWIpkt76jvU7nH2Jt0j7mjpoinRjcn6vql4k1qcvP9MzDTI+oogk/S8xOe2shYyJsZljIm2pG0CVFVXs38tGZOniRmToTkOpT3if/4swrjsEIJoDK+j1ysHvfrH/ea0TDZLii11TnViVDxsOl7Ljj9vUu7oJaJF/vsmLRCsBkujPuDqnmTviXvEHy2N7S7seuqGb2G+mlBMC8Zk3S3TXTt60e7Cz1K93ozJ8nMbhDF5Hb3zxmS5YbYXGpMwT0V3gWC9sJwxOX4Pw7FS4hWXMCYvFS/WwDGsY61oTJa54auurubAujQmTxkUYUxeR8KYvIIxURcyJsKYCNYhwpgIrbKeGJOyRWOiwfo1Jv6BWb5LL+D//v4oVgb92Q4kjInQa2gFY2JUPMTLKkbFvWhMyuw9hLVwbG2DQLDOeMaYuHum+Dg5l7gjJRgUNwbFTZykL4kVxkTon1Cc7MMouYg/Wsp354rxDc6sb2PSNjTPrxfL+NdfJcRb7DxtSIQxEXpNvcCY6JOqdWOy5/h9qlxBkTERrF+emV3o6Zvhc6kIw7EyNlnUxYyJQVqohxQzJmL4QugNyCDpq3LiF4ZyzhXjXhzKiT4XVde+MSFK93iUk3eaMJ0oJy7FypPVOM6YwxfGROh1tLwxMSmxJd2Sm7hjNXypFNMQGBEZE8H65Rlj0jEc5peseswnyvnf07ZYZeenjclCiYHV76dC610GSV+V869TVhKSKvnzah3tI6HFaa9PVuLqrHFjojM1H6W8tY3P5BKMSVUYFCdxspNNios42Rmra7JE0sIGcmu8xonQKmtpPQInJim2xFr2YJBVDCfr2XqsiIyHdjqH5tBExkSwQRiZCXOjys+ek4+IS6rFKDl0Y7J4oxer17HMslhxIyhkXKkEheR6UtZCcuobukoeDJKbeMnHpuP1fHS6iBvVAYZnn9QsW5fGJBKJ0N0/QtK1GrYdLyDudBNxshozJk+qnepyL5EwJkIraaFmw9K7QzcmSS/Zb5AcJBwv5duz5Tx2DTExq8XGQoUxEaw/npliwlw0iqN7gl8vlGM+VoLhVBPP1y9Zm0UTX3bzUKF/Ti82JnrbMUmqXhhU8enD42ccJByr4OiVelo7JpiJPDEk62wo5wnzEah1D/PLpToMx8qJO9VCnPTEfDy/eZwb4zrbxlvobckdW32zUFXXi1HyYpY8JEhuTBYn/3OymY8tZdyt62RkesHVC2MiWJ8sraq5wHgIcpt6+TytDsOxKowpjsV5VwZJv+vViz2+QgXqt6Dl4r3Q29XKN/x6kU9TbFPZTZKLeMXNJosN0/FKvkqvpqAlyMjc81mSpawbY6IB47NQ2NzLwXOVbD5WjOl0Y2xM1IVR9mBQ9AqGcYtVUjfY8tY3rJV2wXyR/sljMcou3XG/lXHt2IZakhuD7MUkezBLToynmjAdr+CDlAoyClS6RsJEYr0nQlTMMRGsSxaMib4KQldYg54JyCkP8JmlFOORYkynmzBKTuIkDybZFdv7Ze1oMQ4p7n8kE/CqipdW/xhWJWMiv6CaeGzVrFlRMVpsmM40YjpRxhdKCbdq2uif1Pg7q7FujAkAGozOQFFLNz9frGTbiQLikqsxnmklQdIvNgbFQ7zixai4MSmuxc61nP6bvWLWml70PleSwaK+tIySc3GfiH/quF73fbzO+TRJThIklQTJoT9fsmM8WYfhSCGfpBRyudSLv3+G+SUr2YQxEaxXni35jQaaFmU+Cl3D89yp6+ALuRDz0QLikmqJS7FjkhwkSA4SFZVExbmoBMWFOdXzFuRelCkWzxcMillxP/X7ty2T4lq8vqz2sayGEhQ3icvIrLgxKE6MsgOzpQXD8QoS/srj4Pkq7tW1ERwPEdVe1DB11pUx0dCIAONzEZr8faQ/qOOLtEK2JRVgOlFJfNJj4k61EJ+iYkyxYUxpxZhijX39bspksWG22JfVK/+tlJX/1ptQgqwHwn/yNRZfy2LHdLqB+KRq4pNrMR8vZO/pPI7fekxhawfD43OEtaVtDzGQI1i/LKZKwiwM6ixcDyKaxtCMRqUryOm7DXwiFWI8VoAhqQbjyXrMpxtJONNMYkozmy0tmC3218q2vrocGCT7czLGhglMkh3jKstgsa36MayGTCvG1lYMp+qIP15GwtF8Pk3JR77XQKOvf3GyK1rkyfZNG8GYAES0CFGizEc1BqbD1PgGuFDq5o9rzeyXivkg+RE7kwrYlZTPrqSHscd3WMmFbD9RROLxMrYcL2FHUiG7kwv5ILmA3UmPXlEF7E5+Ne1KKmDniUcvVtIjdp0qZWdKNaZjpfzrjwKMR4t5L7mEncmF7DqRx+4TD9mdlM/OpHx2nshnV9IjXSdiWvhd0qMlehhT/lPalZTP7qR89p58yMenH/LDpTqkPBsPWzoJDM8yo/cetGc6y4vGRAWCtc/zxkRHnz01A3SMhSiy95JW4OCnrMccSC3jw1P57EnOY/eJXHafyGVnUj7vJxW+srbH9OzPdyz9OrmQ95MKeD+pgPeSC9l6soSEpFI2HSnif/4oxHiijPdTqvjgdDE7kwvYkfToreu9pEKMJyowHSvhvRN6fNu1JJ7tSMrf8NLj8JL4naTH+g+S89kvF/FbTh3nCt2U2PvoGQsTji7xH9qS9rfczFfWoTFZiqZphMNhRqdCBIIzNHuDPHZ2U6t2UqN2UqN2Ua12v9OqUPu5WdVG8j0P6UUB8lu6qHT0Uav2UePo/cdV7eilSl1JQarUPqrUXgrtg1x5HOTwLQcHL9Vz9J6T7OoO8hrbqbIFqHV0UKd2U+XoodLe8/zrqN1UqV1UqT1L/n4nVWpH7Ofdz6nW2UujN4inZ4yBsVlm5+b1TiN2ERa8o2iaRigUYnRiCnfvKA3+ILWubqrVzlh/6lyxP71IlWo3FTFVLv68h+rFONFNlWOh/3ZR6eikwNbDjYZuUovb+O2GjW8u1HP4pp2rdb2U27qodCzt6/+sqtU+qtU+Kh09FNqHOHzPx5FbVh4191FjD1Jn76HW3kONvYdqRw9VC+9nw6pnUdVqLzXOIDXOILXOXlr8Qfx94wxNhpmbj6JFno6pLxNe17UxWUpU0+8DwpqeLgoLEUa/C1J7Z7lV30eZe4yhEMwCIWD+LSj0Ai38PqzBVBSCM+Acguq2ae419nK1uo0HLUHq2qfxj8JIGKaAOSCkQSSmkAbzWuw1Y98/pRVePwKEo3rb0VZIKQoE7xKapqHFUoXz0SdxJPKGtHQS7oIWXiOE3r/7ZvU4UOGf5lZ9L1erOnjY0k9D+zT+UY2huVg/f4PH9TIKo8eTcQ0u1g6SXdVJ75Qed5b+m3dZC+c4oulx9alJTQtfvUvG5KkLSqxzaZoWuwOOvLOa18DdN8nd+i6qPYOMzIYIaxpRbWmY+Ie17LFF0RayE1G94UViwWYiAt3jGo3tEzxo6ORCoZ1blR7qfSN0jEYYm9c7wfMshLylr/83YTISWWwzz7UjgeAdQ1saOyHm2ol1q9jV5nVi6sKdY1SDaAS0cOwxShSYDcPYLPgHQpTZglwpcXK50EaRNYijZ47+SZiNLByGhhaJQDT6JMP5T2sxMGjMaHC5qperFQGCE/qN1ZN/G3tvG16RZT6f2B1eNKI/rhBL3xljsjAx8VknLtDdvBqc5cbjHio8w4zMRQizcNnW/nG93CqWJ2dt6fkLRWBoSsMzEKLYPkBWmZesik4K1QlswSj90zAVhjlNfy96ZwnpHee5qg0az7YO0U4EgrfEwk1irMdF0Pvt6DwERiLUt89wv6mfrLIAd2o7qfdP0DUeZjz890tL3zaTUcis7COnsoO+KT17s5C9fTqybGStzPO/XbhZjH33LhsTgc4sYOua4UpVJ+WuYcbmtMX9CdYsi0FMP6ezGgzPQttwhMe+CQqae7n/uIP8pi6q3AN4huYZCz1J7UYXMyVPJlktl8sR7UQgeDssJF4i6MM1XZPQ3DlJkbWX+3Xt3K9rp8zWj9ozS+8ETIafDJE8lQxn9fvtdBQuVndzpdJP34RGeCFRsBYObs3yDg7laGhEY/9p4tLzFHOAtXOGnMoOKlwjjM+uzU/l+T79zFHGUoMz8zAwCWrfPEWOYW7UdnLncRcl1h4cXWP0T0eZijyde1lpIGfFAxEIBPy3ln5xBAiYjcJoCDzBaWo8w/ocspou7jYOUBuYpX0ExueejKyudCRPbjfeIK+YJJjR4Gp9DzdrfAxORfUCjFGezFN71/mbz++dMSY6r5ZueleYB6xdk1ypDFDlGmZsJrpYyXRdEju1UfQJsz1jURrdQ9yp8nK52MWdhh5q22ZoH4fxiJ5F0dBrNUSXfd/r+cMQCP5BtIX/LdGza+iXfZJ+5Qmj3xj1z0Dr/2fvvONrvvv+3/t3XXevtlpEUXvvkliJFEGWEBGKoERqU7uCVu3WKLGLmCFIjSCJiC2RIHtHyN7zJCcn65yTM5+/P45zmqC9Wu11ofd5PR7v5IzvPp/x+rxnnpybMQLO30/lUlAK/nH5JBVKKZWCRPHcQuENH76lgHdUMb7h2ZRUa0w4qH/RCmnwa6Tu7yK/gX9HTP5tG/pbERM9XoYaIC63Es/gDEJTy/4mxETT6VVqkKtALIfCKojOEuMXkYNXSCZXw3N5mCziSaGMEjFIVBpb8L+3jr7ND0cPPf5CvMyBUV3nnw5a31Y5GlOHSAYZQiXhaSJuRefjE5LJ9cg8gpNFZAg1Duw16v+A9uO/ACngE1nMtfAcBM+IiVqtfs7H5HUTh/+0vPo4qScmeiAF4nIquRKaTURGBRVS9Vs5GOjwEu6grvVCUgPpxTL8E8u4FF6EZ7iAm3EionNk5FZoSIxK683/wlH+fKfTQ4+/DdRa+0RdqKil4ailLRArIacConNruPW4jCuRxVwMyedmnJDEfClC6TNHVrU2sPbtLPBQg1ZjkkOxjpiokAOq/xOkRE9M9PiTqAFicyq4EppNVHY1FdLXs0pRqVQolUoNKaBu4/w9DfUXvGzb2sfS5F+okEFeJcTnVRPwuICroelcDc0gJFlIqkBOqURjK1bWPob6t92CXwil1EOPvzF+TyuXqKBECqll8CC5DN/QHK6GZnMntojorEqyypSIZBofE6XWNKSuO7n9XhePN0WkgFdUMVfDcyiq1oQLq9SqZ866Go/Hv7/UjaD8PaJrV3pioocMjSnHKyyH6BzxayMmL8Mfn+A1OG0ogQAAIABJREFU1ZJeXGc9Izu6vxqNiAqNulgohzShitD0SnxCs/j5XiJXQ9OJyRYhkGrUz38FahOX3yt66PGmQkMdfplWakfWSFRQIoHHedVci8jhbMBTPB9l8jC5ktQSKKmBShnIlGrU2lwmv7Laft1E41WJiU9EDoVibbJHPTHRExM9fjdqgNjsci6HZr02jYlKpaK8vJy8vDxEIhFVVVUIBAIqKyv/YKN7Rjpe+FRVd6hTP/fy2YAqkUNmiYTQ1FJ8I3I5/zCdK2FZPHyST0J6PsWlIiQKzUBTe/iUy5UIBKUUFwuQy/4qGvNvoOcserxWqNHlZ1YrUaMh+WU1KlKFCh6mi7kSns+FR5n4RecTmlpGdpkCseKXpvtCgss/aQJ4U6A15VwN1xATTbiw3pTze6EnJnogBSIzRJx/kEZkViVVslcnJiqVCoFAQElJCTKZ7Hc1MLVaTXl5OR4eHkyfPp0TJ07g7e3NypUrOXz4MHFxcVRWVqJWq5HJZGRnZxMTE0NUVBSRkZFER0cTHR1NVFQUUZGRGomKIioqWiPRUURFRxEdHUN0dCwx0dE6iYqMJCE+HkFRMWqlCrVaY9muUkFBNSQW1RCYmM/mn9wY/+VXfO9ykOinuZRUKZHXekgFhQI2bdrCxo0/kJ6e9uzGqNM3ZTIZuTk5xMXGERkRQVRkJNGRUURGRBAZEaG7h4iICKKiooiPj6eqqkr3jP7dM9RrWN5uvE6N2Yur1+fXuy+9YFRqFQo0SQxzy1XE5Vbin5CNb2gKfhHZBCUJeVwgo1gMEuUvi4A6Z9X6qWhjad/yJqzVmHhHFeMdmkV+5bNgArW6Vs6V163T+W/In3iGemKiRw0QnlrGWf8korIqqZa/GjFRq9WUlJRw6NAhtm3bRnBwMFVVVbpG9msDr1KppLi4mO3bt9OnTx82btzIoUOHmDlzJkOGDGHevHkEBgYilUopKipi586dDBkyhN69e2NoaKj737NnT3r37k2fPn0wMjKiV69edcTQ0AhDw94YGfWmd+/e9O3bl759+2Jvb4+npydlZWWkpqYSFhZG0IMHPAwOJTA4lBv37jNvqTOtu/XB2HIc32x25fBpH/xu+xP0KIxHIRFcvOSNpdUILC2Gc9rdjYiwEIIfhPLoYTjBwRqiER0VybYtW7A0N6ePUW+M+/Wnj1FvjHr1wrCXIUZGRvTu3Zt+/fphZGSEtbU1J0+eJCgoiKCgIB49eqSTsLAwHj58yKNHj4iMjKSgoEDXOfXkRI8/gpev3zXmhl8++QXakHq1GkRSFanFEoJTRHiF53I+OAu/uEKicqrIESmpkGu0i7ozPe8s+5+d314L1IBYrSEml4PTyS6TPfNTU/9N9EH/eeiJiR5/KTHJysrixx9/ZODAgYwdOxYfHx+Ki4v/bUMTiUS4uLjQr18/XF1dycrKIj09ncOHD7Nr1y6Cg4MRi8VkZ2ezfPly2rVrR9++fRk+fDg2NjbY2NhgbW2NsbExBgYGdO/enREjRmBra6sTe/sxjBplx8iRIxk9ejRWVla0aNGCLl26cOjQIaKjo1m5ciWdO3emVavWtGzZiuYtW9CsRQsaNGrEP9//iH988DHvN2zJBwYtaNqqPc1bd6BVu440/qQl9T4y4KP6jfjkk+Y0b9aS5s1a06xZGz5p1hozs2Fs2vQ9W7duxd5uNE0afUyTjz/GpF9/rC0tGWFjw9ChQ+nSpQsGBgZ06NABQ0NDOnToQLt27WjTpg2tWrWidevWL/wfOnQoHh4eCIVCPSnR4w/jZcRE81djWlGrVTqHdBWaJGiZ5RCZI8EvuoBLwRl4h2cRlFRCSomcYrEm+kauflYjpvaZlIr/5sL7tUBLTLwii7n8qC4x0eP3QU9M9NARE4+AJKKzq6lWvLopp6amBoFAgKurK2ZmZtjZ2eHu7s7jx48JCAjg1q1b3Lp1i9u3b+vk1q1bXL58mblz59KxY0cWL17MxYsXuXnzJl5eXly8eJFr166RlpZGfn4+zs7OWFtbc+bMGbKzsykqKiIzM5OAgACcnZ3p0qULU6dOxc3NjTNnzujE3d2d48ePc+HCBZ0JyMHBgc6dO+Pq6kp8fDwuLi7Y29tjZWWFhYUF1sOtGDbMjE8/7YZBo0Z07NyNIcOssbCyxdx6JEMshjPMygbDviY0atqcjwya0L1nfwYNsWHwsOGYW47AwtKG6dNncuniJQry8wkPDWXwZwMZbmWF9+UrZGdmkp+XR3h4ON9++y3GxsZ89913uLm5YWlpSb169ejatStDhw7FysqK4cOHY21tzeDBg+nQoQOffvopx44d0xETPTnR41VQlwv88kqJxjRRKoVMoZyQVCFXI7I4/yAV34gcIrPFZFaCSKlxpNeNHbX9R2r7HWhzn/zNiYl35IsaEz1+H/TERA+kQGhyKeeD0nhcJEei5JUSrKlUv6ysysvL8fX1xdnZmZ9++glXV1dMTU1p164d7du3p0OHDjpp3749rVu3pkGDBrz77rs0bdqUdu3a0bZtW9q1a0eHDh3o06cP7u7u5OXl4ezszKhRo7h+/TpSqZTKykodKenatSsffvghTZo0oWPHjnTq1El3jjZt2tCyZUuMjIw4f/48WVlZTJs2jU6dOuHq6kpFRQWlpaUUFBSQm5tLbm4uBYX5FBXl4+vrxbo133Lq+HHSUtIoLiqhoKCYgqJScgsFBDwIYfX6Tcxf4syB4578dOIyR3/2IjQqjqysLEqKBUirqwHISs/AYugw+hgZsXH9ek6fcufMmTPs2bOHiRMn0q9fP/bu3UtKSgr79++nX79+bN26ladPn5KXl0dxcTGlpaWEhoayYMECrK2t8fPzQyqV/oWtQo//c1DXNTQo1Bpn8FyRkoi8Gm48LuVKZD6Xw3O596SExEIp5RIVcoUStVpT1F6tru1kLgc0lWbVzxfN/D9ATHyiS/AKySRLqCcmfxR6YqIHUjQak4sP00ksVrwyMXkearUakUhEaWkpISEhbN26ldWrV/Pdd9+9IN9++y22trY0adKEoUOHsmTJEr755hudbN68meDgYAoKCli2bBkjR47E29ubuLg4fvjhB6ysrGjevDktWrRg0qRJuvOsWbOG1atXM2fOHHr16kX9+vWxtbUlICCAzMxMHB0ddRoTiUSCQqHgyZMn3Lh5k2JBiW5sLKusxMvbi1s3biCpltS5T4lMQUR0HAdcj3DyzDkuXrnFWIfp9B9szpzFX+N+wYuCMpnOWTYtOYWhZkP5xz/+l4YNDPi4UWMaGXxMw4YN+fDDD+nerRv79u0lNzePK17eDBk6jM1btlBQUFCnw8bExDBlyhTs7e2Ji4ur89z1eLtQ2+dKS/C18ue1YL9vhtf6jijRmGsSC2q4F1fA1bAMvEPTuZtQQExOFXmVaiqeVex+tmctrQi6DK8qraeKWqUJB/4/Rkz84srwCc8mu0yuJyZ/EHpioofGlJMm4uKjDJ68IjFRKBRkZ2fj7u7O+vXrWbt2LWvXrsXX11cXWSKXy6mpqUGhUFBTU1NHqqurOX78OD169GDdunWkpaUhlUqRSCQolUpqamqQyWTk5eWxfPlybG1tOXjwIN988w2ffvop48ePZ9GiRQwaNIipU6dy584dhEIhlZWVhISEsHr1ahwdHdmyZQshISFUVVVRXFzMtGnTdMREKpVSUVGBu7s7o0fbs279RhKfplAiLMf1+ElGjLLD2XkFycmpqGqNsZViCadOn2Xs+Als276T6NgnnDpznuWrvmG4/TisP/8CN8/bhMSlk1ckJC4hiUFmFrRt35npM2azYf0mNv+wleXLnbG0tKRPbyP27tlNkaCEkLAIbEbaMmv2HCKjopDJZCifVTG7d+8ew4YNY/78+aSlpemuR09M3j78Gin564iJVhuifuEb7bdiJQjEEJch5FZUNpeCM7gUmkdAUjlPBQoKqqG8BhR1Uro+e6NWgUKBQq5AoVQjV2vKO8hUahTq2oVT1XWdX/+G0BKTm4kVXIvMI7dcoScmfxB6YqIHEiA0TcT5h2k8KZYjVfIrxex+4xgSCeHh4djZ2VGvXj3+9a9/8T//8z8sXLiQkpIS5HI5YrEYsViMRCKhurqaqqoqJBIJYrGYqqoqfv75Z4yMjFi9ejU5OTkvNE6lUklubi7Ozs6MHDmSEydOcObMGU6cOEFCQgICgQB3d3dsbW0ZM2YMy5YtY8WKFSxfvpzVq1dz5swZBAIBoGn4AoFAR0wOHTqkI0Lx8fGsW7eeAQNM+WLKFBYsWsQAU1PGT3DA0/MSaWnpVFVVI5HUUFUtoUhQiuuRY9iMHMX3m7eSmZ2LWFpDbn4+N+/e5dCx41zyvobX3RA8g5I4cuk+3Y0tsR09nvv3H6J85iFYUFDIli1bGDx4EDu2b6e0VEhGZiYTHCZiNtSCy94+yOVylEolYrGYEydOYGxszO7duykrK/srmoIefwK1o89kMtkfHiyzs7M5e/Ysp06dIj4+nsDAQNzd3UlPT6empkZ3bIVCoesz2j71olQhFldRIxUjk4qRSaqRiiuQiCuorq5GLK5GLBFTJZEirBKTVliKf2IhnsHpXH6Uyp3YHMLTSsmt1ITOi6prOO95hZ279xAREYlMJtPeNahViKsriQgP4+BPB/APCKDi2WLk2RZ1sgiJxWJkMpmm71dXU11VRXV19bPr0ly/9r1cLn/riLaWmNxKLMcvMo/cck1Itfa7t+tuXg/0xEQPJMDD5FI8ApN5Uiyj5hWIiUKhoKioCD8/P1xdXZkyZQqffPIJCxcupLi4mLi4OJ1JRSuzZ89m9uzZzJ07l23btrFp0yb69+/PkiVLSE9Pf+EczxMTT09PMjIyyMvLo7CwkCdPnrB582ZMTU1p27YtrVq1omXLlvTq1YvPP/8cR0dHVqxYQWhoKPn5+aSkpDBlyhQ6duyoM+UolUrUajUxMTHMnTuXFi1bYtCoEUuWLCE4OIR79/xZu3Yt8+fPZ86cucyZMxfHaU4MM7egbbv2mAwwxdHJiTnz5jFrzhymz5yBo5MT6zZu4mZQOMHJAk5fDaJH/2GYfDaEE27upGdkUVIiJD7+Md9++y0mJgPYtWs3ZUIhRYUFfLf6W4yMerPDxQWRSIRKpSI1NZUVK1ZgYWGBn5+fbuLS4/VCqVRSUFCAm5sbly5dory8/IVB9tfC5qOjo/nyyy+ZMmUKPj4+rFmzBnNzc6ZPn87ly5cRCATIZDLi4uJwcXFh7ty5dfrT3LlzmT179rP3s5kzZxZzZ89i3uxZzJ09k3lzZjB7zmymz13IzDnzmTVnLrPnzmfG3Pms2bydczeD8Y/P4cHjHB5nlZCeLyRXUE5hSRmxsbE4OjpiaGjI/v37ycrKQiAQUFxcTHFxESkpyezbu5fPTE3ZuGkTcfHxCAQCioqKKBYIEJSUUFFRQXFxMWvWrNFd86xZs5g1axZz5sxh3rx5Opk7dy7Lly/Hzc2NpKQkiouLEQgEdaSkpISSkhIEAgEikegvn5xeFVpicvs5YlJbb6XHb0NPTPRADAQmFnP6XiKJRTWvRExqQyaT4erqSufOnVm0aBGFhYX4+/szZMgQOnbsSNu2balfvz4fffQRzZs3p2PHjjg4OLBq1SoGDBjA3LlzSUpKeuG4tYmJtbU1a9euxcnJCUdHRxYsWMDChQvp1q0brVq1YtKkSWzduhVXV1ddpEu3bt3o0aMH1tbWTJ8+HRcXF4YPH64z5YhEIgoLCwkKCmLDhg3Y29vTvXt3DAwMcHFxIS8vj4sXL2JjY0O3bt3o2LEjXbt2pX379jRs2JD33nuPBg0a0L5jRzp27kT7Th1p37EjbTt0YOyEiQQ8CKZSIifuSQrGA4dQv2Fj+puYMsrOngkTJjJqlB09e/akp6ERu/fuQ1QmpLqqggvnPOjf25BpU7/gcUICMpkMX19fRo8ezfz580lKSnrrVpV/V0gkEvz9/XFwcMDW1pbjx4+Tl5f3u/aNi4vDycmJqVOn6vLUHD16lHHjxuHi4kJOTg41NTX4+voydOhQ6tWrR6dOnXTSuXNnOnbsiIGBAQ0aNKB161b06NaFHt260LVLJzq2b0eLNh2o37IbTdt0pXW7zrRs1QYDgyZ8Pm4yD0MiCI2IZuHipThMnIiDgwMTJ05k4sSJ2NnZ0a5dOwwMDOjfvz/jxo1j0qRJTJ48mUmTJjFmzBiMjY1p3LgxhoaG2NnZ4eDgwOTJk3FwcMDBwYHNmzcTHh7OkCFDaNq0Ke+//z4GBga0b9+eTp060b59e1q2bEm9evX44IMPaNOmDf379+fzzz/XnWfic9c1ceJEJk+ezPr160lLS3sj+oGemPx56ImJHkiAgMdFuN2OJ7GoBpnqzxETqVSKq6srXbp00WlMBAIBQUFBBAQEcPr0aezs7Ojfvz8bN27kzp07REREcO3aNezs7Bg9ejTR0dEvHPd5jcm6deuwsrLCxMSElStXcuLECcaOHUuzZs3o3r07EyZMwNXVlYcPH+Lp6cnly5dxd3fHxMQEU1NTdu3ahb29PV26dOHAgQMkJiayfft2RowYgbm5OWvWrGHPnj1069aNsWPHEhwcTE5ODuHh4dy/f5979+4REBDAxYsXmThxIh07dsTW1ha3U6fwvx/A7bt38L9/n9t37xAeGU6psARQkZqWzMBBn/Gv996lVauWtG3XltZt2tCyZSsaNGxE+649Wb9lJ9mFQqQqeJySgd2YcZgMMOXixYukpqayadMmXf6S8vJygL/AF0GPPwuVSkVeXh5eXl5MmzYNExMTtm7dSlFREeXl5RQWFlJQUPBSuX79OuPGjWPs2LHcu3ePrKwsUlJS8PPzIzAwkJycHEQiEVevXmXgwIEMGjQIHx8f/P39CQgI4M6dO5w8eRLbkSMxGziQdau/xeOMG2fOunPU7SQ797myaNUmvli8hm+27OHY2fNsc9mJ2ZChOE77kti4ePwD/LG0NKdDh3a0adOaNm3a0KZNG1q0aMF7773HO++8Q8OGDWnd+pfvtDl1DAwM+Oc//4mBgQGtW7emffv2tG3blpYtW9K6dWumTJlCYmIifn5+rFy5kj59+jB79my8vb25f/8+AQEB7N+/HzMzMwYNGsR3332Hk5MTzZo14/3336dp06a0bdtWF13XunVrmjVrxr/+9S+GDBlCWFjYG9H+6xCTqDzyKtR6YvIHoScmeiBFQ0zc7z7mqUD+lxKTJUuWUFxcXOf7zMxM5s2bh7W1NZcvX9aZIRITE/nyyy+xsrLi7t27L5gnahMTW1tbPD09SUxMJCkpCaFQSF5eHosWLaJHjx51QoV79uyJqakpq1evJjMzk4yMDBISEkhOTsbR0ZFu3bpx8OBBIiMj2bhxI/PnzycgIIDi4mISEhIYPHgwbdq04cCBA1Q/C/mtjbS0NJycnOjQoQMWFhaEhYfX+V4slSCtkaBNWpWa9pQhQwcycKAJp9zdiIgIIyoqiqu+15g5ey7tu/dm1tLV3AqOI61ESlpJDd/vPEj/z4Ywf8FCdu3ahe3IEUyZMoWMjIw3YjDW4xdofUzCwsL4+uuvmTFjBkePHmX9+vUMGjRIoxV7iXTu3JmGDRtSv359OnfuTM+ePTE01GQE7tu3L4sWLeLu3btcvnwZY2MTbG1H6XyL5HI5MTExzJs/n1atW2PQwIDOHTvRr58Rhn160a1XLzr36EvLzn1o3vMzpi1YTnB0PLfu3sV+zBicnJyIiY2mqrKclKREHifEEh8fS1xcLDExMfj7+zN//nysrKzYs2cPYWFhxMbGEhsbS0JCAiEhIezfvx97e3u+//57rl+/zq1btwgMDOTx48fExsaSnp6OXC6nsrKSU6dOYW5uztKlSwkJCSE5OZmkpCROnz6Nubk59vb2+Pv7ExkZyahRoxg8eDBHjhwhLi6O6Oho3XmPHj1Kv379mDx5MnFxcW9EX6hNTK5F5pJdptQTkz8IPTHRAwlwP7EYj/tJpIn4S4nJ4sWLKS4uprq6mvz8fORyOenp6cybN48RI0Zw5coVpFIpSqWS9PR0vvnmGywtLblw4cILJOB5jYmvr68uwicxMZHAwECOHDnCrl27OHfuHCdPnmTOnDl89tlnWFlZ4eLionN+BRAIBDg5OelMOQKBgOTkZFJTU6msrCQiIoJVq1bRt29fWrduzcKFC3ny5AkKhULni1JZWYmPjw+DBw/GxMQEExMTTp12RyqToVCrkCuVuiBJpVqNAjVP01MwsxiG/Rg7Hj4MRC7XELCc3Fw2fr+Zdj36YT1hJs5bDvCjmw8Xgp7idvUBIxym075zd7p26Yyl+RBOuZ9GLNHnLnmToB1QVSoVUqmUjIwM4uPjiYiIYMeOHVhbWzNgwICXiqGhIU2bNsXAwIBu3boxYMAAjI2NMTY2ZuDAgSxZsoR79+5x5fIVBgwwxdbWjuzsbDIzM7ly5QpjxoyhSdOmGDRpTMs2XWnXqRfdjYzo0783/Y17073bp/zve/X5oHEr5i1cRmxsPPdu3WHM6NF8+eWXxMTEACCvkVAqKKK8rBRt+JlcLicyMhIvLy+ePn36wsQhFosJCwvDw8OD+Ph4bty4wapVq9i1axcJCQkIhULdtmVlZZw8eRJjY2Nat26NiYkJn332GaampvTo0YMmTZpgbW1NUFAQ+fn5LFiwAAsLC3x9fV943hcvXqRTp06sXLnyjTPl3EwowycsizSBFDl6YvJHoCcmeuiIybmgFDLLn1XC/BPHk0qlHDp0iC5durBo0SISEhK4cuUKR48eRSQSkZmZyfz587GxseHSpUtIJBLkcjkCgYC9e/cyePBg9u3bpyMRRUVFREZG6hxdv/76a2xtbbl27RpVVVVERUUxbtw4OnXqRMeOHenevTvOzs54enpy6tQpDhw4wOHDhzl79ix3794lKysLqVRKcXExjo6OugRr2gRlQqGQq1evMmPGDGxsbNi8eTMjR47EwcGB+/fv60iJSqUiOTmZJUuWYGlpyaZNm3BycmLipEkEBgWhUCpRqdW6Z6n9n5KRjtnQIZiYGLNzpwu+vle5fv06p0+fxunL6Xxk0IT3Gn5Co1ad6TfMjp/OeHPpdjAzF62gdYfO/OOf/8vkyV+QlVuIQl07O8TLE0C8xSkh3irI5XIyMjIIDAzEz8+Pmzdv8uDBA/Ly8qipqaGkpISMjAxSU1OfkzRSU9O4c9efqdO+ZPhIWy5cvEhycjLp6emkZWSRnpVDYWEhImEp1656M2CAKSNGjcXregALV6zDyNSCzoaf0bp7P3p+ZsWMucs4eeo8oRHRRMXEcOPGDTas38RgM3OmzZhDaFgU1VVi7t6+w9gxY/jSyYmoyEgAkp8mcvCnfWzd/AMhjx5SLhKRmprKyZMnWbhwIadOnaKkpASVSoVCoUCtVpOUlMS3337L2LFjuXPnDhcvXmTmzJlYWloyZswYjhw5otPulJWV4e7ujrGxMV27dsXCwgJbW1tGjhyJiYkJLVu2xMrKigcPHiAQCHQlLo4dO6bLNaRUKiktLcXFxYX27duzb98+ioqK3ixi8riMKyEZJBVJdfWCXv/VvR3QExM9kKBxfj0fmEJWhSaHyZ/pQDU1NRw6dIjOnTszcuRIFi9ezIgRI9ixYwfl5eWkpaUxb948bGxsuHr1ap1G6O3tjZmZGYsWLSItLQ2VSoWPjw/Tpk3j0KFDZGVl6RKs+fr6IhKJCAsLw9nZmfHjxzNu3DgGDx5Mu3btaNy4cR0xMDDA0NCQ8+fPIxQKyc/PZ9q0abpaOSUlJSQmJrJ7924sLS2ZMGECJ06cIDc3V3cPXl5euuy2QqEQV1dXBgwYwPr16wkNDeXUqVP06tULZ2dnCgsL69xbeXk5AQEB/PTTT3Tr1o133nkHAwMDmjRpQpMmTWjcuDEffvghDRo0wKh3H8aMc2Dld+sJj31MeNxT5i9xpmnzVrzzzv8wcPAQfG7co0gkoQZ+o2qpnpj8t1BaWspPP/2EiYkJjRs3pkOHDowaNaqOufK3kJmVi/PKbxg73oE7d+9RU1OjKXKp/qXmjFRcjZ/vVfr1N2Gg+Uj2uHljM3kB1hPn892OE3z/kwdOSzdiN24q69Zt4syZ85x0O8NOl71s2bIDb+9rZGXloFCokEhquHHjFra2o5g+fTox0dGAmqz0NA7s38uEcWOZMnkiu3a6sGLFCqytrXFycuLKlSu63ERapKWl8dVXXzFw4EDu37+PRCKhuLiYgIAA9uzZg4+Pj26fsrIynSln1apVhIeHk5OTQ3Z2Np6engwfPhw7OzuCgoKoqqriwoULDBs2jM2bN5Obm4tKpUImk5GUlMTChQvp3r07169fRyKR8CZAFy78WIhncAaJRbJahQz1+D3QExM9/nJiIpVK2bdvH126dOG9996jQ4cOLFq0iIiICJRKJZmZmcyaNYuePXsyb948Dh06xNGjR7l+/Tr+/v5Mnz6dkSNHcv36dV2Ej5mZGTt27CA1NZXFixfriIk2YZs2B0J1dTVxcXHs3LlTFz6plenTp7Ns2TLi4uKQy+WUlJQwffp0unbtyqFDh4iIiGDBggX07NmTxYsXExAQgFAoRKFQsGLFCqysrLh06RKgmYQ8PDx0ET7h4eFUV1eTlpbGggULGDZsGPv37ycnJwe5XA5AUlIS48aNo3nz5rRt25aRI0cyY8YM3fU5OjrSr18/evbsyfbtO8jKzqW0TMSj0DCcV65isNkQbGyGM2b0KLp360bfz4axfudh7kRnkFoqp0wBNapav51aAWq55r8e/3FUVlZy48YNvvnmGyZNmkTfvn0ZOHAgHh4eVFVVER0djbu7O0eOHKkjR48c4diRI5w55c6K5V8zetRIrlzypLqqss7x5WoQieWc9/LDqJ8pfQcN56hPGGduxXA9NIUnWULCY5LYuecARr2Nee9fH/LB+/U3htLIAAAgAElEQVRp2qQF9vbj2P7jLo4ddSMgIJDqagkymYLbt+8yxn4sXzp9+YyYgFJeg7CkGM8L5xhmNphPmjbB1NSUDRs2EBISosuvcuLECU6cOMHRo0fZuHEjgwcPpmvXrixbtoxjx45x/Phxjh49yv79+zly5Aj+/v6oVCpEIhFubm5YWFjwww8/1DGvPnjwgNGjR2Nvb8+DBw+QSqVERkZia2uLk5OTbgxRKpXcuHGDESNGYGNjQ2Jiom7B8LqhJyZ/HnpioofGlPO4iJ/vJ/1pYqJSqSgsLGTdunW0atWKnj174uzszLlz5zhx4gSurq788MMPDB48mAYNGtCgQQMaNWrExx9/zMSJEwkICMDV1VWX0TQjI4MffviBQYMGceLECQoLC1m6dCl9+vRh0aJFHDhwgKNHj3L8+HHdQKgdDPfu3cuePXvYu3cve/fuxcXFha1bt3LgwAGOHDmCi4sLAwYMoEuXLri6uvL48WN++uknXFxcSE1Npbq6msrKSuLj45k0aRKjR4/Gz8+PzMxM3NzcmDRpEl988QX37t1DLBYDGm1RZGQkc+bMwc7Ojn379vHkyRMkEgmFhYUcPnyYpUuXsnPnTuLi4nRJsmpqakhPT2fTpk0MHDiQHdt3kJaahreXF186TcO4Xx9mz/yS+/du8zg2mi2bf6BTj14079STCXO+5qdzN7kTnU1CXjVFYqhS1io3r1b++g+mx18GbfIzqVRKZmYmy5cvZ8iQIXh4eJCfn8/u3bvp0aMHBgYG1K9fnw8++IB69erRsEFDDBo04HP70SxZMB9bGyvOnDlDRZUYFZrMzGU1kCGUEZVayK4jZ+jUw5DuvU3ZsMedjXtOsvuIBwePnGL58pX0MTTC8FNDxowey7SpTjiMn8SgzwbTrGlzWrdsg5WlNZs3b+Xo0ePs33+QESNGMs3RUWPKUakQV1WQ9OQxe3fvZKjZIJp/0pRJkybx8OFDiouLWbduHW3btqVx48Y0atSIRo0aYWBgwLvvvsu7776r+0zbr7W1rxYvXkxNTY2OmAwaNAg7OztcXFxwdXXl0KFDLF++HCMjI0aMGMH9+/dRqVQUFBQwY8YMHcmTy+WIRCJcXV0xNzdn8+bNFBUVve6fX4dfnF9FXA7JJLGoRk9M/iD0xEQPJMDd2DzcbyeQ/RcQk9zcXLZt28bEiRN1CZLOnz9P//79ad26NS1atKBdu3Z8+eWXfP/992zcuJENGzZw9uxZCgsLiYmJYfbs2RgaGrJkyRKsra11GhItMdGaPtq1a6cLW9RK27Ztf5e0bNmS9957T2fKqaiooKSkBH9/f3bs2MG6detYtWoV48ePp2fPnkyfPp2tW7cyZ84cRo8ezeLFi7l165YuiZZWFAoFDx48YMmSJYwYMQInJyfc3NwoKirSkZ3q6mpdanktCgoK2Lx5M126dMHObhQLv5qH5bAhjLQaxvbNG3gcE45CWo1aISMjPZXde3dhOngQbbp0w/zzL9ng6sWZwByuxRTxKFVIaqkckQzkdeoL6EfI/wYKCwtZtWqVjpiUlJRw//59du7cyZo1a3B0dKR9+/aYmJiwaNEi1qz5jtOnTrJ92xbMhw1l+659pOeXUiqB+AIp1+OLuRKRy+WHT9l64BTdDfvSr58xq75dh6Fhf/r3G8BK5xU4L11Gz67d6dPLkFlfTmffrt34+VzlzMlTrF6xkpVfOzN54hf06d0PG5uRfPvNd9jYjGCaoyPRkVGkJiXx0749THdyxGzQZyxaMJ+JDhOwtLTk2LFj5OTkcPPmTX788Ue+//571q5dy8aNG5k9ezbNmzfnX//6F6NHj2blypVs2LCBTZs28f3337Nlyxa8vb1RKpWIRCJOnz5N3759adiwYZ2w408++YR69ephaWlJYGAgSqWSiooKfvrpJ4YOHcqaNWsoLi4mIiKCGTNmMGHCBBISEt6oBINaYuKfXIlPRC6PC6V6YvIHoScmeiAGbkVl43Yj9i8x5chkMlJSUoiLi6O8vByFQkFmZiYeHh64urpy+PBhzpw5Q0pKCjKZrE7NHNB4+Pv7+zNz5kyaNm1Ks2bNWLVqFcnJyeTm5rJs2TL69++v05i4urrWkcOHD/9bOXr0KLt27cLMzIzu3btz7NgxXa2c06dP8+mnn/LRRx/xwQcf8MEHHzB27Fh27tzJpEmTGDRoEHv27CEhIUGXMru2gKajxMfHs2XLFiwtLXF0dOT27dsv2Oa1UKlUZGdns3XrVnr16sWwoUMx6d+PRV/N45qPF0JBIZpiaWpUz36f/IIizp+/wOxZs5i7cClX7wUTky3iwdMiroWncz7wCTdjckkokFBSo1l565Qob4CT4N8ZhYWFrFy5EjMzMzw8PHQp6rXhstevX8fKejiLly4nOi6BimoJYqkMN/czDDa3Yt7X3+HlH8H10Kd4PUjgdlQGUekCnmYLOO/pRf/+JlhaWHL//kM8zp7n0sXLpKekcffWbazMLahf70Pq1/uQT7v1YJz9WJymTmPpoiVc8bzCwwfBeF68hJeXDx4e57C31zi/Bj96xK0b15k29Qu+mjeHM+4nyUxP5dzPHpiZmTF9+nSio6N1davkcrmutISfnx+9evWiQYMGbNy4UZdGX2tq1d6/QqFAJBJx6tQpBg4ciL29Pdu3b8fV1ZWDBw7y9ddf07t3b0aNGkVQUJBun7i4OCZPnoy5uTn37t3j2LFjmJubs3bt2jcm46sWWmISkFrN1ah8nhTrTTl/FHpiooeGmETncvJmLDl/ATGpjd/TwF5WqEwsFvPkyRM8PDw4e/Ysjx8/RiqVIpfLCQ8P59atW+Tl5b2gdfgjUCgU3L9/n8uXL/P06VOUSiUymYz09HRdRM/Jkydxc3MjKiqKzMxM/P39CQwMpKSkpM41P09MlEolcrmcgoICHj16RGBgIKmpqb+6slOr1UgkEuLi4vDz8yM0NIRbN66TnpqCSvFLXRKFSq2LxFGpQVItIS3pKakpKVSKxdQA5UrILFcTnCbiakQWF4KS8H74hOh0AYXlcsRKTUH6XxxmdVdRS57//IUrfqVn/vfDy56VmsLCIlauXMXgwYNxd3fX1DhSKFApVUglUm7evIWVzUgWO39DfHIWEjUUV8g4dvYSJkNtGDJqIofPXeNOZCpP8ispkUCVTE2VWIKvjzcDTIwZPcoOUZkmuZ5KoaKqooLEhAQunDuH64GDnHI7ybw582jTqi0fvPcBvT7thbeXDzU1Gp8npULFnTv3GDNmDDNmzCAsNJT8vDxCgh+RlpKMQlZDQnwsc+fMpk2bNnTp0oWff/65ziSgVCrJz89n7969dOnShR49erBkyRIiIyN1UTug6ePavioUCjlz5gxWVlZs27YNkUikO15ISAjjx4/H3t6eGzduIBKJkEgkCIVCNm/eTN++fbG2tuazzz7j888/JyAgQPPU36DkglpiEpgm5lpUPk8FcuSv+6LeMuiJiR5UAzejCzhzO4FCMbXrgP5X8bLGqA1H/Lvgj9/Ly7MfPB97o91KiaZ4q1qtRqaCoioFcTnlBCbk4BOcwoWHOdx7LOKpAIrFINUdWq3ZWy0HtUp3Dg00G9VtF/qMDBoNljZ1Vu3noqSoWIDzCo3G5NSpU6Snp/PowQMy0tKpKK/k1u27mA8fyfQFX3M79CnRmVX4hiTz/YGz9Lccg6nFKO4EhSKWq5EpQVRRSamwjLKyMq5evYqJiQl2o0ZRKiihTFjGVR8fFi1cwCSHCUyZPJkN69bzIDCIoKAgjhw5wt69eznpdpLIiEjy8vJRyDVajDt37uiISVRUlO7OKisr8b93j6lTp9KjR3eGDh2KoaEhP/74I6Wlpbp2LJfLefjwIdOmTcPW1pYVK1Zgb2/PoUOHEIlEOjJS2zG1rKyM06dPY2FhwapVq4iNjSU7O5usrCwuXbqEpaUlHTp0wMzMjClTpnD69Glyc3MJCgpi/PjxvPPOO7Rr146tW7ciEAjeGKdXLbTEJChVjF9UPknFvxATfa/5fdATEz2oBm5EF+Bx9zGCmtdHTPR4GX490Ff1ElE+IyVacqFCE6lTLlWRKajmUbKQaxHZeIVkcCe2gNgcCTkiKJeBos6Z1M+dSf0cRdK3Ds3TqPvUtD9XQXEJS51XYdinP8tXfsOmH7Ywb+EiAh6EUVQq5YL3TQZZjWKs4yyO/OzHrdAUHj7Oxfd+FE5fLWfA4GF4eftQXVWFsLSEE8ePsdPFhaCgILy9vTE2NsZu1ChKBAJysrPZtXMnQ4eY0b1bN7p26UL3bt0wNTXFxsYGa2trhg8fzvDhwxkxYgTLli0jJSWFmpqaOsQkNjaW6upqEhIScHNzY9SoUZibm7Nv3z4OHjyIpaUlq1atIiMjA6VSqXN037FjB2PGjOHgwYMEBwfzxRdf4OTkxP3793XVsLXak+rqaqKiovjxxx/p1asXnTt3xtraGltbW4YPH46pqSlNmzalfv36ulo5Li4uZGZmEhMTw+TJk3nnnXfo3r07u3btquP0+qYsYF5GTGToE6z9EeiJiR46YnLu3hNKZHpi8rbgZcTkxbXjs1W9SuMLU6mAnEo1sYVy7j0pwyu8gCvhhQQ+FZJcLKNEDDL181lQ6tIRfbvQQktMVC+orwpLRCxZ8R31G7egWZuOdDPqz5ylKwiMSCI8sYjdxy/Qw9Qcs5Gfs23fCa7ceIj/o2jCYp7gsvcA/fr1Y5Xz1+RlpVOYl82cWTMZZWvLhQsXuHz5Mv3798fOzo6KigpdfZ6EhASio6MJCQnBxcWFMWPGMHToUIYMGYKFhQUDBw7E2tqaVatWkZubC1CHmERGRvLgwQNmzpyJlZUV06ZN4+bNmxQWFnLz5k1GjhzJV199pQvNFQqFHDx4EAsLC5ydnYmPj6eyspLTp09ja2vLokWLSElJ0T2t8vJygoKCsLa21hXt69OnD6ampgwcOJABAwbQq1cvGjdujLGxMQcOHCA0NJTMzExCQkJYvnw5vXv3pkePHrpinNpIvTcJemLy56EnJnroiMnP9xL1GpO3CM8Tkn9HGrQDoxyQqKBcDpllCoJThJy/n4TbzXiuxxQTX6CgUApVas20q8dvoZYRTa0EVMgVMpLTs5g2az7vGzSjXrMOWE6Yybbjl3A54c2mPWeYu2Ijrboa8b8fNsSgaWuat+pA1x692LBxE15XrjDGzhYr8yEE3b9HZloK9qNHMXLkCHx8fLhy5QoDBgxg2LBhhIWF6cooJCUl6SQsLIzAwEBu377NzZs3uXnzJjdu3OD69etcv36dqKgoYmJicHNz0zlnBwcHc+PGDRYsWMC+fftIT0/XlV04d+4c5ubmrFixgtTUVF3Ib48ePXBwcCA8PFznqCoQCNiwYQM9evRgxYoVZGVloVarkcvlhIWFYW1tzZAhQ9i+fTsREREkJyeTlpZGWloa58+fx9LSktGjR/Po0SNEIhHh4eGMGzeO7t2789VXXxEUFMSxY8cYOHAgRkZGrF+/noSEhDr+LK8TOmKi9TEpqvnLiMnv8aX5K/1tXpcWSk9M9NARk/MBTymV64nJ24KXEZOX4XlflNqQoSEoORUQk1vDjah8Lj1IxS8ih+CUMtJKFZTVgETNc5EF+tahwTPfnGe6KgVQIVNyxusmg0aMp5uJBTOdN7Jp/2k+n7WCZl0H0KBFdxo2b0+Ldh0xHmCKpZUNI0bYMX78eI4dPUpi4mP279uL2eBBTJ3yBZt/+AETE2NmzpzJgwcPuHTpEkOHDuWjjz6iQ4cOumKVz4u2kGXnzp110qFDB9q0aUPHjh3p2LEjzZs3p0GDBjg5OREZGUlVVRVPnz7l4cOH3L17lxs3bnD+/HnGjRtHly5dWLt2LX5+froaUtOnT8ff35/Kyso6TuxJSUmsW7cOQ0NDHBwcuHjxImlpaUilUrKyssjJyaG8vJzq6mpdAkKlUklAQABjxozB1NSUjRs38uOPP2JmZsaAAQPYunUrsbGxyGQySktLOX/+PMOGDaNp06aMHj2aCxcuIBQKX7tJp7bG5Gp4Do/zJX8ZMdE+4991HX/Bc5DL5SQlJREcHExmZuZ/LSxbT0z0oFIN1yJy+fleop6YvEX4vcREC+3A+MvetV6roUYBJZUqnuTX4J9YzpWwQrwji7ibKCQ+X0pxNch1oTz6FvLLE1WhBiQKKKxQEZ9TycWgp6za48G3e07j++gxD+PSOeruyfQ5ixk/yZEpU6eyZfP33Ll9nZSkZFKT08nMyKS0VIikRk5yehZrNnxPL6M+tG7bnk5durJv/36ysrLw8vJiyJAhtGrVis8//5wpU6YwZcoUJk+ezOTJk5k0aRIODg44ODgwadIk3eeTJ09m4sSJjB8/nsmTJzNhwgSGDh1Khw4dmDp1KtHPMr8mJSWxdu1a+vfvT9euXencuTPt27dn4sSJrF27lmnTpjFixAg2bNhAYmIiYrH4BS2FUqkkLS2NvXv3YmNjw/Dhw9m9ezcVFRV1tqu9n0KhIDAwEHt7e7p27cqwYcPo168fX3zxBWfPniUrK0sXnq/NIOvj48Po0aPp06cPK1euJDMz843RmASmVnMlOJO4nEqdefRVe41CoSA7O5s7d+4QGRlJRUXFr07eKpWKyspKHj16xK1bt8jMzHzliVskErFq1So+//zzOgVX/9P42xGT58M2/922KpVKJ3+GYarVap2T1+tm7H8UZQrwDsnA42683sfkLcJvaUJ+a59f21s7cMrUUCGHgko1MZll3IjMxDsklRvRuYSllZMuVFMm12hbVCpApXjmbPty11nNezXqt6BF1X2Wz97p+nOtb1WafDI1KhDJIUOoJCy9gusRWXg9TOZGWCphSYVkl0iokkONEqprFJRVVFMmqqSsTIRELEbxTFvwvP+sCkhNy2Dnrt0sWLiIrVu36RKJxcbGsmXLFlxcXCgoKKCyspLKykoqKip+l5SXl1NZWamrM7Vnzx5d8jS1Wk1eXh4eHh4sWrSI2bNnM2fOHNatW0dgYCC3bt3CxcUFb29vXdTNr4252po2d+7cYePGjXh4eFBaWlon0q72Pmq1muTkZA4cOMDWrVs5ceIEu3btIikpCZlMpiMctfdRKBQkJSXh7u5OeHg4EonkjRh/pcCD1AquhGQQk1utyyH0R8dV7XOVSCR4enpiZ2fHt99+S3Jysu672nOYUqnUZZGeNWsW1tbWXLp0iaqqqjoaref3VSqVut9Fa5KTSqWEhIRgZmaGra0tQUFBALocNi+T2vPgnyGIfzti8jqgdT7z9PTk9OnTpKamvu5L+kMQysE7JJOf78VToteY6KEduNCQj1IZPCmWce9xMZdDsrgQlIZfRA6JudVU1NLs1m4vfx9iUrc31P6kTApx2VXciMji8sNULj/K4F6CgMQijflLqgSlNuEMKlTqZ9Wm1RpCp5WXPRbtpCGXy6mpqUEul+sGX62/hkwmq7MYqj1B/V7R5u7RHks7sWiTotU+t3YfbaK43+vroD1W7QnrZURGe27tvWknu9or9F/bR1tx+GXbvA7UAA9SyrgSmk5UzqsRE+1vqlarEYvFeHh4YGFhwbJly3j69Olv3mdeXh6zZs3CzMyMy5cv/+rxhUIhXl5euLi44OLiwrZt29i5cycuLi6sX78eBwcH2rRpg5mZGStXrmTPnj26bX9NduzYwd69e/Hz8yM/P/+Vfo+/JTHx9fVl//79RERE/CZzUyqVJCYmcujQIZ198lVYXnl5ORcvXsTKygonJyedSvRtQZlCY8q5GPREb8r5P4p/p31RAWI55JUrCU0Rci0iB8+HWVyLKiY0Q0qmCETa0Vf94oT+pkN73y/qfbTuwkpkSjVCKaQJ4WFyBb5RRVwMycU3Mo+wtHJyy5RU1oC8TiFFamlc6rz899f0GibY/8Y5X6Yt+a1z/9r2bzJqgOCMSrzCMojMrqLmFUw5Wo1TaWkpBQUFuLu7Y2FhwYIFC4iKiiInJwehUEh0dDS7d+9m/fr1rFu3ju+++46FCxdiaGhI69atGT9+PKtXr2bdunWsW7eObdu24efnh0AgICUlBUdHR12F8yZNmmBgYICBgQH16tXj//2//8f7779Pw4YN+fjjj2nQoEGdbZ+Xxo0b8/HHH9OyZUvmzp1LZGTkK5l+/nbERKFQsHTpUoyMjHB1da2zyngeUqkULy8vTE1NmTp1qi4+/3mo1WqkUikikYjS0tIX5OnTpyxZsoSePXuyZcsW0tPTKS0tRSAQvFRKSkooKSnRvRaLxa+105Up4HpUHp5BTxEq3rYpRY+/Ei8nJ798ogTESiisgujMcm5F53E5OAPfiBweJgtJFcgplWiifhQvHOftggqNw2+lHIrEkJgv4f7jIq6GZ+Mdmsnt2HzicjVFE8Wq5zMma81Add++Kp7XMPynoy6eJwOver6X7fdHj/WfuO//NGqA8GwxvpE5ROeKX0ljIpVKdZXSnZ2dGTNmDG3atMHY2JjZs2ezfPly9u7di6urKyYmJnzyySc0a9aMpk2bYmBgwHvvvcc///lPGjRooPuuWbNmdO/ene+++4709HSEQiGXLl1i+/btbN26lR9//JHNmzczf/58jIyMaNy4MY6Ojrp6R1u2bGHbtm0vyI8//lhHduzYgY+Pj15jUhtLly7l008/5fDhwzq7mVKpRCKRUFJSQnFxMaWlpWRnZ3Pq1Cn69OnDmDFjCA8PJy8vT0cYhEIhUqkUmUxGQEAAK1euZOLEiTrHsgkTJuiqzrZp04aPPvoIU1NTJk6cyIQJExg/fjwTJkz4Tfniiy+4ePGizjP9dUBPTPSojV+dQ9Wgax1qFXI1CKWQVKrkUYYY39hSPB5m4xtZQExWFfmVUK0Epeota0lqNUo1lEshS6gk8IkQz0fZXAzJ5+bjMsJypKSWqxHKQK7U1C9CrUSbBfYXo48e/1dRA0TkSLgWlfvKphyxWIyvry+Wlpa0bduWJk2a8O6771K/fn2aN29OixYtmDJlCsHBwfj5+XHhwgUuXLjAuXPn2L9/P4MHD6Zz584sXryYM2fO4OnpiaenJ97e3kRHR+ucluVyORKJhOrqaqRSKenp6Wzbto0hQ4YwadIkbty4QVZWFrm5uS+VnJwcsrOzyczMpLi4mIqKCiQSCXK5/JX9TP4WxERrgxOJRAgEAubMmUP37t3ZvXs3+fn5iEQikpOT2b9/P3Z2dlhYWGBlZYWlpSWGhoY0bNiQFi1aYGZmhpWVFTY2NroEQ0FBQVRVVXH27FnMzc116qwGDRrQsGFD6tevzz//+U/+8Y9/6D4zMDCgUaNG1K9fX7dtbWnYsCENGzakUaNGNG/enB07duiJiR5vLuqoUX7JAqv9SoEmtX1RhYon+VICEoo5fz+Z84HJBDwtIaVUQZkcnTr7TYQajSuIVA0lUoj7/+ydeXhb1Z2/mTLzY1qmLcx0GCAFQlcoEALPlHnKlLa0UDLQFmJLchLoUMrWUmjZS9iGtmxZyeJYsgmBsGVPnMTZvS/yvtvabcuW9022ZO269/39cXUleUlKiBPb8X15DrFlrVf3nvM537UjwMHKdj7NMbFH30S+oQ9jd4B+n/RZA8h5TbIoCTNR9yGF2clkCJNwOExXVxd5eXns27ePF198kXnz5nHPPffw3nvvkZ6eTnZ2Nh0dHQwMDDA4KLUs6OnpoaqqikWLFvH973+f1NRU2tvbcTqdOJ3O6P2Ghobw+XzA6PienTt3ctNNN/Ev//IvfOc73+GWW27h9ttv57bbbhs3br/9dm6//XbuuOMO7rzzTh599FFqa2tP+fjNeGEiR5GvX7+epKQkFixYwJw5c/jSl77ENddcw09+8hN+85vfsGrVKp588km+/e1vc8UVVzB37lyuuOIKvva1r/H//t//4/zzz2fOnDnMnTuXK6+8kssvv5ybb76ZjIwMvF4v7e3t6PV6jh49yqFDh9i/fz/bt2/niSee4D/+4z+4/fbb0Wq1HDx4kKNHj0aHXNxIHkeOHOHIkSPRgkeHDx/GarVOaYrbQAgOVLazs8DIYOjEsQYKs5ToCTHGHiCft6JkOAgBfV5o7A6S3dhDemkzOwpMZFa3U9/moWdEsqLEFvbP8RYm54PERJUIgwFo7hcpsw1xoMzOjgILGeVtFNuGaRoQcIbiujPLGUiigChK1qNYVpJy1ShI53dMmHjwcWrzqs/nY8uWLdHgV6vVSldXF++//z4JCQnRlOyf//zn3HHHHfz4xz/m4osv5sILL+T666/ntttu4+c//3lURNxxxx0sWbKE3NzcqJvQ5XKxa9cufvrTn/KVr3yFf//3f+eyyy5j7ty5fOMb32Du3LkTjiuuuIKLL76Y888/n2uuuYasrKxTPn5nhTBpbW3ljTfe4Mc//jHXXHMNF110Eeeddx6XXXYZ11xzDb/61a94//33qampoaysjJKSEoqLiykoKGDZsmXR8sa7du1Cr9dTXFxMcXExNTU1DA0NTRh3EgwGyc7O5n/+53/4+te/zquvvkpBQQHV1dUnHLW1tdTV1dHV1TXl7brlE7I3APsqHOwpMONU2mAqTAIiMBIUcTgDVNjdHKjqYmthK3vKuyiyuWgaCDLki2StRB8kxv6dYF4aZ8kTxfHRpONuG/v3SDE0QcQXhI5hqOn0cqhxgE/0vews7SbPNIS5y0P/SJhAWIodESZ4KQWF4xEAKtq8ZFS2U+Hw4uXUJKvX62X79u3ceuutPPnkkzQ2NlJXV8dLL73ED37wA66//vpRY/78+cyfP58bbriB+fPnR2+fN29edNx6660cPXqUUChEV1cX7777Lv/1X//FP//zP/O9732P119/naysLPR6PXq9npKSkglHcXExaWlp/PCHP2TevHlkZ2ef8vGb8cIEpLzqtrY26uvrKS0tZfHixXzzm9/kxRdfpKSkhMLCQo4ePUp2djb5+XJMDKMAACAASURBVPkUFRVRUFBAZmYmb7zxRlSYbNmyhdzcXPLy8sjLy4vez2q14vV6o6/n8/moqKjgscce44ILLuAf//Ef+da3vhU9EcYO+SSZP38+N954IzfffDPr16/H4XBMaTCXLEw6RmBPaQvphWYGA1P2dhTOGqR9oYiUz+IOQZdLwNzlIb+xh4zSZjJKmykwdNPYMUKXG0YE6b4CRMTFeKP3aFEi/3Ki6ydmPI8UjccbcdXY+oIUWwY4XOlgr97M0So7VS3D2AcFBnyS2ykMCOLMq0ukMPVMhjCJP+/8fj/btm3jRz/6EWq1mg0bNrBy5UrefvttcnNzKS8vP+4oKipi9+7d6HQ6du/eTVFREeXl5dTV1TEwMIDRaGT58uXccsstfOtb3+LSSy9l3rx5vPbaaxw8eDC6Hubn5084cnJy2LBhgyJMxhIfsR4IBHjiiSe47rrrWLduHYIgoNfrue222/ja177GhRdeyJe//OVovMd5553HOeecwxe+8AW+9KUvjYoLkWNF/vjHP1JfXx8NFCopKeGRRx5hzpw50diUu+66iwULFnDnnXfyi1/8YsJxxx13MH/+fC655BJeeOEFbDbbtBAmDpckTPYX2xhSmqMoTApxhuuIFSMYFhnyQ7sbqtt8ZFS0sjXPxL7SVkqsgzQPBHCFjt+fZ5woOaEwid0uIBW86hgWqLQ7OVhlZ1tRE7tL7OQa+rH1hxkOSNabcHhsZo0SbaVw8kymxcTj8ZCTk8Ozzz7L1Vdfzfnnn8+VV15JQkICW7duJRA48W5yeHiYlJQUbrvtNt555x2Ghoaif6uvr+fhhx/m8ssv59Zbb+XNN9/k/vvvjwbann/++Xz5y1/mggsumDBeUh5f+cpX+NKXvsR1112nCJOJ8uCDwWBUmOh0Otrb20lPT+fBBx+MioYFCxZExx133DHqd7n9tvy3u+66izVr1mCxWBgaGiIvL48HHniAr371q5x//vnceeed1NbWHjeVWB59fX3REs1XXXV1VJhMZWyJLEza3bC3vI3DFW0MKa4chcngBA51QYRgCJw+MHV7OVrTxafZVrYXOMgxDWPsC9Pvg8CoeiCiFM8y0fNO4LoRRal8/pAfmpwi+mY3eyq6+TjHzN5SO5V2F50uAXcgTDj+oUqAlcIkIAuTvWWtlNpHPpcw8fv92Gw23nvvPa6//nq++MUvct555zF37lwefvhhDh8+jMlkIjMzc1z8ohzDmJGRwbZt23jggQeYO3cu9913H9u2bSMzM5O8vDw+/PBD7r77bhYsWMDWrVuprKzk6aef5hvf+Abz58+PBrXedddd3HXXXdx5553jxoIFC7j55pu59NJLFWEST/yH8Pl8PPbYY8yZM4d7772Xp556iscff5xDhw7R2tpKR0cH3d3do0ZnZyddXV3U1NSwefNmtFotpaWlOBwOenp66Ovrw2Kx8MEHH/CrX/2KG2+8kVtuuYWLL76YG264gRUrVrBx40bS0tKOO1JTU1m9ejW//vWv+cY3vsGf//xnrFbrGek7cKLjpggThdPCqMV9gtVelNwr3jAM+KFpAIosbvaXtrG3uIWj1e1UNg/TOijiDkr1RI47V8X9IShINUUcQ1Btd5FT38Xekmb2ldrJMw5i6g3THQnADUXf2/HfpoLC5yEAVLZ5SS+1U9zsxvc5MtJcLhd79+5lyZIlLF68mAULFjB37lwefPBBSktL6enpITU1lXnz5jF37lwuu+wyrrjiCi6//PJRY86cOdGQgwsvvJA5c+bwve99j/vuu48jR46QkZFBcXExHo8Hk8nEs88+y89+9jO0Wi12u52urq4Tjs7OTjIyMvj5z3+uuHLikdOFS0tL2bBhAz/4wQ8499xzufDCC/nJT37CunXrMBqNeL3eaB+A+CGXQC4rK+O+++5jwYIFHDx4EJfLRTgcpre3l+TkZG655Rbmz5/P66+/jlar5dprr+X888/n4osv5pJLLonmlk80LrnkEi666CK++tWv8q//+q/TVJi0KsJEYRKRXSECYmTICET0hCj9EBLAFYIOF1S1BTlcP8yu8m72lHeQ19CLpSvAoC8iUJAjWGKERMk60tzrJ9/Qy67SHnaU93Kg3kmZPYB9ANz+SLCtHACrKBCF00QAqGrzkV5ip8jmwvc5TrVgMIjBYGDfvn1UV1ezadMmfvzjH/PUU09hMBjweDzk5ubyl7/8heeff56nn36a559/ftx44oknuOWWW/ja177GD3/4Q5544glee+013n//fZqbm/F4PNGF3WAw8Nxzz7FgwQI++uijaPfnidZNeQQCAQoLC/nFL37B9ddfrwgTmd7eXjZv3swvf/lLvv71r3Peeedx0UUXcc8997Bv3z5MJhMff/wxr732Gi+++CJLly5l6dKlvPTSS7z88su89NJLLF26lIceeoirr76aSy+9lKSkJJYuXcrLL79Meno6f/vb33j44YdJS0ujo6ODrKwsbrrpJq6//nqef/55VqxYweuvv87f/va36Hj99dd5/fXXoxXzXnrpJRITE5k7d+70FCaVdkWYKEwyE/tHxk47soQJIzXGGwpAc3+QEms/+8qa2aW3caimi8o2D+0jMByWAlldYej0QGWrmwOVDvYUN7G32EaBoRdbX4gBv1R3JDzu1RVRonD6CAI1Di/7y1opsg5HhcnJnnVybRG328327dv52c9+xpNPPonJZIr2IRoYGCA3N5f33nsPk8mEx+OJ9iby+/10dnbyxhtvMG/ePF5++WXa2trw+/0EAoFxVXWNRiNPP/001157LQsXLuTPf/4zL7300t8dDzzwAFdffTXXXXedki4M0gewWCw8//zz/O53v2PVqlX86Ec/4rvf/S46nQ6AiooK7r77bs4//3zOOecczj33XL7whS9w7rnncs455/AP//AP0QDYc845J3qfc889ly9+8YusWLGCiooK7HY7brcbgPz8fG6++WbUajUdHR3R93Ki7sb9/f1s2rSJa665ZhoKEweHK1uU4FeFKUby2cg1UdxhaPdCWesIGdVdfJxnY0tBM0fr+yhq8nC0vp8tBU18WtDEvspOylu9OFxSls/YkviKFFE4UwRFaOgIcKDCgd7mjgqTqM1wrF7/OyfnyMgI27dv56c//Sl/+tOfMJvN0b91dnaybNkyrrnmGpYsWcLevXvp7e2VXkYU6evr46233uK6667j1Vdfjf4tHnktMBqNPPXUU/zbv/1bdC2MXxdPNP7pn/6Ja6+9luzsbKW7MIDb7aa6uhqbzYbL5eLxxx/n2muvRavVIggCfX19ZGZm8t577/Hmm2+yfv16UlNT+eCDD9i4cSPvvvsuGzdu5MUXX+SGG25g7ty5/PGPf0Sn0/HBBx9QW1sbbactH7C8vDx+8IMfcNddd1FeXk5nZ2e0NK882traaGtri5bubWxsZOXKlVx11VWKMFFQGEV8BowY/V0UpBPSG4JWp8Axo5vUnHbeymjhzQN23jzQTGp+N5lmLy2D4A7Kc7xUiVUUhbhnU8SJwpkhKIKpO8yhyg70thH8p1GYeL1eamtreffdd3nkkUd47LHHKC8vl15GFOnt7eXNN9/k2muv5ZVXXqGnp2fc88cLk6effpobb7yRRx55BJ1Ox8aNG0840tLSWLp0KTfccAM33njjqKJtn5ezQpiM5U9/+hPXXXcdKSkp0bbZ4XCYlpYW3n77bT7++GPq6+uj1g+5lXdpaSkLFy7k+9//Pvv374+KkXhkFZibm8t//ud/cuWVV/LLX/6SpKSkaG+c4/XIkQNnL7roIp5//nmampqmPCtHEARaBsPs1DdzqKJZESYKU4RIpHIIRH4KIlk+erxg6Q1TYB4kvdTB9qJW9lX1crB+kJ1lHWzVO0gv70Rvc2MdEOkPSHVIQsRcOCIiolIyXuEMERTB3BPmcGXn5xYmgiDg8XhwOBzU19ezbt06br755nHCBIg2mq2vr+fw4cNUVVVht9tpbm6msrKS5557jmuvvZa//OUvJxQmBoOBZ555hgULFrBly5ZoqxR5HZQ7Hnd3d9Pc3ExTUxM2m41du3Zxxx13cOutt6LX60/5+M1oYTJR50tRFKOdfjds2BAVJnJwrHzQ1Wo16enp0QM/VpgcOHAAv98/7jVlIZGdnc38+fO54IILoqXsx5bplSOkL7vsMi6//PJoCfwLL7yQ5557DpvNNqXVX2VhYusPslPfzLHqVoanzoCjMJuJFlWLuHAE6ByBGoeH3SVtfJRlYk9JK2XNLloGQgz6pMJt/T5oGhApsgyxo6iFj3NMHKntwNzroz8AHjE+vkQRJgpnhskQJn6/n7KyMhYvXsy8efP41re+xeWXX86rr75Ke3v7hK8rewieffZZ5s2bx/z587nmmmu49NJLuf7669m0aRNOp3Pc42Rh0tjYyJNPPsntt9/Op59+Om4NDAQCGI1GXnzxRW666SZuvPFG5s+fz7e//W3mzp3L73//e+rr60+5PtdZJ0wAnnzyyagwCQQCUYuI2+2mo6ODvXv38uijj7Js2TKam5ujj6usrCQhIeEzCZPc3FxuuukmbrvtNo4dO0Z9fT01NTWjRn19PUajEaPRiMFgoKSkhLfeeivadrq5uXlKm/fJwsTa6ye9rI3chk5cU2fAUZjFiEiTuTMA1j7IbhxiR5GdjzMNHK5so84hVYj1RUuZxE7UMFL6r2NIoNruIqO8lc3ZRnaVtlFi99I2DMNBxZWjcOaYLItJbW0tarWaq666innz5vHQQw+Rk5ODy+U67ms7nU5eeOEFrr32Wq666iq++93vcuONN/LMM8/Q1dU14ZojC5PW1laWL1/Oww8/zIEDB8bdVxRFbDYbL7/8MvPmzeOqq67iO9/5DldffTX33HMPxcXF0caAp8KMFiYyfr+f1tZWKioqyM3NJSEhgfnz55OWlkZfX9+oDxkOh/H5fFgsFsrKyiguLiY/P5/c3Fx0Oh233norN910E0ePHp2wol68MPnhD3+IRqOJBr/GI/v2Kioq0Ov1FBUVcejQIV588UW++93v8sYbb9DZ2TnllV9lYbK33EG+oVsRJgqTgjjhzDvGLYrUQG8oCK1DUN3mJau2i73FzewvsVNoGsTUHaLLJTISXxF2bCdfUXq1EJIVpcMN1e0+jtV1sbvIyr5iGwWGHkzdAXq94I0vfz9hftDff++KxFE4EUERTD1hDlV2UtTkiQqTKJ8xxsTj8WAwGCgvL6eiooLm5mZGRkaOu27ImTp2u52qqioqKiooLy+nqqqK5ubmUZv5iRI1AoEADocDi8XC4ODguFADURTxer3Y7XZqamqoqKiIvobBYMDr9U5KeMKMFyaiKNLZ2cmGDRv4yU9+wty5c7ngggu46667yMzMxOPxTPgl+P1+srOzuffee7nyyiu54oormDNnDnPmzEGtVkdL0I9Fvi0nJ4f//u//JikpaZRZTX4Nn8/Hnj17uP322/nmN78Z7Vh8ySWXcMMNN/Dpp58yNDQ0LWJMFGGiMGlEd4Zy3RKBaN2QaJM+EMMCAyNg6AqSbXazrayHzUWd7Kvtp9Lho2MoxEhgTJO/k3gLQQGcfmgZCJJvGWJHWScfFnVwoKabqjY3jqEg3qAcEis/Sv59ojF2olTsLwrHJwgYe0IcrOqksMkbq2PyWXXvNOVMbaRnvDABGBoa4tChQzz99NMsXryY++67j82bN4/qCTBWnPj9fhoaGnj77be59957Wbx4MUuWLOGZZ54hMzOT4eHhCV9LFhIGg4FXXnmFtWvXMjAwMO4+oVCI4uJili5dyv333x+t3vfb3/6WtLQ07HY7oVBIsZgonF1EhUlcHowYKUMPDIUk60h5s4vDVR3sLmoio7SFYnMfTb1++nyRqqyTcFmIQECUCrd1ugUa2ofIrGljT3ET+8vbKLI4MfUEGQhKvXRiFhTZIiNELD/S5xBHPXMsUFdBYSyKMDn9rzPthcnJHKz4+wrCyXcOPdH9xz73iZhKS4lMvDDZV9GuCBOFk2L0fCqOukG2JwhILpahIJi7feQ29LCrqImPcyzsK22lviPAQEASEJM6OcvXlygiiFHbDS4RWoYh3zTEtnwrW/OsHCy3U9k8SPdIGD8TrReKMFE4Oc5WYXKmmHXCZCa91ulmrDApMPYoWTkKn5nRC3ecqwbJx+4OQvswVLT6ONrgZGdpF7uKW8lr7MPWF2bIC8Egkz4xxztkok8bl/UjiODxQ4czTFWLm/TSVrYWtZBe3U2BzYVtUMQZkCrQhkX5841xRymuHIUTEAQaOv3sL3eQa3bhVYTJSXFWCBOFz4csTMzdXtLL2sg39igWE4WTR5SsJWERfGHoGYHGbj85DV3sLW5if6md3IZe6hw+OoZhOACBMHG9cpj0Cfo4oYGjfguJUrBsnw+M3T7yjH3sL7eTXmwjs9ZBncNN5wiMhI5X0l5ZTRQmJihCY6ePvaWtZBqcijA5SRRhMouRhYmxy8Oe0lYKTb2KMFE4OSLzhzcM3W6obh5if5mdrcWt7K3uJc/ixtovBaKGo/GlwjSbmEXCoiSY7E4obXFzsLaXXSWtpJfaKbX20TEcxh2KbyIYe6yCwlikyq9B9pW1jRYmCp8JRZjMYmRhYuj0sLe8nTLbAG5FmMxSYsvtcXWCEHHchAVCgoAX6AuCsU/gcG0Xn+ab2V5kI7uuE4PDRb9X6rI6k5weIlJMjDMA1h4vhY2d7C6ysjXPwqGaXuo7QvQHpADdMIAY6cgjjr1wROSOyiLi9NBfCmeMoAhNA3CgsoNMoyJMThZFmMxi4oVJenk75bZ+RpQYk1lKLPtkQlNGxFLgF6Usl45hgUq7kwOVLWzJNbC3rIUC6yDmSEn4kBi/CM8EtSuCGEZObRaR4gRcQWgeECi1ucgoc7Atx8S+EjuVdi8dbimOJohsDYo/ZidKNVY42wmK0KwIk8+NIkxmMYowUYgxdjEVJGuAGJbq8gShxy1Q1xkky+RiZ3kPO0vbyDL0Ud3mxuEM4g1L1gZBjD2HiBCpaTIDZmZR/p8QsYBEfhYgEITeoSC1bR4O1w+ytayP3RW95JqcUuE2d5hQWECUP7soP0csZXomHAKFySEoQnO/JEyOGZ14lO/+pFCEySxGESYKMrHNfmyHL7s0WgZEyptdHKxoY0eBhYxyO3rrAKbuEXo8Al4h4tYgPrFWjP4njLW+TFsmsBaJo0w/+AUY8IO1N4Te3E9GeSs7Cywcq+2kus2NfSjMUEj2eilRjrOVkAgtijD53CjCZBajCBMFmXinQ0CAQS/YegMUGPrYkm3kw2ONHKzqorFHoC8IblFy68Ta7km9fOV4Chi7FE/3RTnmyjruOxVjQkUQpQaB3UEw9ENGZTubjtSys8iC3tJL+6Afd1CqzxLL6Jnux0BhslCEyamhCJNZjCJMFGRCSFkpLQNhSptcHKju4dP8ZvaUtFJsHcA+GGbIDyEhklQjxi+2xyvfLk5w23Rn/HseJSeisSSxQFm/AE4fNA+EKLIMsqOomS35zRyq6aWi1Uf7kMBIgJlzCBROGUWYnBqKMJnFyMKkvt3NntI2ypsGcCvCZAYx0T5cnOAuEdfKmMyRYCSQtdsj1VwoMPZzsLyVfcU2sus6qG/30u4CZzDW1Xeilzi+u2ImujDGv+fP8u7lwODBALQOQ3mLi8PV7ezRN3O4opViUx+23iADPqlxYSj6nLKVZmxl2fHfquIUmjmEREnkH6hs55hxSBEmJ4kiTGYxoigSDoeptjvZWWynyu5ULCYzCiH6/9j+Pq5nbnzciCggiFK0R1iAQAjaBgKU2ZwcqO5mu76d3eU9FDV5aRkUGfZLtT3OpkrHZwoR8IShxwuGnhDHGgbYUdLBjtJ2jtX30tjho88bcYWJkqMnLAhjvsPRVqbP0lZQYfogCZMAByodHDMOK8LkJFGEySxGFiZVzYPsLmmlrt2tXEAzivHCZLzbIXbvIDAQhJp2D4erO9mtb2FfsZ38uh6M7SP0ecEdlhbMEMridyqERWlxCgiSSOlyiVS3DHKkspXdxc2kl7Sgtw7R4pT69/jEaJmYWCwLx+91rHw30xtFmJwaijCZxUQtJi2D7ClzUN8xgmcmlJxQiDDa1TB2CEjxD64gOAYEqmxODlfY2V1kY5e+hQLTIC2DsZLrgghhuemdeIIgUIXPhiAiF14TiQjDANR1+DhU4WBngZV0fQu5Dd0YOr0M+pEynOIOuiJMZiYxYdLGUYPiyjlZFGEyi1GEycxmlKE/rm6GIIInCF0ugfp2L1mNg+wt7WZvSTfHanppaPfR6wZvUCQsxMsYZck73YiiFEA8EoTmvhB5piHSyzvZqneQUdVPaYufliFJTIbivooThRgrTD9CItidITIqWsmo7VOEyUmiCJNZjCJMZjbxl24YabftDEDzoIjeMsyeoib2FNrIrOqg1j6CvT/MUEBy1cRCiaTOuaODL1GiK0+V6PEb42ATYz+HkFxnXS4wtHvJbxxgX3Ere4vt5DR0Y+oN0uMHrxgTI5Eex4owmeaERHC4RA5UtpFRowiTk0URJrMYSZgIVLc4FWEy7RmvFASkxS0IDAbB0hsgs7aNLdmNbC9oJrPBSUOnQJ9HEiPiuOeLLXfjnl1J/Tg1osdujIwQRUQxjFxVF4SoFWXID9ZekSKziz0lrXyaZyajyoGxa4RBr4gfqfdQmLG1UY7/FhSmhhDQMQIHqxyKMPkcKMJk1iEvSNLmLRyGquYh0svaMXR58ApE/65w5ogtMqP3wqIYf7u8X5YWssEAtAxBkXWIHUVNfJxjYn9FO3X2QXqcXnzhzxLEqqiPqWGC4x75VQB6XAKNHSNk1jj4JMfA1qIWckxOLAOClHIsyGdCePzzRJoAyGeL8u2eecLEC5N+ZcN3kijCZNYxXphU2JzsLnFg6BzBpwiTKWF8xYrRC4ooxtUdcYO5y09eQzd7iqzsLrKR09BNfZef9hGUSXCmEq0sK7nV/AIMeMHYHSDHMMAufRO7Cs1k1jhoaB+hwy3iCkkWM3GUzom1AlBk59QgCRNRESafE0WYzDrGC5MyywA79XZJmETNzwpTh7SsRBcWEQbdYazdAYqsXvZV9rKjuIPDtb1UtHppGgSnXyp/ruyQzwJEYsHMohTMPBwA+xCUt/rIqBlgR3E7+yq7KWpyY+sLMexljPFEkSRTiSJMTg1FmMw6xgsTvbGHnfpWmgZC+BVhMnXEXYshJMtHpxvq2v0cq+1hR76N3UXN5Bt6Mff46fFI95HXo/GOIIUZjSxQGJ3+3e8FS5efwsYedhfa2KNvJqexj8auAN1e8MoPjZVDUTjDKMLk1FCEyaxjAmFi6GFncSvNg4IiTKYQkUjPmhDYB8NUNQ9xuKKNT7ON7CpsptjmonVYaqDnE+NrvMYCLJV98sxndBByXOk8MdakKIxkRWl3g97qZHuBhU9zDByodFDV6qVjWCrsFiQ+A0vhTKEIk1NDESazDkWYTDdEJKHhcAmU2l0crOthZ1k7O0tbyWnsw9oTZsAn7ZYFQcqgEUR5uVIqXJw1xDojxt0W12JAvk/kmxci4nQkBN0ekbouH0cbetlW7GBXsYPsxkEaOoL0eiAYvaSVc+NMoAiTU0MRJrOO0cIkGIZCYw87iltpGRQIxAkTZQr7bIzNrJ3wuI25MYxUw6LHC9b+EIWWfg5VO0gva+FwVSsVLYO0DQkM+qUMjJBsIYnsoEXxeE3flG9t5jLRd3e8pODYLQKSZWREhD4f2Hr9FJt6OVTWwr7iZjJrOqiyu7A7BVwhqbJstK6ebIk5wTtSzqiTJwx0jYgcrG5nf62TEeUgnhSKMJl1xISJIEq9PPKNPWwvbsU+KBCMCBNlQvoMxKV3xtspjhd/KCItCr4w9IyIVDvcHKpuZ3tRE7vLHGQZBmnoEejzSfcZ82wKCp8JURTxC1L2VnWbhyO1PewsbmOnvoX8xh7a+vyMBEfHygrx8ShjzlnlDDx5wkD3iMDB6g721g4rwuQkUYTJrEMRJpPHcY5Q1HghjrqbT4TWYchq6OOTHDNb8q0cqW6nummAXlcYvxAfDyASX7dEQeHvET+ZC4JU6yZEJKNnIEiptZ+MshY+ybWyt7SNqjYfPV7wExHX0YhZFAPcKRJGcq9lVDrYXTXIiHIZnxSKMJl1TCRMutleogiTk+fERygkgDsAnUMCDW0ucms72F9iJ6PcQWZdD/XtPvq8Y4MT5UBHJcdG4eQQRTE2ocel5YiRYFmvCO0uKGl2caiqg3R9CwfLWym29GPt9dPvBW84Tgor4uRzEwZ6fZBR6WBnRb8iTE4SRZjMOmLCJCyAPwy5jV3sKGmj1SkSiBRYU+ajz058vIeIdAwHPWDrDkjlxct72FLcSUZNP6UtXlqdIp5QXMJF5JGSIJmSj6BwVjJRYLRUqK/fC4auEFlGN9tLu9hS3EFmXT+NDh+9wyLBIHG+SeWkPFnCwGAIDlZ3sL2sF7ciTE4KRZjMSqQvXRYmWbUOdpS00elGsZicFNIREpDcNM6gtCOtavVyuLqTHfkW9pc0U2p10tQn0OeVdq0hImZzBYXTRCxkdnS2lhh3q0+A4SC0OUVq7W6OVDjYmWdhX4mdMuswbYOSGyigLKonjSJMTg1FmMxSRKRKoR4BDlW3s7Wkg3ZvrJOpIkzGEjsi8sQeRjJ9DwWhzQUlVie7C218mNnIvop2ylu9OFwwEsmqUVA4U4w/W0d3jxYFuYuSdI+gCH1+MPbA0dpetuaY2JFrpqChh5b+IE6viE+U7vfZ19jjZxmdrciNNf1AXxj2V3ezpWyAociGZKLORgrjUYTJLCQsQP9IGPtgCFNvmE/07aTmdlLeDdZB6HaF8AZnmcT/u3NorKdrSAR3EBxDIjXtPg5Ud7GloIUd+jZyjUM09Qeiab6RaJ7jvICCwvQiDLj94HAKVLS4Sm92NwAAIABJREFU2FfWxqe5FvZXdFNm99M0IDLsA+EEcdli3LNJzRXir4Ozb2mOZjYBI2GRdlcY6xBU98Lmok50+X3U94F9UKQzEuQ+1sGmzBCjUYTJLEMUwesXKDX3sinTxLIMG89sMfL4R0b+st9O8iETx6rs9LoCs+tCEcf+Io4yG4UBjwhdHjB2+9CbejlU3kJ6kYWj1Q6qW0doHYLBIPijD403nCs2KIXpTuz8DCJVIO5wi9Q5Rsiq7WJPoY29+mbyG/swdvjp9UCACYJlo8SESUyOzOBrYGy20uikO8LAgEfgaE07Gw6b+Ns+K09vMfGnLTbe3Gsl7bCR3IZOnP6pePMzC0WYzEKCAtR2Caw42MSvN5lJeteKKtXConfNvLDNQLZhgH7f6OX0ZMaMZNQHGP0pAiK09gcobRriQE0PO0sd7Clto9AyhLVfpN8vxeqERwWyKvsghZmGfN5KTge5kWRAhEEfWHsFisxu9lX2sbu0kwPVXVQ0OXEMBvGEYnFTsTNeOv9lYTLjr4YTTHYi0md0+aHQ5uevu8wsSWtAnWomKc3C/2pr+OtuE0UtXlyhEz+XgiJMZhdxF0B/AHZW9vGHj40seteISmfiNxsbSM5spWUgGA2CPakxUUntmYIQef+CZOcIIAWvGfsEMhv72F7YwpZsMxkldmpah+kckXaUAUbvBOP9+iITVWdVUJjOTLxiypIlCAz6obHDy8HyVjYfrWdPWRs5piEs/SLOkHSf43lGZ/QV8PfERESd9Ptgc3YLD21qIElnYHGqid9vrGFTjoOuEUn2nWXbuklHESazjcj3HRChoVtg1VEHD75Xz71pDby2y0xhkwe3L4ggCCCGQAyfxIgs7jMMedINiDDshw4XVLWOcLSumz0lTezSW8lp7MXcE6LfJ4kRuTma9GljxmrZhSObsBVhojBzmMjZEhdIEtl4iEjuyqEQmHtD5DT2sru4hfQSO5n13VTah+lwibgC07WB4Oe8Dj+LjhAFAgLUtHl4K8POA2m13J/awIr9zVS2hQkET/RkyvwgowiTWYw7DEcMLl7eaeLpT03sr+hg2AeIAUb1zzjL/TghoM8LjV0BMhsG2F7azdbSLjLqB6lqHZHSfMMCYTEoHRukQlajhUfst3hHjhLcpjBzkC7i8YJ6oqJrkR9EEV8QOocFylq97K0Z4CN9BztKO8g1DdIyKDLsByEUjj1myvmcV+PfnfPkKz+MKwgH6gZ5aUs9z22xcahmCHeAyOZNOGvmztOFIkymNaNNqaNujnThEkUhMuLcBpFZRBCl6qP+EIwEYMAn0ueDXq8UxNniBn0HrDnSwrKDLeQ1B2kfAac3zKBXZMgHIz6RwLhiYBO9T9lqELGexP3lTDP6WI1/B2HAK0jurNYhkZo2N4dr2kkvaeJQZRt6Uy+WHi/9vkjreFGKHxHFE4XxjbeNKPOOwszi+Of1uPlnzNwUFMEVgh4PGDuGyWvsYH95M/tKm8iscdDY7qHLDSPh+JTjyLxxgiaCp4cx6dNxF+noq/jE9p5QGPxB8AQlS+ugF3o90O0BxwgUtgqsPdLCikMOStpE2t3Q55GKLw57wROQHh8e9/FFyVodf2zEUX896zc6ijCZ1kinoByrMGY+gIjDQECqkxGIiBCPXyqF3jcClk4v5ZY+smscfJzdwLuHalizu4zlO8t47RM9L3xQwENrjvDQ2kxe+rCYZdtKWL+ziPcOVrMlq4GsqjaqrAM0dfvpc0sXlC8IfgH8ghjnT5YX7VDkohKjF9CZPF5jDs8o84VAxAQdBFt/iJzGHrbnGdmaa+RoXTfV7T7aR8BH/MSpoKDwWYhfTEYEaB4W0Dc5yah0sDXfyr6SFspsTrpHJBHjF+MDxplYwZ8WVS9NCCcsvS8IIAQRwwJhIdK+I7LBc/qgZwQsXX7KrQMcq2pla3Y9Gw9Usm53KSu36Xnjk0KWvp/Pw2sO8/C6bP7vowLe3pLPmt1lvHeghh05RrKqOyiz9NPU46XbLTIckJp3BsLxjuHxxyFemJytM5QiTGYAsvwYXY9V+jcQCuMOQK9bxNY9QkFjL1tzm1m1rYxXNxXw5416ntLpeWxDEfevyeXe1XkkrcwjcWUBv1pewC+WFXLXMj2/WF7CwpV6VCvySVqew6JVedz3Th6PrMvlCW0Bz24sZOn7Bby1vZz3c5rJbejC0jlMv0cSQcGwvOWQLSbiGBfG6dP4YvQIhSOvSszcLEqTiicEnR6oaPezp9TBlnwb6WWt6G0DWHq9uPySSycUtY6clreqoHDWI4oigigtrn6gzwf1XQGyGnvZXmhja4GNYw19NPaKDEQ2Occ1L56W1Vey7Mbqq0RuE8PROQMRQmERt0+kzw3mriB59b1szTaxekc5r31UwnMbC3lcV8CDG/K4d3UmmhXHWLg8k4XLs1m4PIdfLcvhzrdy+NUKPXevyOXutzNRrchmycpc7l+dx6PJRTyhK+SZjUW88L6eZTsq2ZpjI9/Qj6nbT89IiGG/VPdkokMw+v2fXSjCZAYgRhW+GN31dw0HMXa6yG9o5+NsI8u2lrB0Yy5/1OXxwLo8Fq/MRrM8h6RVRSx6p5SktRWo11WjWl+LKrmOhOQGErVGErQmElMMqFIMqFMMqFIapbGhAVVyLeo1ZWjeKUazuhDV8hySVuZy/7oi/qjL58/vZrNsawmfZBvJa+jA2Ommxx3EHxajDo+Y3eR0Gh/jXUlC1AjrDUPHMBg6/RQYejlY3sbeUjvZ9d1U2YdpGwoxLEiBrNGnAWZ0dpGCwjQh0kOQMJIVsj8A1v4QxdYBDld3kF7SytGaTspsTpr6gwz5xzhPTptJQEQUw9Exqo+QAANusHb5yTP08km2ieVbS3lhUxFP6PJ5cG02S1Zmo1mZh2Z1Eao1JSSsLUO1vgp1cg1qbQNqbSNqXSMqnfSvRteIOrURla4BVUo96g31aNbXolpbiWpNKYmri1CtymfRqlweWJPPH3VFvPB+EW9tKeLDbANZxj5MXR56XWF8o5TI2evQUYTJNEaOG5HrCXjCAp1OLxXWbj7KaeTVD3N4IuUID6zNQb2qkMTV5SQk13J3Sj0LtQYSUowkphhRaY2otCYStWYSdRYSdRYSdBYWRoZKZ0CjbSBRZ2ShzszdOhv36Cwk6MyotCbUWiMarYEknQXVBhMJ6xpJXFdPwjsVaFbruX9NFo9vOMIrH+ayOauOUpODDqc3rvIpnK6LSIwXEaIQtY60DoQpb/GSUdXL1qI2dpd1oG8awdonMOiXJiA5cS/2/pSQVQWFyWC06zkWKxFGCrpvd0GNI8jhukG26h1sL2un0NJPc68Pp0ckJFfMP02mS0EMgxgEMYQghgmERbqHglRanXx6zMhfPyzi9xty+M3aPBatKiRxbQUJybUkpkgbOpXOgipVqv+kSjWjTrWiTrVGbpNGYpoFdaqRpFQDiWkmEtIsJKZZSUy1kZjaJP2cZiExzYwqzYQq1cTCFDML1zeQsKYSzaoCfr0uj4dSsvnLh7lsyaqn1NJHp9OPPyhZfURxchfk6YIiTKYxcuyIJwRtTh/ZjT2s31fD4+uPol5+kMTV2ajWFpK0oQrNhnqWpFpZnGZDrTOj1ppRpZhQ62JDpbPEDXN0aHSNJGnrUemMJOjMLEy1khh9nPRcaq0Zdar0OLXWgkZnIUlnZrHWQFJyJUnr9SSuzmHRqsM8suYAq/dUkm3op6XPiycUcY9M6tGJRbCEkYLqelxg7Q6SZxhke56Vrdkmsms7sHR76fdKgazhsc8xym0zJijlxBG/CgoKx+F4xeflqyskSpbKoSC0OkOU2QbYozezLc/Ikeouah1+2oaklOTABM9zKoiiHMEhdfl2DIYoMvahy6jj8fWZ3Pv2YTTLc1CvKSZpfRWLUxpYkmZmUaqZRWkWklLNJOksaLQW1DozKnmejMyn8s+JOitqnZlFWiManQG1zohaO3r+TdSZSEw1kJjaKA2dSXo+rQl1SgOq5CoS1pagXpnD/76TyaPrj7BmbznZ9Q7ahkJ4hMgG9izzPSvC5IwSi2I/npVSvnCDotT509YXJKu2nQ17y/lD8jEWL89EtaqYheurWLihlkRdIyqdEbXWjEZrRaOzotGa0chiQhcvTuTbRt+u0UoWE5XOSKLOTELk7xqtMSZKdGYStUYStSZUWjOL0mwRcWJBozOh1jWSqK0nYX0FC1fmo1l+hN+tP8ra9AqO1nZi6vEzHJK7F8d/2tHR/WNHrCXH+ORcvwgDPmh1QmXLCJlVHezONbFP34TePIitX2TAF98dNe6ZIwXVxFHCZMz9pk16o4LCzOLvO3Dlq1uyW7pDcmfuEQ5VtLGrwEZGuYMi6xDmvrC0sYi4XePjQuLny3D0ece/4tg5ZTgIth4PWfXd0mZv7WF+veIo6lWFJK2rIimlkUXvmklKM6PRmo4zJppjI6JCa0als6DWmknSmkjSGkjSGsc9RppzDaOGKtWMKtWCOs2KOs2CJs2ERtuIOrmahasLSVpxmD8kH+advdUcrevC0j3CUCRG7sSxwzNnPlOEyRkjtsMfXaI5brEVBOmi8QUwOnrZV2rjrZ3VPLLmKIuXZaJZW45qg4EErS2izE3TcBhRaRtYuL6ae94pJmHFMX6z7hivbisnvawVU/swHq9sQhFADEfScEcfl7AII/4grT1DDHsDIPoBAUEQCQagfwQausLkWNzsruhmi76Ng9U91Dm8DLr9BIJhJYhVQWGGILt9QmGprLutL0SWwcknhXa2lXRwpH6Q6nYvDneYkTAIogCij7AIwwFo6fcx6AnGxY6MDguVRZInEMbYPkhGWQvLd1Ty4LosElbmkPBOGaoN9ai1hshGa7oNI2qdkQStkYTkehauKeee5Xn8+p1M/rqjnL2lTZjbB3B7/KO0R0wcnolYv8lDESZnjJgwif4a94uISCAs0D4U4GBFC29uKeSRtUdIWpnD4jXFLEmuZpG2EY3OjEo3vYVJUqoBtc5AoraBxA3VJKwtJnF1Ng+syeRvn5ZwsMJO22BA2uUI4pjjIJl5ezxQYB4iZX8N+iY3zhAMhqGpP0yZ2cmRinbSS+wcqHRQbHPSPBBmwMdxI9gVFBSmOZFYFAHwiZIbxzEsUG13crSyjX3FTRwoa0FvGsDWF8QZhM4A6Ft8bMptIdvkpC8QmWnDIWJ1mKV5oXNI5FhFK3/9qICH1h5j8ao81OtKUGlr0ehMaKbtnCpZVlQ6yR2v1llQaY0kJtehWleBenUhj6zP4o1PCjlYZqfdGSYaokO8PXrmJBkrwuQMIZ0WEx9sAangl6ljkI0HK3lSm8mS1bmo15ahTqknSWckcUMDSalGNJFAK02qeZoOE0mpBjSpRlSpJhJ0RlSpRhK1DaiSq9GsyuMPG46hO1BJfdsQIyGimb3ysRj0QpbRzRvpFn6nK2V9ZjuHG3o4UNvFTn0z6cXtZNX3U9sZosMLrrBUSO6szZ1TUJgVSDZTUZTT/qWgf78A/V4wdgXIMwxwoLyTPcWtHK7tZm+9ixWHmnlscy1v7LOS2xzEHWkoKCBlBwaA+jYPmw428OT6TJJWZJO4rlLKRkw1kZgqJQeMdXFPpyG7dzRykG0kiSFRZ2XhBgvqtRUsXpnNH9YfRbu/ito2V1w9JpgpgkRGESZniJhHlUhQpaRe/aJAny9MobmbN7cW8uuVh1Gt1qNJaUCjM6LRNkYCp6Sh0plI1FkiAVfTc6hSTah1hkhQbSMarQG11ihFsG9oQLVSz31vH+KvHxWR09BF53CIYFg6Rk4f6JuDvLHXzv++a2KRrpFHNzfyRoaZzUV2shq7sff58YVH7wGiF93MufYUFBTiGOtsiNk7pItaQIox6RgOUWju58OCNv5vj4XfvFvDoo0mfvNePcsPO6hqDzEcAr8o0usNk2fo5vVtlSxZdgz1qlIWpTSijptHVRE3iTSmfv6c2GJiJlEOrtWaUGtNsbVAa0OjNbFIW0/C6iI0bx/ilY/0FDR20TccIBASR+mSmTBFKsLkNCPG/RuOu1EQYdgvYOgY4MPsRp7bmMvilUfRrC1FpW0kQWdiYYpsvpMvHkPUnDddhYl0sUjCJEkrCxMTaq2k8lUpJtTJDSStLSdpeSZPp2azOdNIg8NDxwjkmz0s39/CIxsb0GiNLH7Xyv+mNfDKXjvZLQIDYsRdMyqTZub4ThUUFCZmYmdDNI8HWaYEROgJwGGjj2e2mliU1oA6zYhGV8sD71bxziEL+rYQ5a3DvJ9j5I+6TBJXZKFaVxEJ9DdFglNHB6GqZowwiWRd6kzRZAXp/RtISGlAta6cpJVZPJeWxSdZBhraXAx7xBllUVaEyWkm/kKLT59zjkBhfTvv7CjgwXU5JKwqQZVcT6LWQGKqmYVpZu5JNbMwUnMkUWdGspqYUGstU36hnEiYqFLNaHRGknRGknQmNDorKl0zi7QWFmslxZ+oM5OQ0ohqdTG/XZPNm9sq2JTrYEVGM49/3MSDm8z89j0Tv91k4dFNJl7YYuNIrZNhf6yM9eicHkWYKCicVUQvbpH4mkMC0OkS2VPWyZOfNPCbD6389kMjD2w28ZsPDPzug2pe3WPm5S2V3Lcuj3vWlvCrlHoSdAZU2kiAaySzJmZ5ME3bzV5sw2dGrbNI839kDUjUGbknzUhiaiOqVAN36yTXlHpDLZo1eh5cl83y7aUU1rfjGgmd+bZEnxNFmEwyo10LYrTTjRip2xoSYMALRyodvPx+Pv+7NpfF6ytJSjFElLAJTaqZxFRTRAlbUOmskaAn2XpiRj3lsSQTD3WqnNcfbxqVPodGa5aCzFKlmijqVLNkVVlXzpLV+Ty8Lpe/bq/jQ30v28t62VnWzdayHraWdLO7vIfyliG6XQEE4XgVEhQUFM4+xm7rYNATprq5j8MNfextcLKvfoD0eiebS3t4eUcd9ycXoFlbQuLaCjS6RhKjFhEjaq0x6g4ZtaE6gTCYDvOqNOdb4oY838a7ouRSDwY0KXUsXl/K/WtzeeX9PA6WteD0xDZysu6LlZMUp80sqgiTSWZsFLTUvyWEiIAgivSMCBwst/N8WhaLV2SSsL46Ui/EQqLWikprRq0zSoV3RgkTa1TZT3d1rx4nTCYacRee1ohqfS3qFXk8oStge2knpn4YCEBfEPoCMBgElyiVtp6ajqQKCgpTx2gHT0gEnwDOAAyGYFAAmwt2V3bycPIxFq7I4Z51dVLV6lRz3Hw0fd01n2sct8ZKZI1IaWTRhhruXZXFs7pjHK1opXdEICjLEzG+L7wiTGTOOmESLcwVMUGKhAA/AiH63QGO1HTydFoOquVZqNZVSj1qtJIVRHLbmCKFdkxSnEmqKVo6fmGq9HtC6kwQJp9tSJOGGY3OgmZdFZoVWTy7qZCDFW30uwIEhNjFIiBdSAhKgRIFhVlJnP9WEKVaSKFQmB53iEPVDp55N4t7lh0jYX1lpI2GgSSdcdTPZ5s4SdKaSNJFhlYaGp2ZRJ2NRJ1UCXzx+moWL8vmqQ3ZHKzsoMcVQBRiG7wxxSymHEWYTDpj07Kkr3vQI3CovIXn3s1h0aoc1Ouq0KQ0otEapRNJayZRa470tTFI/+pk64hcPt5IYsSaIpc9np7j5MWJJtXCIp2BpOQqVKvzefrdPHbrbfT7IkdQDEbqHExwiBUUFGYHY65/UYTBkTAZJTaWbspl0aosEpKrSdQZJSEiC5J4kTLt58/PPjQ6c0yUxA2NzkxiqpXEVAvqyLFQr6skaWUuz27MZ09JCz1ugXBE4MnhBtMFRZhMMnLufPxXPOKD7Kp2lr6Xy5JV2WiSa9BElO0irZFFWjNJWqn3gibSME8j+0F1pki5ebOUdhsptDPVKn2yh9xjQqUzcXdyPQkr83hcm83hage97gAIgUgZ+an6ZhUUFKYc2WIawekVyaxs5fnUTJasykKVXM09WjMLddbIPDp+TPVcN5lDozu+K0dy+xtR6xpiFvjkGtSrcnkqrYAjtV30jIQJRltvTJ8EAkWYTDLxm3lBgOERP5mVrTyTchTNqlySkqulbBWtkUVaU0SUSH1p4tOC5VgSadGWh9xP4ewSJyqdhQRdUyTA1ygFqyVXc/fyHB5emc6+0mYGPaEZWyxIQUHhVBm9aIYBpzfIvpIm/rD2IAnLMlElV0cWYHMkg2Xq57bTPk4QYyJbr5O0DVIdKV1kc7uuCvWKAp5IPkp6aRP9niABcXrNqIowmWTiLx9vCMrMXbz0XjZLVmaiTq6J+DrNUWGSpJWCP2VLiJxPP7EwMcaNaXBRTKIwSYyW2Y914kxMrkH19hFe3JRLobGHkUiXKiW8REFhNjF+Nz8SAr2pi6Xv55O47Biq5GppztCZZ0hywOSN4wqTSJZnUlztFo3OJNWWSq4macVRlr6fQ5GxE1dwtJdsqrd+ijCZZARRCnkNCyEsXS7W769Cs/IYieurovEkSbqxJ9DUn9zTb0REyoZq7luVybq9tVg6PYSCU/0NKygonFnGFFEUwdrlIXl/LZqVWSRsqEWlbeRsC2o9faMRTWodietKWLLqCOv3VmLpHEEU5eyc+CazTIlCUYTJaUAEnN4Qe0qaeWjdMRLXFKNKaYxYSiZStlN9oh5/nJEc/QnMrprUuMCuNcX8bn02uwqb6PNIfXEUo4mCwmwiVkbRFYT0khZ+l5yN6h19ZKE1okmd+nojM2FIIQENaLQ1qFfn8cjao+zRNzEkJxqMKWg3FSjCZJIRRekrLTF388qHBSSuzCVhfRUqrfEEJrepFyDTdahSTKjXVZO0MpeXNuWR19jFSHB6pbYpKCicXmSbSQAoNvfxyuYC1Kty0WyoRh3tJaZYTD7LSNQaSdQZUOsa0CRXol6Vx0ub8ihq7IrIEVE60uLU1dRWhMkkIB9DUZTKpXcOh1i/r4p7Vx6WXDgpDZFsm+P4A6eBij6+NWNqLyKN1oRmQwOatRUsXnaIlbvKsXW7CCjKREFhFiEQEKClz8uaPeXct+IQC9dWoNY2TvkcNdOGXN5eTrRQpzSwZGU2a/fVY+8PRlp+xCrtjs0yPRMowmSSkI/jUADS9VYeTc5CvSofTUp9pJHdTBUmU5ijHxFGGq0RzYYGElcV8OCaI+wustE3In6mk1dBQWHmI4jQ5xVJL7Hy++RjqFblkbChPrLYTn09kZk0VDoTqkgmaJJWaraqWa3nkXU57Mw3M+CNL1ivCJOZS+Q7DAQFqu3D/N+HBSxcnoM6uZpF2obTIkxivRPO7iF/TpXOhCq5lsQVObyyuYgy6wDBkGI2UVA46xhbRA0pw7HU1sdfPs5DsyoLdUoNqlTT6ZkDI4XL1GN+j5+P1Lq4n8eM6P11x799ajebpki2jpFF2kYWp9SRlFxD4vJcXv0gjxJrH+6gEG2togiTmUqk8NeAO0DKgTruXZnFwnfKUafIgiSuYNrY8TlNcQmpUsGc8X+XUo/l0sRyjZSo/3Vcrrv8mEh1xIiAmi59JWRBl6izSMWE1lWyZEUWKftr6fcgl4Wd+vw2BQWFySOus7AA9I4Eee9oPfe/c4zFyZUkpcoxJZM5R0nzoFyuQG5GKs9BKp2RhFRjpAq3ZVRXYqmEg1RnKlbNWyocmSA3YY0U0VRrp95FHlsLjKhTGlGnNJKwppwlyw+TklFNjzsYnU6VGJMZjC8QpsHez5/fK+CeZXmoNjTELa4RYTJJJ1R8Mz+5WZNKZ0attRJNs43USImvkxITJeboUEdFiGGUVWe6CJOkqDCxotFZWJTSgHplIS99oKfW7iIcjnwB0yH5XkFB4dQRR280giLUtQ7w6ocFJC7PZomuMVJWfrLnp7juw7q4jsNas9RkVWdmYaox2lw1VjNFmj9VOgMJOmO0UrdaK98vXpiYp48wkdcTrQlVipHE5DrUK/N58f0Cqlv68YeBSGM/RZjMUAbcQfbkN/Do2qMkri5BE3fRTLYwUUcEiVTSPmJB0VlQaVtQa23SfSIXk1prQU7HlUVJ9HatOSpCVDr5gjOPyRSaWn9oks6MRmchUdeERmdlUUojmnfK+P3aY2zNbmTEH/kCFGGioHB2IMb26CLgDsH2nAYeW38M1epiFmtNEcuD5TTNO5bIMKPSWUnUNZGQ2szCVBv3pJlITJVjNSwRq4rUh0etM5GQakWls6HS2SI/W6JzmPyc02tEhEnEcpL0Tjm/W5vJtpwGel1+BDHEVNhMFGHyOYk/bKIIli4vb2/Rc+/KTNTra+IEhKzAJ1eYSCe8lcVaM/em1HNvSh1LtAYW6cyotGYSU4xoUi1oUi2otGZUEaGxSGfg3pQ66f66xsiJGbGmRE9UY3RM/PqxkzrqszwtI+Kn1VlQ6axodFZJXK2vY9HyY/z1oyLanDFvjiJMFBTOBkZnhPz/9t7rOapz7/f8J+bqXM7tqTpV782cuZkzM1Xzvqem5pxtUEeRwThhbGNjY7y3M7ZJyqHXaklkkIg2QSBAOSEhodRpdZDUyjlndVifuVjdUovg7Y0lgfDzoX7YIBS61/M867t+0T8W4seLFWw5WYghvQWj5WlhskoPe3LEQ7t0xnkxyW7iJRdbJAcmyYHe6tLCNpIbfUy+iVF2R855D/Gygy2SDZOsxAxj9aCzthJnbUNv9cZ8z9fHe2KUFMwZdrYmlvHT5cc4eiaZDwZ4FemvQpi8BMsjorU74eyCSqUywqfZVZiSqjBYnJH26u6loVGr2SJZL3uWQhvbszx8ebmN5KIRfrg3xDvn2zHKXuJlJ1tke2SDuNFJHnSSwu4cF9/f6uTY/UE+yW1F85Z4tc+xNLNFasEkOzBITvSWVx/KWfbuRFyhkddtSKxmv1zBI88Y0wsIYSIQvAkslaqGCQFzIahyj/BJVjn6xEotcTQaKlnlm3q0SmU5H8/DrhyFw9c7OVE4wrd3B3n7YqeWg2JxYLY0YZbsGC1IIqCcAAAgAElEQVQudJGHux2nWvkuv5ejD/r48FI7JllBZ11ZmmuUlZWJqK+LSW7is3wYk2v45HQt5e5B5sKw3HV3HZeBECb/OsvCRLtgE7Mh8koU9mZUYUp7gkHWkjWjwkQfCZGsnjDRvr5ZVjiQ18Et+xzKFFx1hPjsSgcm2c0n512cKOjll/wu3j6lRG7sbg7muihsXaBxAlKLethidaOXWzHJbr6+6ialZIjPLnvZLmsb7tnvH31C8Cx5WtZTmOglLwZrK8b0RnallHDufjOj06oQJgLBm4AKEEZV1aUurxceNrM7tZC4lFotCV5SYhL6Vzd3Lzah1SgrfHrRxR2Pim0aztTP8c7FbsySk30XvSTe93Mkv5N3z2pNy/SSwr5LHRT6wTEBJ4uGiZftbJZ97Mpx8vdf20l80MV7Z11LHuzXyWNikN3oMl3o0+rZZanifLGNicVXc6AKYfInUAkTRqVvIsTJKzUYEiswZDQvJ6PK7shUR/caCBM3e3LsJBf4ae4L0Toa5myxl0NnHrM/p5GUu+2Ud0B1N1iK+9l3qoVtspNDl+yUt83inITM4k62WV3szrLzw80OiltD1AxCesUke0+5MVrcWgJX5OlEL7kwSQ7+v5+L+d8/usguqRmTFI3JrtVmWRkTjWbEGzPtGE+W8uOZIrpGA9ELIhAINjwqaqQap39a5cjZQvQnS9BntKC3xgqT1T1rotU1OtmDUVbYc0oh5X47zhFQRlSs913sz2lgX3YdCfc7KO8IU9ENlpIu9uY0slVuZn+un8rOMG3TkFIyxE65ie1ZDo7mt1Lkh6oeOFE4xo5sH0bJiVlWMFmcmkV7ishOdJHZP7G9pGKLFowxCbar+h5ILm1Kc1I5P+dWMDiHmJWzoVBBVcMshFUcvXP8/UwlmxIfYbQ4nrmZrkXCkilL4fNcO2WuYYYXYGwBWnoWKffOUewLcb9lksKWYRo7pmjqhcu1Y+w75+Zwro2KtnmcEyAVd7H3tIeE+z1UdYK9H36rH+HH3/zsynJhsHgwym0Y5VaMsodtOR72XXDzP77K5X/533bw3z+UMafbMVt9ayhMnm9GyYUuqYbPLPdp7pwkFApHFrNQJwLBRkbzQ6sshIIog3McyLzH3xJqInlwUWHiXvUck2UPjJetWQqHr/koVKaZCMLALDR1z1HsC/DAO8/NpmHyG/po7lmgpX+Rs3UjfHrJwce5fir9IfzTkFo8yIenm/iloIeqziC2IbhaM8R31/zslLRQ+9un3XxwxsO+c14+OO9l33kP715ws+ucwvZTHuKzPDHhK+9zbPWFiUGy8VZSNZ9nF+PsnycQXP8zVQiTl0WFsKoyMR+k1DnAp9Yy4lLqlrKz19JMkpM9WY1kFrbTOa4yDoyEYSAEvWHoDMMDHyTl+0h76KeoDQr98O2dPr67ZqesbRb7BEjF7Ry87ifPHqKqD6zlg3x8zsY2q5N4WUFvUYizaIldu08rJBf2UOQPc+TUHRKs1/gp7TL/ZvyOHZn1S+XL6zVu3Ci70KU8Zl9aAQ8bu5iZ07wmqiqargkEG5HoY0W0BmRmIUCFMsCHGffZnFyHyapVtqydMHFjkD2YZYX3cpq4UNVF2wRMhmEgDN1B6A6APwR3lCBHfvVgKe6ipAPudcGPdzr54nIHVZ1B2mYgo7Sf7254ueqCwk7ILOnno7Metkt2tsl2DuYqXKobp9o3S11XiNrOIPVdIara57nvnuZU1TAHLiiYZQ9m+XmiZHWFiV52o5Oc6GU7m1MfcyCrhKKWHqZnA+v+vCeEycuiahtoaDrAtUft7LdWEpfWtKJMeK1si9XJkZs+HvdB9+gCD5t7ybrvJO1WC6m37STfcfHdNSeHLjbx7ZUmLPdcZN93ceyWi7Q7zdT7J/CNQ16ljyO/2rE88JD1wMlPN+wcuOhi+2kfJtmlqWerl+05Ct/c7qKqK8QIcCm/jF+OJwPw+c9Z/N8fpGBKr4s0GFqvmKmLzSl1vJ1aRG65l6Hx2ZgCQ4FAsNGIFSVhYHRqgRs1bexNfUhcakOkKaXnTwuT3+34KnnYkeXk+xtumnrnaR+Dgsd+LAUKqflOpHw7aXe9fH/VycELNo5ctWN94EF64Ob4jSaO/+aioXuGrmmVS9VdJNxoxPrAjVSg8MOVZj46p7A9y8mOHAcJBZ20DGoJvkMBaJ+CjhnonoPeefBNwZXGGfZdaGOLrGCSvEv2Z4XJi7psx0lODFYncekNvJdZzLlCG8MTc+u/FoQweUnCWgy0Y2SelDtNbE8rZ1Pa2oZxtAXkZe+5Vs5W9dE5C0rXMDlFHr694ebLaz4OXW/l8+s+3jvdSMKDTio65mnqmsXRPY2tZ5bWgWmm50MshqBvbA577wwtPTM09czQ2LPATcc8h250ES87Iiraxd5TLZytm8A/Cd2jc+RcyScxJQOAufkA/0i+wP+1Px2jpYW4lw7r/NHXH81mV4hLb8KUWMaxa09o75+MKTAU4kQg2GjEBmJVoHt4luSbjWxLLkWf3rwkTAyS6ylh8q+Hwp97s5bdmGU3H55TOFs9jH88jL13npwCO9/e8HD4mo+/X1P48oqPLy66sJT086hDxdY1i7NnBmfPBO7BSSbmQyyGoWtsEaVnAlfXKI7OcRq657neMsb+CzZ25djIKu3BPQxD0yFuN/Zx/JaTY3e6OVXaS037AsMLYBuGX+52stPqwCz7MMs+TJLvKWGyOq9fL7uJk5zorS7iMprYmlzET5cq6BqaXv+1IITJS6JqMwS8/bMcPl2CPqGYtzJckSTXtRQmHrZmK3x/s52S9hCtIwF8oyqeUfBOgG0CakYgrbCdizU99AWgZxEcI9A4As1DoAxqZh+EJ8PQMAyeKRgNQsMA/HC3h505Cmarhy1WhUN5bgo8IbxTUNDUyxep1ziamg1AKBxmdDbM1ykX+bdtP7PT2vzChb/awkSXaSMusZKD2WW4ukYjlVJCmAgEG5qIN9rdPc7hU6WYk8rRZ7Qs9TR61mOySuer7MYkK+zKUfj2tw7ue+bxjIF/NIR7DFzj4ByHR4NwoXaMmw0j9CxCzyy0DMOTIe08dQyBMqSJiuYR7WP+CS3UXtsX4PM8B3ty7GSX9KCMQM8UWEu62G2pY2uWmw9ympEL/bSPhfBMgFQxwts5rlUUJi8WLHrZhUF2obPYMCYU8VHqLdp6J9Z/CQhh8nKoqlZn7+ye4qPM+7x1vIi3MpVVrb55RtFGMtFNssLObBvfXnNS6Bihc2SehSCMTQdx9S9Q0RHAct/J9Zo2BmZVSt2j/HS5js/PP+G7vCakuwo5D9v45Wozh8438uX5WnJKvHSMzNHcH+SXe93sPq1gsDjYc8pNdtUkjUNQ3A4nbzoxfpfH9ylnAAiGw4Qj1boHj57hvxi/Y7tswxQZR77U1nkV7GlhorfY2ZRYzQfpD2huG4yM634Vkx0EAsGqEHGbhFSw+UfYn/4AXUI5hkw7JqvWQdUku9csx8RoVYi3etid7eIfv7by0DnB4GSIuSAMzyyg9I1T3r7I2fJObtd14p+GMucg3+U95uD5Og5faiKjwMOpolZ+vm7ni3MNHLrQwLkiBedQiJruKQ7l2diT4yCrtBfnCHRMgqWoi61pjzFICu+ftpNV1kPHtCZujuV3smuFx2Ttkl+jCcA6iwNdQgl7jl1F6RwVLek3DmGCgL1rlL0nbxJ3soy4VbwJ/zOBYrQ62JnVwD+utPBbfQ9ds1DXPk3iHRcfX7DzaU41Vx/10DcFd2zjfHymAZPFzqcX7DxwTvK4D5LvdbBDsrPT0sDRfD/OwTD1ffDL3Q52nXahz2zhw4sKd9wBHKMgVY7y8Zlm/vsXl/g66SygCROIdJEGDv+czf+5N5HtGfUYZM/SXAntEFndDaS32Nl0soJ3k+/Q0tZPUAgTgWADszxOOKhCS/sA7ybno0+qwmhxaK3drb41TX41yW5MspP4LAfx2S18d9VJYfMY3VNQ6R0l6Y6LTy80cyjPxm/13fim4a59jPdPtxBvaeb9c27yPQHqByGhcIDtUiNmSzOJ97w8GYLH3XN8nmdnxyknUmk/ygiMzQQpbOkh/XYzmffbuVHTRXPXNB0zcNM+ycd5bWyRnZhlL+Zoi/tnBrH+WfOsLD2WXLx1rIT4H3KFMNlYqEvCZPexG2w6VkLc0kTKtTOj1cPWHA+fXvWRWNTF6Qo/ld4R+uZAGZjn6uMeUou6SPi1ibtPeumfgtv2ST4404zO4uXzPC+VS+XCfWy3KmyXbPxyrxfnoErDAPyc386ObAfbrDaO32vncW+YSmWQX35z8dmZJ/z7fgv/OBEJ5UQVSWQdTS/Clyfz+I/PzrFFVtBF5kYsDwxcJXEmKxgkB5sSKng36TYtbX1CmAgEG5qIu0TVArLN7f3sOXkTXUIlRotduxGvYVWOUfZgljzsynZw6Nd2jhf2cL6ym3r/DEPzYOue4nptD5aSbpILvBQ0ddE2C3fs47x72oFJcvLBJT+lndA6C8klw+zIcmC2Kpy8186TIajvXuCLPDs7cxxYS3vxjkAgBENB8M+DfwH6AzAWgtaxEBeq/BzMdbDdao9U53jWUJh4l6beGyWFTcfLMH+vCZN1XwlCmLw8ITRhsv2nq7x1tIg42bnGwkQLY+w56yOrsg/fDAzMweRimPmwylwYhgPgn4MKZYD61mGGZlVu28f58EwThkwPhy55qG6dxzUBcnE3O6wOtkvNHC3oRRkM0dSv8lN+Kzuy7OzJbuZW8xAdk9DSPsy1+iGu1I/xeeINfkrMASAcESbBkEpmTi5J8mU+/zad//y3L3n3lBud3I5OasO8qptIq7c3yk7iEivZm3BTCBOBYMOzUpg0tvex4+h14hIq1kWYmGQvW2UvBy75OF83iXME+udhMgQLwFwQJuehaxYqvBNUunrwz8Z6TFr48FI7Vf5FOqYgvXiQ3VY7W60uku76aRqEhq5FDufa2ZNj41RJF76hMLPzQRo7prjT0E9+8wilrhFsvXN0TIF9BPIahnn/jAOT7F5zYRL9miZJYfOJckzfXkTpEMJkQxEVJnuO/8amY8URYbK25cJGq4dtOV7+fqOLs7WT3G4ao6V7ltFFaB8NcN8xxvn6SSwP2rjXNEz/NNy1T/HJ2SbMFjdf5XqobZvHMQaZxT1sz3KzVWrh6P1+XMPQ0A8/5ft5/1Qz311XaO6ZYSwIY4vQH4LBMFy8U0dS2hkA3L4OfvjlBL3Dk/yn//x/8B9v/8j//CqX//HTQ+KtSmSujzfSsXV1hYlBcrBZCBOB4A1hWZgEgcaoxyRxfTwmmjhx83aOhx/uDJBdPcJvjUO09C4wOA/K4AL3bGOcqxvHUtpNQXMP3im40zLMe6ca2WJp4ONLCjVdIXzjkFw0zA7Zxlari9SCDmxD0NAxw+FLLezJsZFT2oUyAr2TYXKKvLxnqWRXVgv7z7o4cr2V64/68YxDyxAcvurDJLkxyR5MMaJkLYXJW8dKMH17EWf78PqvBCFMXp4Q4Ogc5b2kfPQJ5Vqp1Zr3MfFgsnqIz3TyXo6Tz882cb22l45pqG6b5qcbNnZK9bxnqeJS9QA9U5DvnOOj043skJ2cuO3H2RfENQopd71sk5xsk2wcvT+AYxjqBuDH/A6+vNTC5fpROieC2HpnuNcyyOXaAW7UDXE46SpHEk4D8O+bt/POx4corKihuLGd//X/eYe9p52YrK5IfokLnewmLiJOVluYxCVVaaGc1j6R/CoQbGhWCpOWjkHeSbqzjsJES/yMl9zszHKzzVLP52cec7NhiLYpuO8Y4esrLeyW6/jwTCNX67pxT8Md+yTv5DSw21rPL3d82AdV3IMhEu/3skNqZqvVQWJ+G7YRaOwOcDjPwe4cB9kRYdI9pSIV+dmZWYcxq5V4i8LbGQ2czHuCvU+ldUzl6+s+DBblGW/JWggTU0SYbDpWytYfL6N0jKz/ShDC5OUJA87OUT5Kf4AhoZy4TPtS5cxaixOdxYdR8vDexXYuPh7GPQ0P2oMc/tXHltMe3jvdxOmqQZQhyGue5YMzzXxyQeFm8xSD09AxDmeLO/joXBt7cxSO3O2jpitMsT/Md7f9HPvVzpM+6JwIkV3azrvnnMTn+NhqdfLfPj7Dpn0n+HfDflKvVnCjuJYjv/zM9GKI/3fnF/zH4SvEW51stvq0EeGye8lrsqqHiGQnLqmS/ekF2Ft7I8JEiBKBYGOyMpTj6Bzmg7SCSPLrOuSYWKMls250skKc7OKjCw6uNk/hmYY7rikOXfWw67TCh7k+LtT28WQYrjVMsTe7iS/ynOTbRhiag95xlazSXvadsbEz28HR2z4quqGkdZFPcz3synGTU9qFZ0RlaDrExcouDpxp4v1zXg5ecnPylpcHjf10TYKzb45/XPWsqzAxWxR0JyvYdfQGnq7x9V8JQpi8JKqKCni6JzicVYI5oRRdhgPDM8JkbXqa6GUPRsnFexfbuFQziH8KatsmybhnJ7Wsl8zKYRLudZB6t50frrv49kozV2v68Y7C8AL4J6GuW+WOY5HUgnZ+uGYjId/NT7fbOHTNz/mqPtpnobk/zM+3vMRbnRgizdM2Jz/mv76XRfwP10kt8NHYs8jHX3xDS2s/Cbll/NvbmWzNcqKzemPeg9XtOWCQ3Rgy7RgSy/jC+gB3R/86D+YWCASry7IwCQNK9zAH5YcYE8rQZbRgkJRIL5PoTJvVPVONVg8ma8Qja/Wgk918dM7B1cZx2qeh2juC5a6D1KI+MqqmSLjXQeL9br6/7uHr3EbyanvxjoboW0A7j3tUbtomSX/QypErjZzMb+WH2372nHGzI9tFRlEP9mEth8U9BBW+eUraVao6grQMQPs0OMbgSv0g+8+7IrOCnidKXuLsfJ4wkT1Lia/GDAfGk6XsT7mDr2dcVOVsHLQ3rnNonoSr9exKrUD/XGGyNmbK9mKW7Xx40cuvT4YZmIGJBWgdDdI0FCbfNUvSvQ7+nuslMb+VB8oUfVPgH4OCpiFOPXDxwD6OdxycY3BfmSLhYQefXLBz8LKfy0/GeDIIV56M89klN2arB3OkbbPB6sFk9bJVsvP5JSf3PUHuPe7gv771Af+xLxn9iVLiJfvSE8hamFFyo09vIT6hkJ8vldPeO0xYOEsEgo1PpC+Sf2iS41cfsyWphM3pTTFhcldEmKzBufLU1/34vIPbjhn6ZmBkHtpHVBoH4KZjgV9u+fkqT+HYvU4KPVO0T0PbWIBf6/tIy3fw0DWCdxJ843DXPsHx/Db2X/QSL9kwSy1882sb+a55vGOaB9s/Dm2T4BsNowwHKWubRS7v5sAlO1ut9nW5r+hlNwbJhT6tma0JxRy5UEH38Mz6LwEhTP4cQ9NwsbSV9zLK0aU3YpTWfoifJkx8xMt2Dl1rp7JDZTQIIwvQNgWFnmGku41cKFaoa52jYxIGA+Aag0v1Y3yW52a3tZGDlxTOPxqhaRC65sEzCffcU3x7w82nl2x8mufhg7MetkaSWI1WNyarG5PVG0nCcrHV6mD/BQ+H8nz84/YA711oxSRpGeTLP+/qjyk3Wb3o05vZkVTImUInA2PTwmMiELwJRO5JfeOznCv1sie9PCJMXBisSkSYRG31zhV9xBOtj5xZesnBwctuHg1qXbHHAtA6Cfcd4yTdqOPUQ4VH/ll8kzCE1lk7u2qQTy4o7MpysP+8nbO1I9iHoW8OfGNwzzbJoctutmcr7Myy89FFN4evuDmc5+CrPAeHLzv58rKDzy/b2Z+rsOO0k82SHd063VeiwsSQ1sg7aWVkF9jpG5sRHpMNQ+SNm5iDwpYhPs2qQp/agDHS8XRZgXtW3QxWD/osHyariw/Ou8muHuOeO0BWSTfHbto5UzNImT+Aa0xrhdw8APeUGX6+5WPfOSfxVhdGq5tt2Qr7z7n45ZaH603DOCagcRyyasfZe8aOUXJo39O6MgxjlL0R74kbg1Vz/ZkyXegynegs2uA/U5YXU5YHg9X74qFZf8JMshtdyhM+SC+koLGHyZmFV7wgBALBqhC5J03MBym0D/JBZglxaY3oJedTosS1BmesN/JfNwarwgcXFHLqZrjrmuNUcQfHfvNwpmqA4vYQjlHtYa5xAO66Zzl2r529Z5xskd2YZB9G2ckHZ+2cvNvGraZRmofANgrSo1l2n2nFJLkwSQpGixNTRgvmzBbMlhaMlmb0liZ0sp04q4s467JYer6XZ5Vee2SQn1FyYUpt4GNLKfeedDE5t7j+S0AIk5dBBYKgqiwEoblzlsOnqtEl1mGyOP+UYv2jyn6ztRV9lo/4LIXdZ728c9FP/KlWzFYXn13r5sqTMUq8c1yq7ufrG17evdSG0dqKXmolmu+hlz3EWb0Ys93sPa+QWNjB2Sdj/Hjbw56zCjqrh82RpFWtQZoPveRDJ3u1WKesYLD60FtbMVjbtJbRVjd6q285Xmv1oY/YqooUyYUu6REH0u/R0DpGcDG0dGUEAsHGJxBWsffMcCCjgLeS654jSlbXY2KU3JgjyZ8GSetYvSVL4Z3zrbx7wc/OnFa2Wlv5xw0/V5pnKPfOcr56iK+vt/PBxVZMVoXNcitGSWsdr8vyoMtyY8pWeOesnSP3Ojj7eISvrrezTVYwWLwYZD86qQOD1IpB8kQqGN1strrRyS70sivihV8WYmtpRqsHo8WBPrGGw1nF2DsnCazyTf+PIITJS6MuzXToHIefcx+jS3iEMXPtY4Fa1rgbvdWNyapgylIwWhX0VjcGSWGrrPBujp0Pzzp4N9vGNrkF09K04IjyjiROaSW9CvFZLnZk2dh92skWqw2TVUEnRUI4sclWkged7Itkb7swyi7NiyL5MEmK9gQga0la2s+7Nnkm+kw7cQmVfJNTRPvgIqxsQCsQCDY4KtA7Bd+cLuFvSY/RS07tnIvesFc910SJVPwoGCQFnezBKCuYZSfmqGdY9rA9y847Z+y8f6aFvaecbLW6MGd7iJMU4mQvJquPeKsPY1b0QcyNSbYTL7ew65SdrVmuiPjxopd86KVWjJJ36WzVLYWTYsWXssqv9QUmKRgzbOgTqvnhbDl9kypqOATrHCgXwuTPEMkeH5mDM4VudmfUYspYOV13NbudPr2JlhatVdsUeqsHc5aPLdZWzFmtGFfMqFn5lGGMtB7WhuwpWkgmqxWd3Mpmq4/NFmXp5182JSJmYoSJ5IxsZk9EmEQVvrLiZ/2zOSb6p0yX3kh8UjnynUaGpsKxYzYEAsEbwuisSk6BDXNqDXHpTRisylOehNUVJoYYwRN9iDNFQhyGJY+tgsGqoM/SvMU62af1acryav8u5tzXws6Rz8/2ocvSPM7auezFaPVhkDwrHvqibRWiAmnNxUisWRRMGc1sT3uEfKeZsTnQ7nJCmGwoVGBmIUxJcw8Hsx8Rn1qHQV5enFor9t8r01odi96wlz0bf/zzdLILvVV55ub/e5+zfptFQS8rmotT0kwnu9AlVbHPUkqJrZvphZAQJgLBBkdl+RYY3ceBoEq1o4+PrY8wptaht2o9RvSysgbC5HfM+tQZHiNWDBEPx4vPTc/Kz/nds3i9z9dnzZRWz/6cWu439TEbRLsiamh914IQJn+OSLYJzp5pjlyoYUtiOYZMm5ZvsRSv9K6c3LjW9i96afSRjf4qN8OLN6qywvSygk6yY0go5utzlfiGF1iMOcmEMBEINibqUxb9S//QAt9frCU+qQKDxUWcFJmwLjtYj7yL1bDY/LjfO+/+2UPhmpyzkmbanxWMyZV8k/sYe88sgXDkIqjCY7KhiKr8nokQ5x66eDulBGNqvZYYGpOXsa7C5A0xvawlgsXJy+5bg+xkU9oTtiU9QLrXzEhAE4ax10MgEGxwYtTJ+AKcLnSyN7WUuKR6LTFVcmOUbbxJwuSVnbNLwkRhc3oj29NKkO+30DsRihaf8gd0wupefiFMXg516ReEUZkOQKNvmEPZZcQdL0FncWjt6Ve9dfBfy6I5MNG4r1F28FZCGQdzSqhy9zGnRl2/YVQxJ0cgeDOIESbzIWj2j/H9uSpMx0sxWxxa3ofsZN1COW+46SU3eouduMRSPj9dyiNvLzOLYQirKz1Y63X5hTD511FRCRNeuhWGCBFUYWB0lrRf69h64j5xqfXaoDn5X8v5EPY80zLSjbKCIf0JxhMFJP9WQ8/kLEEgTJgQocjVEG3WBIINT8zdMBiGoYlFsu40suPEfc0jLbleSdjjTTS95EZnUYhLbWBLwn2Sfn1E9/gkQVVdGr0ihMkG4GlhEo48qS/Oz1PlGtS8JifLMFpsr3zRvQkWTQozWGzoEso4eKqUB81+pgMLkesQIhRzNQQCwQYn5m6oqhBYhFL7IIdOV6NPKkeXYSNOal3lwaAb0/5sTyhNmLh4K6GGL05VUezoZWpxgWiR8KvwQwth8pJEwzhq5P9BRQ2rDM+qXChysCupEGPSI0ySczkMIT1dfitCPCtNWWEm2Y1J9mKSvegtTnTJNWw9WcCphzY6xhcIquGYkFrsFREIBG8KkQd3+saD5BU72Z38kM1Jj9gseSLn6lN5Jkse6nXq/bHhzIvB2oox0vBSJ7vRJdeyK+khFx82MjCpna1RQfIqTlQhTFaZINA6NMexK/WYjhZgTm9kS/azUyFXNi171Qv19TCtH4rWa8UouzDLbsySF5PFTVxaE6YThfyYW0NL1ziz61u9JhAIXiUqBELg653kp9xa9CcK2ZRpw7jUzyT2HIn2XFrHcuINZZowMclezLKWW2I8VsCxy9V4OgcJh1+911kIkzUgCJQ0dnJILsGcWIVJcmKQvX8ZYfIvuxOjfV+Wklw1YWKSFMwWD8YMO5uSqjkgFVFQ72d6MST8IgLBX4nIxOGZANxv7OaAtYS/JVaik5zoZO+a55qsxbyvV2ayJ+KJdhMv2TAlV/GZ9JCipkgvMn0AABARSURBVE7mgn9MFKz55RbCZJWJvKEDY3NcKnKxN6UYQ2q91ur3BcLEuMab6vW2aAmdB5OsYIokuRplF0aLE7OkYEiuZXtqCeeLFXrHAwTDovpGIPgrEBtKUIEA0DsZ5Hypws60YvRLDS09Mb04Vl9kvPpzcpXPXNmLSVLYkl7P28kPuVDkpG988bU5VYUwWW0iOykcDOLonODYlTpMJ8swZtgxWl4gTl75Qn09LDaUY5Cc6DPtmC02DCce8sPlGpo6JggRye9Z54Y/AoFg/YntBhuKWBiwdY/zy9UajCceYsq0LZ2hokrnj5gXg9yKPsPG1uRyjl2upcU/Tug1OlKFMFkLIuJkehGKm7o5YCnDlFiNLsPxXHHypoVyXtZihYne4kSf3sSW1EoOSA950NTGxELk7X0NXI0CgWB9iBYYqJF6SAgxsRDiQWMbB6QitiRXYcpswSB7tMnn0rN5J8JiTFIwWRyYkqr4RC7nQUMXY3Pr3tz1dxHCZA0JqTAwEeB6hY8DUhnm1McY0psjw5lWVuUIpa+JEqPs1Dq8WlqIT6tlz/EbXKtQ6B2bjrRHFsJEIPjrEfWdhIAgQVVlYGqBy+U+3k26jzmpCkOmDZ3swWR1Y5JdWt+jZ5Jf/zrJsM+2uFfQSy7Mmc1sSark/dRCLpX56J8MxjRZeHowwKupyxHCZI0Jh2FoeILfylr4SC7HmFyJLtOOTvIs1eDrrR70S0Oi/npmjHR01WZfONhscaBLreXt9FIuP6xnYHQqEsLRUNXYPwkEgr8S0ZtWWIWukQC5JV72ZVagT6wiLtOBMcuL0apglhwrPSfSyw/+e+UJqy9huiw3uizt/mLM8qCXnGzObMGcVM6BjEJyixx0DM0RDsWKvvALbH3PWyFM1hoVQiGV3rEFrpR72ZdeiCmpEkOGTWsDLHsj9nSC1dpPJH5dbHmqpgtjZjP6pEret5RwtsRL70SIgBq7NdTIpEshTASCvzoBoGdSJbfMw0eZRZgSyzFLTm2WzlMiRC97Ivbqz7z1MJ3VTZw1MqDVqmCwtKBLLGd/xkOulbroGluIzBmLBsteJEqEMHmziDQGQtXCOn2jAfLKfOw+kY85qRpjhg295H3+9GHpryNMdLKHTVYfeoud+LQa3kl9yMUyL/6RAAGe3hoqr6YXoUAgeN2IVup0jc5yuczFe0l3MSRWY8h0PucByBMpLX7zz9Xow55O1vq56DNb2JRQwbYTt8gt99AzMqc98MU85IWXfhfC5M0WJjGoqhbW6Z0Ic72ylQOWErYlV2G2OFckxP4VE2G1A8ONOfUR76cXcaHETcfIIsHwykx8IUwEAkEsamR8p4pK/2SQq+Ue9mWUYkiqRmd5uvGaguklQzkb0qxujFYFvcWBLqmKdzJLuVDioHM8SCjmHVyZRiKECfyFhEmUgAq9YwtcLnZwUC5mS3IFxvQGjJJTcz1KbgwRd+Ob7HJc6g1gcWLKbMacWs1HmUWcL3TQPjTHYiQb69mtIYSJQCDQUGNCEIth6Bxd5GKJm4+lMsyptRgzmjFICrpIN1gt7+QvIkwkJ8aMJszJj9gvlXKuWKFrfIFFdfnde1aYxBZoC2HyxhO93BACNcjA2DS3arz8/fwj4lPLiUurw5BpxygtexDeZGFikN3oMx3EpTawLaWCw6cruf3IR//oPMGAtshCqhAmAoHgnxM9IwJh6JsMcLPWz6GzdWxJqUKX1sRmixt9RJj8FTwmRklBl9rAlpQqDp+t47fqNrqHpwmpUR90EC0I9rzZHs8TJ0KYvLEs31hVQiqMzYV54hsk5VYTe9OK2XS8BH16A3pZG+ltsHoxyFr+iVHyaHknGy73REu+0skKhiwfcRY3BqsHXXozbx0tZVdSIcnX66l1djE+GyYYswdeXLAmRIlAIFgm9pwIASNzUO0ZJPV2I7uT7rH5RAn6zCb0Vjd6q1erVJGWR2DoZA+61/hc1cmt6ORWjJJnaQ6QTnajlzwYLQp6iwe97MVg8WDIsBOXUM07yQUk3XhMpWeUwekQITV6w4/a7wmOV1su/EcQwmQNiCrCQEilfSTI5So/+6Vi4pOKMWbUYZIdmLI8GK2tGCUvRskbU8HjfeUb5Y+bC73sQie7NHeqrGBIf4LxZDH7LaVcLG3FNzBPIBB4xVdEIBC8KYSB+ZBK6/AsueUuPpYKMZwsJC7tSWS+TrTHSaSho/x6e6jj5Dbi5DYMsmepCaVO1sSIWfZgkj2YJBem1CeYE8rYl1nO5XI37aPzzIU17zNq6I3qASWEyRqioi2akdkQFUo/x67Vsju9EF1qFXGZzeglL0bZh8HqQyd7l+x13kQGWXObxm58g+xCl2nHmFrL3tRijubVUG4fYHRaJRjShNqbtGkEAsErRg0TCIcZnQ1S5R7g2NXH7EwtQZdSy+aMFuIsLnQRj65JcmKMlBm/6rPzmbNUdrPJ6uMtq++pEH8rBtmniarMFsypj3gn5QHHrz6mVBljeF7LaVRBq75Qw0uz3N4EhDBZB1RgOgDO3hnyyj0cyi5he2IhxuQazGlP2CLZMcoKetlD3GsmTPSSJkT0koJOUtgsK8RJLvSSA1NmC/EZzRiTH7Pt5EO+yC4hr8xNS+ck4/MRZ+Kbs1cEAsFrhIqWTTG5qOLomeJiqYsvcsrZmVyMOakcU0a08MCJQXJFHqjcvC7h8qgnZ7OssNnqZrPVTZzsRhc5b43pTZgSK9iRWMih7DLyil04uqaZmNca0KnhaDnw6x+a+VcRwmStiVkvKjA+o1LvGeHUA4WDpx6xI+EBppPFmDKeYJQdWpdYqyciBl61KFneyHpJq5vXmvrY0afVY0ooZ+uJYj7Neoyc30K1q4/RmeBSfxJVRXhKBALBmrB0tKohwsD4fIhH7iFyCux8mV3ClhP3iUuowJjeFPGYKCxPPH89hIlOdqO3uoizOtlsVdDJDvQZTfztRAWmEw85lF2G9a6datcII5OhmBcdhHCAlUIkmsy68RHCZJ1Ql37T8qUHZ6DBP0VeqZuvsovZlVSIMaEUXUqN1tbeosQIg/X1jsQKk2VzY7Q4MaY1oT9RxtZjd/nmVAkXi13UtY4xOKMu5YCH1Eh/EhHCEQgEa06IMCoLKiyGYXQa7P4xLpUo/P10OduO3saQUMHfUm3EZTrRWdbyXP3XChg0r4mLuEwbm9IbiUsoYVtCPl+eKeF8iYsnrcMMz6oshLTzdBkVVdU8RstSJMjzK3E2HkKYrANLOdIx6yoIzKswMg/NnTNcf9TN0Uu17Et+wNakCozJtZjTnmDOtGGSXEv1+foX2MttImXZrFEh4sIoRxsWOTFbbJjTG9En1hCfWM7e5CKO5NZzrbqTZv8EQ9NhFllZ8rs0mUHVehEIBALB2qG1YYu9JQfDMDwLLV3T/Frt4+fLdexOq2BbcgXmpGrMaY2YMu2YJDd6i/spMREzIDDiwX7GZA/G59iKWWGRSkuj7I35N5Gz1eLEmGnDmNGCOeUR21PK2ZNewneXHnG50k1z1xQj8yz1fFoe17FyJN/Kv1n5p42MECZrzIta2mgWJBy5kc/MQkfnFGWP2ki+YeMTuZq9qeVsT6nBlPIEfVozugw7my3OSDtiN3GyQpys5X48T5zE5oc8z2KTVw2yC73kJC7Dhj7TgT6tBX1yHdtSatibVsVH8iNO3mjhZo0PW9c4Y3NhQsHwMyHNp1+vkCUCgWC9iSbch0Ih5ubm8PWMkf+4g4xfn/C5pYQ9KdVsSXqMMbWFTSk24jJc6CxO9FL0PHRGWiG4n2u//zDowSBH20F4Mck+TJJXK/1Nt6NLacSQVEt8ci070+v4TC4n5fpjbte1ofSMMTkz/9TBGXuqPnuivjmZJcsIYbLG/L4wWbncwsDMAnSPh2nwT3DncTtpNxv4XH7Iu8n57EopJj61GnNaDca0xxjS6zGkN6DLaCIu00VcphtdpgedZdn0Fu/zLVPBlGnDnNGMOaMJU0otpqRq4pOq2Z1SyvupD/nUUkj6zRby63up98/SOaYysaASiFXxK35Xn/n15m0ZgUDwuvN0JWAQmApC90SQRv8kd570kXGzkYOWB+xJKWRHahlbkkoxJVVgSqnBlPYEU3qj1l02w4Yu08HmTIXNFg+bLF7iLF50km+F6S0+dBY3eotL63qdYcOU2oAppR5zcg3mhBJ2ppSwN/kBBy0PSfutmZt1fTR3TNEzOs90IFJpo4ajyTO8Dg3RXgVCmKwxf1SYhGLmQkRddDMBlb7pEMrgHBWuPi6We/nxcj3vJN5m18nb7Dh5j60JBZgTCjEmVmNIrMWY+BhTUh2mZM3MKfXPtfjkGrYllrAjoZCdCQ/YcfQW+5ILOJLbwMVSH2XOIVz9AfqnYTb0tAPx2Q3yfFkSfTUCgUDwagkTRkULoU8FYXAmjLt/hjLvJGdLffycW83+1LvsOXGbHcfz2ZFwn60JhcQnlGBKLEeXWM3mxBo2J9ehT6nHkPJkpSXXY0h6hDGxAnNCKVtPFrLjeAE7j91l74nbHMmt5lypl2LnCJ7BRYZmYC70IpmhRqoHQsv2FxInQpisMS8WJiphwoQJRSz8wpt4WIXFxQDjMwG6xwN4+qaxdU1SqQxwt76dvHIPGbdsHM+t48czlXx3qoxvskv4SnrI4cwHfCU95JusEr47VcaRs1WcuFxP6o0n5JXYuVffToWzD1vnGP7hOfonFpmcCxOIWQtP+z2e8YOoy2LqaXszIp4CgeBN4OneqGFgLgATMyH6R+do65/E0T1GtbOTe/U+csucpN+s4WheBd+cK+XL0yUczC7i86xl+yK7mC9PlfL1+UqO5j0i47d68kq95D/uoMo5iL1zFm/fLP0T80wuhJkPqCwGA4TDQVR1+bR89lHu9x5rhTB5WYQw4Z95TKLiJCpLnpOwEbOVVFULoywEVRbDMBOAiXmVkVmVnrEgXSNBOocDdA4v4h+cp61/TrOBOfyDC3QMLdIxtEjPWJi+8RBjMyEm51VmFiGoPiUiYtSHqi7bUx+K/OHFQ7Xf7O0jEAg2Jk9XuKiEw2EWQ2ECwGwgxMRCiOHZIL2TC3SOzdM2ModveA7P4CzeGPMNzdE6PE/b6CKdo4v0jgcYmg4zNqcyEwnPLIZiCgLUsCZI1FDk7IwKk+X7xfLPKISJECZrwB8N5bxwqS3FGp/6amo4ZmED4aD2cTX8Ynv64yu+x4ttpTAJP8djIvwiAoFgI6KiqkFUAiwX30YeG8OBSK+QoNY3hCCoAc3CMRb9GMvhFlUNRbwhLwzUxBAVJ097o4UwASFMNgj/REX8Yfsz3/+f/5VAIBBsDFbrTH3Zs/b3/t1qnt0bh/Lycnbv3g0IYSIQCAQCgeAVMzAwQEVFBcCqN+kUwkQgEAgEAsGfYjXFiRAmAoFAIBAI/mXWapyJECYCgUAgEAheG4QwEQgEAoFA8NoghIlAIBAIBILXBiFMBAKBQCAQvDYIYSIQCAQCgeC14f8HoeodWdEpyrQAAAAASUVORK5CYII=&quot; alt=&quot;&quot;&gt;&lt;/div&gt;&lt;div&gt;&lt;br&gt;&lt;/div&gt;&lt;div&gt;public class HoldLockThread implements Runnable{&lt;br&gt;&amp;nbsp;&amp;nbsp;&amp;nbsp; private String lockA;&lt;br&gt;&amp;nbsp;&amp;nbsp;&amp;nbsp; private String lockB;&lt;br&gt;&amp;nbsp;&amp;nbsp;&amp;nbsp; public HoldLockThread(String lockA,String lockB){&lt;br&gt;&amp;nbsp;&amp;nbsp;&amp;nbsp;&amp;nbsp;&amp;nbsp;&amp;nbsp;&amp;nbsp; this.lockA = lockA;&lt;br&gt;&amp;nbsp;&amp;nbsp;&amp;nbsp;&amp;nbsp;&amp;nbsp;&amp;nbsp;&amp;nbsp; this.lockB = lockB;&lt;br&gt;&amp;nbsp;&amp;nbsp;&amp;nbsp; }&lt;br&gt;&amp;nbsp;&amp;nbsp;&amp;nbsp; @Override&lt;br&gt;&amp;nbsp;&amp;nbsp;&amp;nbsp; public void run() {&lt;br&gt;&amp;nbsp;&amp;nbsp;&amp;nbsp;&amp;nbsp;&amp;nbsp;&amp;nbsp;&amp;nbsp; synchronized (lockA){&lt;br&gt;&amp;nbsp;&amp;nbsp;&amp;nbsp;&amp;nbsp;&amp;nbsp;&amp;nbsp;&amp;nbsp;&amp;nbsp;&amp;nbsp;&amp;nbsp;&amp;nbsp; System.out.println(Thread.currentThread().getName() + &quot;\t占有&quot; + lockA + &quot;，尝试占有&quot; + lockB);&lt;br&gt;&amp;nbsp;&amp;nbsp;&amp;nbsp;&amp;nbsp;&amp;nbsp;&amp;nbsp;&amp;nbsp;&amp;nbsp;&amp;nbsp;&amp;nbsp;&amp;nbsp; synchronized (lockB){&lt;br&gt;&amp;nbsp;&amp;nbsp;&amp;nbsp;&amp;nbsp;&amp;nbsp;&amp;nbsp;&amp;nbsp;&amp;nbsp;&amp;nbsp;&amp;nbsp;&amp;nbsp;&amp;nbsp;&amp;nbsp;&amp;nbsp;&amp;nbsp; System.out.println(Thread.currentThread().getName() + &quot;\t占有&quot; + lockB + &quot;，尝试占有&quot; + lockA);&lt;br&gt;&amp;nbsp;&amp;nbsp;&amp;nbsp;&amp;nbsp;&amp;nbsp;&amp;nbsp;&amp;nbsp;&amp;nbsp;&amp;nbsp;&amp;nbsp;&amp;nbsp; }&lt;br&gt;&amp;nbsp;&amp;nbsp;&amp;nbsp;&amp;nbsp;&amp;nbsp;&amp;nbsp;&amp;nbsp; }&lt;br&gt;&amp;nbsp;&amp;nbsp;&amp;nbsp; }&lt;br&gt;}&lt;/div&gt;&lt;div&gt;&lt;br&gt;&lt;/div&gt;&lt;div&gt;public class DeadLockDemo {&lt;br&gt;&amp;nbsp;&amp;nbsp;&amp;nbsp; public static void main(String[] args) {&lt;br&gt;&amp;nbsp;&amp;nbsp;&amp;nbsp;&amp;nbsp;&amp;nbsp;&amp;nbsp;&amp;nbsp; String lockA = &quot;lockA&quot;;&lt;br&gt;&amp;nbsp;&amp;nbsp;&amp;nbsp;&amp;nbsp;&amp;nbsp;&amp;nbsp;&amp;nbsp; String lockB = &quot;lockB&quot;;&lt;br&gt;&amp;nbsp;&amp;nbsp;&amp;nbsp;&amp;nbsp;&amp;nbsp;&amp;nbsp;&amp;nbsp; new Thread(new HoldLockThread(lockA,lockB),&quot;threadAAA&quot;).start();&lt;br&gt;&amp;nbsp;&amp;nbsp;&amp;nbsp;&amp;nbsp;&amp;nbsp;&amp;nbsp;&amp;nbsp; new Thread(new HoldLockThread(lockB,lockA),&quot;threadBBB&quot;).start();&lt;/div&gt;&lt;div&gt;&amp;nbsp;&amp;nbsp;&amp;nbsp;&amp;nbsp;&amp;nbsp;&amp;nbsp;&amp;nbsp; /**&lt;br&gt;&amp;nbsp;&amp;nbsp;&amp;nbsp;&amp;nbsp;&amp;nbsp;&amp;nbsp;&amp;nbsp;&amp;nbsp; * linux ps -ef|grep xxx ls -l&lt;br&gt;&amp;nbsp;&amp;nbsp;&amp;nbsp;&amp;nbsp;&amp;nbsp;&amp;nbsp;&amp;nbsp;&amp;nbsp; * windows下的java运行程序 也有类似ps的查看进程的命令，但是目前我们需要查看的只是java&lt;br&gt;&amp;nbsp;&amp;nbsp;&amp;nbsp;&amp;nbsp;&amp;nbsp;&amp;nbsp;&amp;nbsp;&amp;nbsp; *&amp;nbsp;&amp;nbsp;&amp;nbsp;&amp;nbsp; jps = java ps&amp;nbsp;&amp;nbsp;&amp;nbsp;&amp;nbsp;&amp;nbsp;&amp;nbsp;&amp;nbsp;&amp;nbsp; jps -l&lt;br&gt;&amp;nbsp;&amp;nbsp;&amp;nbsp;&amp;nbsp;&amp;nbsp;&amp;nbsp;&amp;nbsp;&amp;nbsp; */&lt;br&gt;&lt;/div&gt;&lt;div&gt;&amp;nbsp;&amp;nbsp;&amp;nbsp; }&lt;br&gt;}&lt;/div&gt;&lt;div&gt;&lt;br&gt;&lt;/div&gt;&lt;div&gt;查看进程号：jps -l &lt;/div&gt;&lt;div&gt;查看进程堆栈：jstack&amp;nbsp; 进程号&lt;/div&gt;&lt;div&gt;D:\java-all\practice&amp;gt;jps -l&lt;br&gt;25520 sun.tools.jps.Jps&lt;br&gt;5888 org.jetbrains.jps.cmdline.Launcher&lt;br&gt;6240&lt;br&gt;14244 com.jjc.mypratice.javase.multithread.deadlock.DeadLockDemo&lt;br&gt;25556 org.jetbrains.idea.maven.server.RemoteMavenServer36&lt;br&gt;25240 org.jetbrains.kotlin.daemon.KotlinCompileDaemon&lt;br&gt;&lt;br&gt;D:\java-all\practice&amp;gt;jstack 14244&lt;br&gt;2021-03-07 16:32:19&lt;br&gt;Full thread dump Java HotSpot(TM) 64-Bit Server VM (25.241-b07 mixed mode):&lt;br&gt;&lt;br&gt;&quot;DestroyJavaVM&quot; #13 prio=5 os_prio=0 tid=0x0000000002944000 nid=0x4474 waiting on condition [0x0000000000000000]&lt;br&gt;&amp;nbsp;&amp;nbsp; java.lang.Thread.State: RUNNABLE&lt;br&gt;&lt;br&gt;&quot;threadBBB&quot; #12 prio=5 os_prio=0 tid=0x0000000018b9a800 nid=0x74c waiting for monitor entry [0x00000000196df000]&lt;br&gt;&amp;nbsp;&amp;nbsp; java.lang.Thread.State: BLOCKED (on object monitor)&lt;br&gt;&amp;nbsp;&amp;nbsp;&amp;nbsp;&amp;nbsp;&amp;nbsp;&amp;nbsp;&amp;nbsp; at com.jjc.mypratice.javase.multithread.deadlock.HoldLockThread.run(HoldLockThread.java:22)&lt;br&gt;&amp;nbsp;&amp;nbsp;&amp;nbsp;&amp;nbsp;&amp;nbsp;&amp;nbsp;&amp;nbsp; - waiting to lock &amp;lt;0x00000000d5f16960&amp;gt; (a java.lang.String)&lt;br&gt;&amp;nbsp;&amp;nbsp;&amp;nbsp;&amp;nbsp;&amp;nbsp;&amp;nbsp;&amp;nbsp; - locked &amp;lt;0x00000000d5f16998&amp;gt; (a java.lang.String)&lt;br&gt;&amp;nbsp;&amp;nbsp;&amp;nbsp;&amp;nbsp;&amp;nbsp;&amp;nbsp;&amp;nbsp; at java.lang.Thread.run(Thread.java:748)&lt;br&gt;&lt;br&gt;&quot;threadAAA&quot; #11 prio=5 os_prio=0 tid=0x0000000018b97800 nid=0x7458 waiting for monitor entry [0x00000000195df000]&lt;br&gt;&amp;nbsp;&amp;nbsp; java.lang.Thread.State: BLOCKED (on object monitor)&lt;br&gt;&amp;nbsp;&amp;nbsp;&amp;nbsp;&amp;nbsp;&amp;nbsp;&amp;nbsp;&amp;nbsp; at com.jjc.mypratice.javase.multithread.deadlock.HoldLockThread.run(HoldLockThread.java:22)&lt;br&gt;&amp;nbsp;&amp;nbsp;&amp;nbsp;&amp;nbsp;&amp;nbsp;&amp;nbsp;&amp;nbsp; - waiting to lock &amp;lt;0x00000000d5f16998&amp;gt; (a java.lang.String)&lt;br&gt;&amp;nbsp;&amp;nbsp;&amp;nbsp;&amp;nbsp;&amp;nbsp;&amp;nbsp;&amp;nbsp; - locked &amp;lt;0x00000000d5f16960&amp;gt; (a java.lang.String)&lt;br&gt;&amp;nbsp;&amp;nbsp;&amp;nbsp;&amp;nbsp;&amp;nbsp;&amp;nbsp;&amp;nbsp; at java.lang.Thread.run(Thread.java:748)&lt;br&gt;&lt;br&gt;&quot;Service Thread&quot; #10 daemon prio=9 os_prio=0 tid=0x0000000018ac4800 nid=0x3fb8 runnable [0x0000000000000000]&lt;br&gt;&amp;nbsp;&amp;nbsp; java.lang.Thread.State: RUNNABLE&lt;br&gt;&lt;br&gt;&quot;C1 CompilerThread2&quot; #9 daemon prio=9 os_prio=2 tid=0x0000000018a86800 nid=0x2b38 waiting on condition [0x0000000000000000]&lt;br&gt;&amp;nbsp;&amp;nbsp; java.lang.Thread.State: RUNNABLE&lt;br&gt;&lt;br&gt;&quot;C2 CompilerThread1&quot; #8 daemon prio=9 os_prio=2 tid=0x0000000018a36800 nid=0x5eac waiting on condition [0x0000000000000000]&lt;br&gt;&amp;nbsp;&amp;nbsp; java.lang.Thread.State: RUNNABLE&lt;br&gt;&lt;br&gt;&quot;C2 CompilerThread0&quot; #7 daemon prio=9 os_prio=2 tid=0x0000000018a12800 nid=0x71f0 waiting on condition [0x0000000000000000]&lt;br&gt;&amp;nbsp;&amp;nbsp; java.lang.Thread.State: RUNNABLE&lt;br&gt;&lt;br&gt;&quot;Monitor Ctrl-Break&quot; #6 daemon prio=5 os_prio=0 tid=0x00000000189de800 nid=0x7ba0 runnable [0x0000000018fde000]&lt;br&gt;&amp;nbsp;&amp;nbsp; java.lang.Thread.State: RUNNABLE&lt;br&gt;&amp;nbsp;&amp;nbsp;&amp;nbsp;&amp;nbsp;&amp;nbsp;&amp;nbsp;&amp;nbsp; at java.net.SocketInputStream.socketRead0(Native Method)&lt;br&gt;&amp;nbsp;&amp;nbsp;&amp;nbsp;&amp;nbsp;&amp;nbsp;&amp;nbsp;&amp;nbsp; at java.net.SocketInputStream.socketRead(SocketInputStream.java:116)&lt;br&gt;&amp;nbsp;&amp;nbsp;&amp;nbsp;&amp;nbsp;&amp;nbsp;&amp;nbsp;&amp;nbsp; at java.net.SocketInputStream.read(SocketInputStream.java:171)&lt;br&gt;&amp;nbsp;&amp;nbsp;&amp;nbsp;&amp;nbsp;&amp;nbsp;&amp;nbsp;&amp;nbsp; at java.net.SocketInputStream.read(SocketInputStream.java:141)&lt;br&gt;&amp;nbsp;&amp;nbsp;&amp;nbsp;&amp;nbsp;&amp;nbsp;&amp;nbsp;&amp;nbsp; at sun.nio.cs.StreamDecoder.readBytes(StreamDecoder.java:284)&lt;br&gt;&amp;nbsp;&amp;nbsp;&amp;nbsp;&amp;nbsp;&amp;nbsp;&amp;nbsp;&amp;nbsp; at sun.nio.cs.StreamDecoder.implRead(StreamDecoder.java:326)&lt;br&gt;&amp;nbsp;&amp;nbsp;&amp;nbsp;&amp;nbsp;&amp;nbsp;&amp;nbsp;&amp;nbsp; at sun.nio.cs.StreamDecoder.read(StreamDecoder.java:178)&lt;br&gt;&amp;nbsp;&amp;nbsp;&amp;nbsp;&amp;nbsp;&amp;nbsp;&amp;nbsp;&amp;nbsp; - locked &amp;lt;0x00000000d5fb30b8&amp;gt; (a java.io.InputStreamReader)&lt;br&gt;&amp;nbsp;&amp;nbsp;&amp;nbsp;&amp;nbsp;&amp;nbsp;&amp;nbsp;&amp;nbsp; at java.io.InputStreamReader.read(InputStreamReader.java:184)&lt;br&gt;&amp;nbsp;&amp;nbsp;&amp;nbsp;&amp;nbsp;&amp;nbsp;&amp;nbsp;&amp;nbsp; at java.io.BufferedReader.fill(BufferedReader.java:161)&lt;br&gt;&amp;nbsp;&amp;nbsp;&amp;nbsp;&amp;nbsp;&amp;nbsp;&amp;nbsp;&amp;nbsp; at java.io.BufferedReader.readLine(BufferedReader.java:324)&lt;br&gt;&amp;nbsp;&amp;nbsp;&amp;nbsp;&amp;nbsp;&amp;nbsp;&amp;nbsp;&amp;nbsp; - locked &amp;lt;0x00000000d5fb30b8&amp;gt; (a java.io.InputStreamReader)&lt;br&gt;&amp;nbsp;&amp;nbsp;&amp;nbsp;&amp;nbsp;&amp;nbsp;&amp;nbsp;&amp;nbsp; at java.io.BufferedReader.readLine(BufferedReader.java:389)&lt;br&gt;&amp;nbsp;&amp;nbsp;&amp;nbsp;&amp;nbsp;&amp;nbsp;&amp;nbsp;&amp;nbsp; at com.intellij.rt.execution.application.AppMainV2$1.run(AppMainV2.java:64)&lt;br&gt;&lt;br&gt;&quot;Attach Listener&quot; #5 daemon prio=5 os_prio=2 tid=0x00000000175ee000 nid=0x19ac waiting on condition [0x0000000000000000]&lt;br&gt;&amp;nbsp;&amp;nbsp; java.lang.Thread.State: RUNNABLE&lt;br&gt;&lt;br&gt;&quot;Signal Dispatcher&quot; #4 daemon prio=9 os_prio=2 tid=0x00000000188e8800 nid=0x6fa8 runnable [0x0000000000000000]&lt;br&gt;&amp;nbsp;&amp;nbsp; java.lang.Thread.State: RUNNABLE&lt;br&gt;&lt;br&gt;&quot;Finalizer&quot; #3 daemon prio=8 os_prio=1 tid=0x0000000002a3c800 nid=0x3c0c in Object.wait() [0x00000000188de000]&lt;br&gt;&amp;nbsp;&amp;nbsp; java.lang.Thread.State: WAITING (on object monitor)&lt;br&gt;&amp;nbsp;&amp;nbsp;&amp;nbsp;&amp;nbsp;&amp;nbsp;&amp;nbsp;&amp;nbsp; at java.lang.Object.wait(Native Method)&lt;br&gt;&amp;nbsp;&amp;nbsp;&amp;nbsp;&amp;nbsp;&amp;nbsp;&amp;nbsp;&amp;nbsp; - waiting on &amp;lt;0x00000000d5d88ee0&amp;gt; (a java.lang.ref.ReferenceQueue$Lock)&lt;br&gt;&amp;nbsp;&amp;nbsp;&amp;nbsp;&amp;nbsp;&amp;nbsp;&amp;nbsp;&amp;nbsp; at java.lang.ref.ReferenceQueue.remove(ReferenceQueue.java:144)&lt;br&gt;&amp;nbsp;&amp;nbsp;&amp;nbsp;&amp;nbsp;&amp;nbsp;&amp;nbsp;&amp;nbsp; - locked &amp;lt;0x00000000d5d88ee0&amp;gt; (a java.lang.ref.ReferenceQueue$Lock)&lt;br&gt;&amp;nbsp;&amp;nbsp;&amp;nbsp;&amp;nbsp;&amp;nbsp;&amp;nbsp;&amp;nbsp; at java.lang.ref.ReferenceQueue.remove(ReferenceQueue.java:165)&lt;br&gt;&amp;nbsp;&amp;nbsp;&amp;nbsp;&amp;nbsp;&amp;nbsp;&amp;nbsp;&amp;nbsp; at java.lang.ref.Finalizer$FinalizerThread.run(Finalizer.java:216)&lt;br&gt;&lt;br&gt;&quot;Reference Handler&quot; #2 daemon prio=10 os_prio=2 tid=0x0000000002a34000 nid=0x7c80 in Object.wait() [0x00000000187df000]&lt;br&gt;&amp;nbsp;&amp;nbsp; java.lang.Thread.State: WAITING (on object monitor)&lt;br&gt;&amp;nbsp;&amp;nbsp;&amp;nbsp;&amp;nbsp;&amp;nbsp;&amp;nbsp;&amp;nbsp; at java.lang.Object.wait(Native Method)&lt;br&gt;&amp;nbsp;&amp;nbsp;&amp;nbsp;&amp;nbsp;&amp;nbsp;&amp;nbsp;&amp;nbsp; - waiting on &amp;lt;0x00000000d5d86c00&amp;gt; (a java.lang.ref.Reference$Lock)&lt;br&gt;&amp;nbsp;&amp;nbsp;&amp;nbsp;&amp;nbsp;&amp;nbsp;&amp;nbsp;&amp;nbsp; at java.lang.Object.wait(Object.java:502)&lt;br&gt;&amp;nbsp;&amp;nbsp;&amp;nbsp;&amp;nbsp;&amp;nbsp;&amp;nbsp;&amp;nbsp; at java.lang.ref.Reference.tryHandlePending(Reference.java:191)&lt;br&gt;&amp;nbsp;&amp;nbsp;&amp;nbsp;&amp;nbsp;&amp;nbsp;&amp;nbsp;&amp;nbsp; - locked &amp;lt;0x00000000d5d86c00&amp;gt; (a java.lang.ref.Reference$Lock)&lt;br&gt;&amp;nbsp;&amp;nbsp;&amp;nbsp;&amp;nbsp;&amp;nbsp;&amp;nbsp;&amp;nbsp; at java.lang.ref.Reference$ReferenceHandler.run(Reference.java:153)&lt;br&gt;&lt;br&gt;&quot;VM Thread&quot; os_prio=2 tid=0x0000000017557000 nid=0x2a9c runnable&lt;br&gt;&lt;br&gt;&quot;GC task thread#0 (ParallelGC)&quot; os_prio=0 tid=0x0000000002959800 nid=0x550c runnable&lt;br&gt;&lt;br&gt;&quot;GC task thread#1 (ParallelGC)&quot; os_prio=0 tid=0x000000000295b000 nid=0x3ed4 runnable&lt;br&gt;&lt;br&gt;&quot;GC task thread#2 (ParallelGC)&quot; os_prio=0 tid=0x000000000295c800 nid=0x6a24 runnable&lt;br&gt;&lt;br&gt;&quot;GC task thread#3 (ParallelGC)&quot; os_prio=0 tid=0x000000000295e000 nid=0x3980 runnable&lt;br&gt;&lt;br&gt;&quot;VM Periodic Task Thread&quot; os_prio=2 tid=0x0000000018ac6800 nid=0x833c waiting on condition&lt;br&gt;&lt;br&gt;JNI global references: 12&lt;br&gt;&lt;br&gt;&lt;br&gt;Found one Java-level deadlock:&lt;br&gt;=============================&lt;br&gt;&quot;threadBBB&quot;:&lt;br&gt;&amp;nbsp; waiting to lock monitor 0x0000000002a39bf8 (object 0x00000000d5f16960, a java.lang.String),&lt;br&gt;&amp;nbsp; which is held by &quot;threadAAA&quot;&lt;br&gt;&quot;threadAAA&quot;:&lt;br&gt;&amp;nbsp; waiting to lock monitor 0x0000000002a3c698 (object 0x00000000d5f16998, a java.lang.String),&lt;br&gt;&amp;nbsp; which is held by &quot;threadBBB&quot;&lt;br&gt;&lt;br&gt;Java stack information for the threads listed above:&lt;br&gt;===================================================&lt;br&gt;&quot;threadBBB&quot;:&lt;br&gt;&amp;nbsp;&amp;nbsp;&amp;nbsp;&amp;nbsp;&amp;nbsp;&amp;nbsp;&amp;nbsp; at com.jjc.mypratice.javase.multithread.deadlock.HoldLockThread.run(HoldLockThread.java:22)&lt;br&gt;&amp;nbsp;&amp;nbsp;&amp;nbsp;&amp;nbsp;&amp;nbsp;&amp;nbsp;&amp;nbsp; - waiting to lock &amp;lt;0x00000000d5f16960&amp;gt; (a java.lang.String)&lt;br&gt;&amp;nbsp;&amp;nbsp;&amp;nbsp;&amp;nbsp;&amp;nbsp;&amp;nbsp;&amp;nbsp; - locked &amp;lt;0x00000000d5f16998&amp;gt; (a java.lang.String)&lt;br&gt;&amp;nbsp;&amp;nbsp;&amp;nbsp;&amp;nbsp;&amp;nbsp;&amp;nbsp;&amp;nbsp; at java.lang.Thread.run(Thread.java:748)&lt;br&gt;&quot;threadAAA&quot;:&lt;br&gt;&amp;nbsp;&amp;nbsp;&amp;nbsp;&amp;nbsp;&amp;nbsp;&amp;nbsp;&amp;nbsp; at com.jjc.mypratice.javase.multithread.deadlock.HoldLockThread.run(HoldLockThread.java:22)&lt;br&gt;&amp;nbsp;&amp;nbsp;&amp;nbsp;&amp;nbsp;&amp;nbsp;&amp;nbsp;&amp;nbsp; - waiting to lock &amp;lt;0x00000000d5f16998&amp;gt; (a java.lang.String)&lt;br&gt;&amp;nbsp;&amp;nbsp;&amp;nbsp;&amp;nbsp;&amp;nbsp;&amp;nbsp;&amp;nbsp; - locked &amp;lt;0x00000000d5f16960&amp;gt; (a java.lang.String)&lt;br&gt;&amp;nbsp;&amp;nbsp;&amp;nbsp;&amp;nbsp;&amp;nbsp;&amp;nbsp;&amp;nbsp; at java.lang.Thread.run(Thread.java:748)&lt;br&gt;&lt;br&gt;Found 1 deadlock.&lt;br&gt;&lt;br&gt;&lt;/div&gt;&lt;div&gt;&lt;br&gt;&lt;/div&gt;&lt;div&gt;&lt;br&gt;&lt;/div&gt;&lt;div&gt;&lt;br&gt;&lt;/div&gt;" style="text;html=1;strokeColor=none;fillColor=none;align=left;verticalAlign=middle;whiteSpace=wrap;rounded=0;" parent="1" vertex="1">
                    <mxGeometry x="30" y="4570" width="770" height="2640" as="geometry"/>
                </mxCell>
                <mxCell id="2" value="" style="rounded=0;whiteSpace=wrap;html=1;" vertex="1" parent="1">
                    <mxGeometry x="20" y="7569" width="780" height="131" as="geometry"/>
                </mxCell>
                <mxCell id="3" value="" style="rounded=0;whiteSpace=wrap;html=1;" vertex="1" parent="1">
                    <mxGeometry x="560" y="7300" width="140" height="110" as="geometry"/>
                </mxCell>
                <mxCell id="4" value="受理窗口" style="text;html=1;strokeColor=none;fillColor=none;align=center;verticalAlign=middle;whiteSpace=wrap;rounded=0;" vertex="1" parent="1">
                    <mxGeometry x="585" y="7320" width="90" height="20" as="geometry"/>
                </mxCell>
                <mxCell id="5" value="Thread = ThreadA" style="text;html=1;strokeColor=none;fillColor=none;align=center;verticalAlign=middle;whiteSpace=wrap;rounded=0;" vertex="1" parent="1">
                    <mxGeometry x="555" y="7320" width="150" height="80" as="geometry"/>
                </mxCell>
                <mxCell id="6" value="" style="ellipse;whiteSpace=wrap;html=1;aspect=fixed;fillColor=#a20025;strokeColor=#6F0000;fontColor=#ffffff;" vertex="1" parent="1">
                    <mxGeometry x="440" y="7315" width="80" height="80" as="geometry"/>
                </mxCell>
                <mxCell id="7" value="state = 1" style="text;html=1;strokeColor=none;fillColor=none;align=center;verticalAlign=middle;whiteSpace=wrap;rounded=0;" vertex="1" parent="1">
                    <mxGeometry x="450" y="7335" width="60" height="40" as="geometry"/>
                </mxCell>
                <mxCell id="8" value="初始没人" style="text;html=1;strokeColor=none;fillColor=none;align=center;verticalAlign=middle;whiteSpace=wrap;rounded=0;" vertex="1" parent="1">
                    <mxGeometry x="422.5" y="7275" width="115" height="40" as="geometry"/>
                </mxCell>
                <mxCell id="9" value="顾客等候区" style="text;html=1;strokeColor=none;fillColor=none;align=center;verticalAlign=middle;whiteSpace=wrap;rounded=0;" vertex="1" parent="1">
                    <mxGeometry x="327.5" y="7549" width="145" height="20" as="geometry"/>
                </mxCell>
                <mxCell id="10" value="AQS = state + CLH变种的双端队列" style="text;html=1;strokeColor=none;fillColor=none;align=center;verticalAlign=middle;whiteSpace=wrap;rounded=0;" vertex="1" parent="1">
                    <mxGeometry x="180" y="7282.5" width="220" height="25" as="geometry"/>
                </mxCell>
                <mxCell id="13" value="" style="rounded=1;whiteSpace=wrap;html=1;" vertex="1" parent="1">
                    <mxGeometry x="170" y="7604.5" width="120" height="60" as="geometry"/>
                </mxCell>
                <mxCell id="14" value="" style="rounded=1;whiteSpace=wrap;html=1;" vertex="1" parent="1">
                    <mxGeometry x="30" y="7325" width="120" height="60" as="geometry"/>
                </mxCell>
                <mxCell id="16" value="前来办理业务的顾客" style="text;html=1;strokeColor=none;fillColor=none;align=center;verticalAlign=middle;whiteSpace=wrap;rounded=0;" vertex="1" parent="1">
                    <mxGeometry x="30" y="7288" width="120" height="22" as="geometry"/>
                </mxCell>
                <mxCell id="18" value="ThreadD" style="text;html=1;strokeColor=none;fillColor=none;align=center;verticalAlign=middle;whiteSpace=wrap;rounded=0;" vertex="1" parent="1">
                    <mxGeometry x="40" y="7336" width="100" height="30" as="geometry"/>
                </mxCell>
                <mxCell id="19" value="Thread = null&lt;br&gt;waitStatus = 0" style="text;html=1;strokeColor=none;fillColor=none;align=center;verticalAlign=middle;whiteSpace=wrap;rounded=0;" vertex="1" parent="1">
                    <mxGeometry x="180" y="7619.5" width="100" height="30" as="geometry"/>
                </mxCell>
                <mxCell id="41" style="edgeStyle=orthogonalEdgeStyle;rounded=0;orthogonalLoop=1;jettySize=auto;html=1;entryX=0.517;entryY=-0.008;entryDx=0;entryDy=0;entryPerimeter=0;" edge="1" parent="1" source="21" target="13">
                    <mxGeometry relative="1" as="geometry">
                        <Array as="points">
                            <mxPoint x="70" y="7510"/>
                            <mxPoint x="232" y="7510"/>
                        </Array>
                    </mxGeometry>
                </mxCell>
                <mxCell id="21" value="head" style="rounded=0;whiteSpace=wrap;html=1;" vertex="1" parent="1">
                    <mxGeometry x="40" y="7599" width="60" height="30" as="geometry"/>
                </mxCell>
                <mxCell id="40" style="edgeStyle=orthogonalEdgeStyle;rounded=0;orthogonalLoop=1;jettySize=auto;html=1;" edge="1" parent="1" source="22" target="26">
                    <mxGeometry relative="1" as="geometry">
                        <Array as="points">
                            <mxPoint x="70" y="7740"/>
                            <mxPoint x="620" y="7740"/>
                        </Array>
                    </mxGeometry>
                </mxCell>
                <mxCell id="22" value="tail" style="rounded=0;whiteSpace=wrap;html=1;" vertex="1" parent="1">
                    <mxGeometry x="40" y="7629" width="60" height="30" as="geometry"/>
                </mxCell>
                <mxCell id="24" value="" style="rounded=1;whiteSpace=wrap;html=1;" vertex="1" parent="1">
                    <mxGeometry x="365" y="7604.5" width="120" height="60" as="geometry"/>
                </mxCell>
                <mxCell id="25" value="Thread = ThreadB&lt;br&gt;waitStatus&amp;nbsp; = 0" style="text;html=1;strokeColor=none;fillColor=none;align=center;verticalAlign=middle;whiteSpace=wrap;rounded=0;" vertex="1" parent="1">
                    <mxGeometry x="367.5" y="7619.5" width="115" height="30" as="geometry"/>
                </mxCell>
                <mxCell id="26" value="" style="rounded=1;whiteSpace=wrap;html=1;" vertex="1" parent="1">
                    <mxGeometry x="550" y="7604.5" width="120" height="60" as="geometry"/>
                </mxCell>
                <mxCell id="27" value="Thread = ThreadC&lt;br&gt;waitStatus = 0" style="text;html=1;strokeColor=none;fillColor=none;align=center;verticalAlign=middle;whiteSpace=wrap;rounded=0;" vertex="1" parent="1">
                    <mxGeometry x="555" y="7619.5" width="110" height="30" as="geometry"/>
                </mxCell>
                <mxCell id="31" value="" style="endArrow=classic;html=1;entryX=1;entryY=0.6;entryDx=0;entryDy=0;entryPerimeter=0;exitX=0.008;exitY=0.208;exitDx=0;exitDy=0;exitPerimeter=0;" edge="1" parent="1">
                    <mxGeometry width="50" height="50" relative="1" as="geometry">
                        <mxPoint x="365" y="7618.5" as="sourcePoint"/>
                        <mxPoint x="294.03999999999996" y="7618.52" as="targetPoint"/>
                    </mxGeometry>
                </mxCell>
                <mxCell id="32" value="prev" style="edgeLabel;html=1;align=center;verticalAlign=middle;resizable=0;points=[];" vertex="1" connectable="0" parent="31">
                    <mxGeometry x="-0.3529" y="-1" relative="1" as="geometry">
                        <mxPoint as="offset"/>
                    </mxGeometry>
                </mxCell>
                <mxCell id="33" value="" style="endArrow=classic;html=1;entryX=1;entryY=0.6;entryDx=0;entryDy=0;entryPerimeter=0;exitX=0.008;exitY=0.208;exitDx=0;exitDy=0;exitPerimeter=0;" edge="1" parent="1">
                    <mxGeometry width="50" height="50" relative="1" as="geometry">
                        <mxPoint x="553.46" y="7619.5" as="sourcePoint"/>
                        <mxPoint x="482.5" y="7619.52" as="targetPoint"/>
                    </mxGeometry>
                </mxCell>
                <mxCell id="34" value="prev" style="edgeLabel;html=1;align=center;verticalAlign=middle;resizable=0;points=[];" vertex="1" connectable="0" parent="33">
                    <mxGeometry x="-0.3529" y="-1" relative="1" as="geometry">
                        <mxPoint as="offset"/>
                    </mxGeometry>
                </mxCell>
                <mxCell id="36" value="" style="endArrow=classic;html=1;entryX=0;entryY=0.758;entryDx=0;entryDy=0;entryPerimeter=0;exitX=1.033;exitY=0.667;exitDx=0;exitDy=0;exitPerimeter=0;" edge="1" parent="1">
                    <mxGeometry width="50" height="50" relative="1" as="geometry">
                        <mxPoint x="296.98" y="7658" as="sourcePoint"/>
                        <mxPoint x="365" y="7658.969999999999" as="targetPoint"/>
                    </mxGeometry>
                </mxCell>
                <mxCell id="37" value="next" style="edgeLabel;html=1;align=center;verticalAlign=middle;resizable=0;points=[];" vertex="1" connectable="0" parent="36">
                    <mxGeometry x="-0.4396" y="-3" relative="1" as="geometry">
                        <mxPoint as="offset"/>
                    </mxGeometry>
                </mxCell>
                <mxCell id="38" value="" style="endArrow=classic;html=1;entryX=0;entryY=0.758;entryDx=0;entryDy=0;entryPerimeter=0;exitX=1.033;exitY=0.667;exitDx=0;exitDy=0;exitPerimeter=0;" edge="1" parent="1">
                    <mxGeometry width="50" height="50" relative="1" as="geometry">
                        <mxPoint x="485" y="7649.5" as="sourcePoint"/>
                        <mxPoint x="553.02" y="7650.469999999999" as="targetPoint"/>
                    </mxGeometry>
                </mxCell>
                <mxCell id="39" value="next" style="edgeLabel;html=1;align=center;verticalAlign=middle;resizable=0;points=[];" vertex="1" connectable="0" parent="38">
                    <mxGeometry x="-0.4396" y="-3" relative="1" as="geometry">
                        <mxPoint as="offset"/>
                    </mxGeometry>
                </mxCell>
                <mxCell id="42" value="" style="rounded=0;whiteSpace=wrap;html=1;" vertex="1" parent="1">
                    <mxGeometry x="15.5" y="8144" width="780" height="131" as="geometry"/>
                </mxCell>
                <mxCell id="43" value="" style="rounded=0;whiteSpace=wrap;html=1;" vertex="1" parent="1">
                    <mxGeometry x="555.5" y="7875" width="140" height="110" as="geometry"/>
                </mxCell>
                <mxCell id="44" value="受理窗口" style="text;html=1;strokeColor=none;fillColor=none;align=center;verticalAlign=middle;whiteSpace=wrap;rounded=0;" vertex="1" parent="1">
                    <mxGeometry x="580.5" y="7895" width="90" height="20" as="geometry"/>
                </mxCell>
                <mxCell id="45" value="Thread = ThreadB" style="text;html=1;strokeColor=none;fillColor=none;align=center;verticalAlign=middle;whiteSpace=wrap;rounded=0;" vertex="1" parent="1">
                    <mxGeometry x="550.5" y="7895" width="150" height="80" as="geometry"/>
                </mxCell>
                <mxCell id="46" value="" style="ellipse;whiteSpace=wrap;html=1;aspect=fixed;fillColor=#a20025;strokeColor=#6F0000;fontColor=#ffffff;" vertex="1" parent="1">
                    <mxGeometry x="435.5" y="7890" width="80" height="80" as="geometry"/>
                </mxCell>
                <mxCell id="47" value="state = 1" style="text;html=1;strokeColor=none;fillColor=none;align=center;verticalAlign=middle;whiteSpace=wrap;rounded=0;" vertex="1" parent="1">
                    <mxGeometry x="445.5" y="7910" width="60" height="40" as="geometry"/>
                </mxCell>
                <mxCell id="48" value="初始没人" style="text;html=1;strokeColor=none;fillColor=none;align=center;verticalAlign=middle;whiteSpace=wrap;rounded=0;" vertex="1" parent="1">
                    <mxGeometry x="418" y="7850" width="115" height="40" as="geometry"/>
                </mxCell>
                <mxCell id="49" value="顾客等候区" style="text;html=1;strokeColor=none;fillColor=none;align=center;verticalAlign=middle;whiteSpace=wrap;rounded=0;" vertex="1" parent="1">
                    <mxGeometry x="323" y="8124" width="145" height="20" as="geometry"/>
                </mxCell>
                <mxCell id="50" value="AQS = state + CLH变种的双端队列" style="text;html=1;strokeColor=none;fillColor=none;align=center;verticalAlign=middle;whiteSpace=wrap;rounded=0;" vertex="1" parent="1">
                    <mxGeometry x="175.5" y="7857.5" width="220" height="25" as="geometry"/>
                </mxCell>
                <mxCell id="51" value="" style="rounded=1;whiteSpace=wrap;html=1;" vertex="1" parent="1">
                    <mxGeometry x="165.5" y="8179.5" width="120" height="60" as="geometry"/>
                </mxCell>
                <mxCell id="52" value="" style="rounded=1;whiteSpace=wrap;html=1;" vertex="1" parent="1">
                    <mxGeometry x="25.5" y="7900" width="120" height="60" as="geometry"/>
                </mxCell>
                <mxCell id="53" value="前来办理业务的顾客" style="text;html=1;strokeColor=none;fillColor=none;align=center;verticalAlign=middle;whiteSpace=wrap;rounded=0;" vertex="1" parent="1">
                    <mxGeometry x="25.5" y="7863" width="120" height="22" as="geometry"/>
                </mxCell>
                <mxCell id="54" value="ThreadD" style="text;html=1;strokeColor=none;fillColor=none;align=center;verticalAlign=middle;whiteSpace=wrap;rounded=0;" vertex="1" parent="1">
                    <mxGeometry x="35.5" y="7911" width="100" height="30" as="geometry"/>
                </mxCell>
                <mxCell id="55" value="Thread = null&lt;br&gt;waitStatus = 0" style="text;html=1;strokeColor=none;fillColor=none;align=center;verticalAlign=middle;whiteSpace=wrap;rounded=0;" vertex="1" parent="1">
                    <mxGeometry x="175.5" y="8194.5" width="100" height="30" as="geometry"/>
                </mxCell>
                <mxCell id="56" style="edgeStyle=orthogonalEdgeStyle;rounded=0;orthogonalLoop=1;jettySize=auto;html=1;entryX=0.517;entryY=-0.008;entryDx=0;entryDy=0;entryPerimeter=0;" edge="1" source="57" target="51" parent="1">
                    <mxGeometry relative="1" as="geometry">
                        <Array as="points">
                            <mxPoint x="65.5" y="8085"/>
                            <mxPoint x="227.5" y="8085"/>
                        </Array>
                    </mxGeometry>
                </mxCell>
                <mxCell id="57" value="head" style="rounded=0;whiteSpace=wrap;html=1;" vertex="1" parent="1">
                    <mxGeometry x="35.5" y="8174" width="60" height="30" as="geometry"/>
                </mxCell>
                <mxCell id="58" style="edgeStyle=orthogonalEdgeStyle;rounded=0;orthogonalLoop=1;jettySize=auto;html=1;entryX=0.496;entryY=0.983;entryDx=0;entryDy=0;entryPerimeter=0;" edge="1" source="59" target="72" parent="1">
                    <mxGeometry relative="1" as="geometry">
                        <mxPoint x="615.5" y="8239.5" as="targetPoint"/>
                        <Array as="points">
                            <mxPoint x="66" y="8315"/>
                            <mxPoint x="412" y="8315"/>
                        </Array>
                    </mxGeometry>
                </mxCell>
                <mxCell id="59" value="tail" style="rounded=0;whiteSpace=wrap;html=1;" vertex="1" parent="1">
                    <mxGeometry x="35.5" y="8204" width="60" height="30" as="geometry"/>
                </mxCell>
                <mxCell id="66" value="" style="endArrow=classic;html=1;entryX=1;entryY=0.6;entryDx=0;entryDy=0;entryPerimeter=0;exitX=0.008;exitY=0.208;exitDx=0;exitDy=0;exitPerimeter=0;" edge="1" parent="1">
                    <mxGeometry width="50" height="50" relative="1" as="geometry">
                        <mxPoint x="355.96000000000004" y="8198" as="sourcePoint"/>
                        <mxPoint x="285" y="8198.02" as="targetPoint"/>
                    </mxGeometry>
                </mxCell>
                <mxCell id="67" value="prev" style="edgeLabel;html=1;align=center;verticalAlign=middle;resizable=0;points=[];" vertex="1" connectable="0" parent="66">
                    <mxGeometry x="-0.3529" y="-1" relative="1" as="geometry">
                        <mxPoint as="offset"/>
                    </mxGeometry>
                </mxCell>
                <mxCell id="70" value="" style="endArrow=classic;html=1;entryX=0;entryY=0.758;entryDx=0;entryDy=0;entryPerimeter=0;exitX=1.033;exitY=0.667;exitDx=0;exitDy=0;exitPerimeter=0;" edge="1" parent="1">
                    <mxGeometry width="50" height="50" relative="1" as="geometry">
                        <mxPoint x="287.5" y="8228" as="sourcePoint"/>
                        <mxPoint x="355.52" y="8228.97" as="targetPoint"/>
                    </mxGeometry>
                </mxCell>
                <mxCell id="71" value="next" style="edgeLabel;html=1;align=center;verticalAlign=middle;resizable=0;points=[];" vertex="1" connectable="0" parent="70">
                    <mxGeometry x="-0.4396" y="-3" relative="1" as="geometry">
                        <mxPoint as="offset"/>
                    </mxGeometry>
                </mxCell>
                <mxCell id="72" value="" style="rounded=1;whiteSpace=wrap;html=1;" vertex="1" parent="1">
                    <mxGeometry x="352.5" y="8183" width="120" height="60" as="geometry"/>
                </mxCell>
                <mxCell id="73" value="Thread = ThreadC&lt;br&gt;waitStatus = 0" style="text;html=1;strokeColor=none;fillColor=none;align=center;verticalAlign=middle;whiteSpace=wrap;rounded=0;" vertex="1" parent="1">
                    <mxGeometry x="357.5" y="8198" width="110" height="30" as="geometry"/>
                </mxCell>
                <mxCell id="74" value="" style="rounded=1;whiteSpace=wrap;html=1;" vertex="1" parent="1">
                    <mxGeometry x="155.5" y="7990" width="120" height="60" as="geometry"/>
                </mxCell>
                <mxCell id="75" value="Thread = null&lt;br&gt;waitStatus = 0" style="text;html=1;strokeColor=none;fillColor=none;align=center;verticalAlign=middle;whiteSpace=wrap;rounded=0;" vertex="1" parent="1">
                    <mxGeometry x="165.5" y="8005" width="100" height="30" as="geometry"/>
                </mxCell>
            </root>
        </mxGraphModel>
    </diagram>
</mxfile>